{
.appVersion = "1176";
DisplayStrings = (
"/f.ss01 f",
"/eightinferior/fiveinferior",
"/eight.numr",
"09"
);
classes = (
{
automatic = 1;

glyphs = (
{
glyphname = A;
layers = (
{
anchors = (
{
name = bottom;
position = "{273, 0}";
},
{
name = ogonek;
position = "{500, 0}";
},
{
name = top;
position = "{296, 597}";
}
);
layerId = "3A4136D0-3900-4A7F-B896-13EBFCDD931C";
paths = (
{
closed = 1;
nodes = (
"588 27 LINE",
"583 27 LINE SMOOTH",
"562 27 OFFCURVE",
"548 45 QCURVE",
"533 66 OFFCURVE",
"519 102 QCURVE SMOOTH",
"308 607 LINE",
"282 607 LINE",
"73 104 LINE SMOOTH",
"58 68 OFFCURVE",
"43 46 QCURVE SMOOTH",
"30 27 OFFCURVE",
"10 27 QCURVE SMOOTH",
"6 27 LINE",
"-20 29 LINE",
"-20 0 LINE",
"153 0 LINE",
"153 29 LINE",
"105 26 LINE SMOOTH",
"83 25 OFFCURVE",
"83 46 QCURVE SMOOTH",
"83 65 OFFCURVE",
"97 96 QCURVE SMOOTH",
"143 208 LINE",
"376 208 LINE",
"425 90 LINE SMOOTH",
"435 68 OFFCURVE",
"435 51 QCURVE SMOOTH",
"435 24 OFFCURVE",
"405 27 QCURVE",
"356 29 LINE",
"356 0 LINE",
"621 0 LINE",
"621 29 LINE"
);
},
{
closed = 1;
nodes = (
"259 488 LINE",
"364 236 LINE",
"155 236 LINE"
);
}
);
userData = {
assembly = "NPUSHB[ ]\011/* 57 values pushed */
36 1 8 6 19 1 1 2 2 74 0 8 0 2 1 8 2 101 0 6 6 17 75 9 7 5 3 4 1 1 0 93 4 1 0 0 21 0 76 0 0 35 34 0 33 0 31 20 34 17 36 21 17 17 10 7 27 
CALL[ ]\011/* CallFunction */";
};
width = 601;
},
{
anchors = (
{
name = bottom;
position = "{271, 0}";
},
{
name = ogonek;
position = "{492, 0}";
},
{
name = top;
position = "{306, 597}";
}
);
layerId = "A0AC7266-FF1C-4B13-9E61-C3CFB2289D5A";
paths = (
{
closed = 1;
nodes = (
"608 35 LINE",
"603 35 LINE SMOOTH",
"582 35 OFFCURVE",
"568 53 QCURVE",
"553 74 OFFCURVE",
"539 110 QCURVE SMOOTH",
"331 607 LINE",
"282 607 LINE",
"76 112 LINE SMOOTH",
"61 76 OFFCURVE",
"46 54 QCURVE SMOOTH",
"33 35 OFFCURVE",
"13 35 QCURVE SMOOTH",
"9 35 LINE",
"-20 37 LINE",
"-20 0 LINE",
"161 0 LINE",
"161 37 LINE",
"116 34 LINE SMOOTH",
"94 33 OFFCURVE",
"94 54 QCURVE SMOOTH",
"94 73 OFFCURVE",
"108 104 QCURVE SMOOTH",
"142 186 LINE",
"362 186 LINE",
"399 98 LINE SMOOTH",
"409 76 OFFCURVE",
"409 59 QCURVE SMOOTH",
"409 32 OFFCURVE",
"379 35 QCURVE",
"333 37 LINE",
"333 0 LINE",
"633 0 LINE",
"633 37 LINE"
);
},
{
closed = 1;
nodes = (
"251 451 LINE",
"348 221 LINE",
"156 221 LINE"
);
}
);
userData = {
assembly = "NPUSHB[ ]\011/* 53 values pushed */
36 1 8 6 1 74 0 8 0 2 1 8 2 101 0 6 6 17 75 9 7 5 3 4 1 1 0 93 4 1 0 0 21 0 76 0 0 35 34 0 33 0 31 20 49 17 36 21 17 17 10 7 27 
CALL[ ]\011/* CallFunction */";
};
width = 613;
}
);
leftKerningGroup = A;
note = A;
rightKerningGroup = A;
unicode = 0041;
},
{
glyphname = AE;
layers = (
{
anchors = (
{
name = top;
position = "{467, 597}";
}
);
layerId = "3A4136D0-3900-4A7F-B896-13EBFCDD931C";
paths = (
{
closed = 1;
nodes = (
"783 599 LINE",
"769 597 OFFCURVE",
"749 597 QCURVE SMOOTH",
"284 597 LINE",
"284 565 LINE",
"335 567 LINE",
"342 567 OFFCURVE",
"352 558 OFFCURVE",
"352 551 QCURVE SMOOTH",
"352 546 OFFCURVE",
"350 543 QCURVE",
"71 86 LINE SMOOTH",
"49 51 OFFCURVE",
"24 25 OFFCURVE",
"11 27 QCURVE",
"-20 30 LINE",
"-20 0 LINE",
"155 0 LINE",
"155 30 LINE",
"104 27 LINE SMOOTH",
"84 26 OFFCURVE",
"84 42 QCURVE SMOOTH",
"84 54 OFFCURVE",
"98 80 QCURVE",
"174 208 LINE",
"420 208 LINE",
"449 52 LINE SMOOTH",
"451 42 OFFCURVE",
"439 26 OFFCURVE",
"427 27 QCURVE SMOOTH",
"370 30 LINE",
"370 0 LINE",
"715 0 LINE SMOOTH",
"767 0 OFFCURVE",
"803 -3 QCURVE",
"803 171 LINE",
"776 171 LINE",
"776 27 OFFCURVE",
"635 27 QCURVE SMOOTH",
"569 27 LINE SMOOTH",
"553 27 OFFCURVE",
"548 46 QCURVE",
"500 297 LINE",
"579 297 LINE SMOOTH",
"612 297 OFFCURVE",
"655 240 OFFCURVE",
"655 195 QCURVE",
"681 195 LINE",
"681 426 LINE",
"655 426 LINE",
"655 381 OFFCURVE",
"612 324 OFFCURVE",
"579 324 QCURVE SMOOTH",
"496 324 LINE",
"451 569 LINE",
"615 569 LINE SMOOTH",
"688 569 OFFCURVE",
"757 508 OFFCURVE",
"757 443 QCURVE",
"783 443 LINE"
);
},
{
closed = 1;
nodes = (
"414 236 LINE",
"190 236 LINE",
"362 515 LINE"
);
}
);
userData = {
assembly = "NPUSHB[ ]\011/* 14 values pushed */
44 1 6 7 1 74 59 1 14 72 25 1 8 71 
MPPEM[ ]\011/* MeasurePixelPerEm */
PUSHB[ ]\011/* 1 value pushed */
10 
LT[ ]\011/* LessThan */
IF[ ]\011/* If */
NPUSHB[ ]\011/* 66 values pushed */
0 0 1 3 1 0 112 0 7 4 6 4 7 6 126 0 2 0 5 15 2 5 101 0 15 0 10 4 15 10 101 13 1 1 1 14 93 0 14 14 17 75 0 4 4 3 93 0 3 3 20 75 11 9 2 6 6 8 93 12 1 8 8 21 8 76 
ELSE[ ]\011/* Else */
NPUSHB[ ]\011/* 67 values pushed */
0 0 1 3 1 0 3 126 0 7 4 6 4 7 6 126 0 2 0 5 15 2 5 101 0 15 0 10 4 15 10 101 13 1 1 1 14 93 0 14 14 17 75 0 4 4 3 93 0 3 3 20 75 11 9 2 6 6 8 93 12 1 8 8 21 8 76 
EIF[ ]\011/* EndIf */
NPUSHB[ ]\011/* 26 values pushed */
62 61 58 56 55 53 43 42 41 39 35 34 30 29 34 17 50 34 17 18 33 34 16 16 7 29 
CALL[ ]\011/* CallFunction */";
};
width = 847;
},
{
anchors = (
{
name = top;
position = "{477, 597}";
}
);
layerId = "A0AC7266-FF1C-4B13-9E61-C3CFB2289D5A";
paths = (
{
closed = 1;
nodes = (
"786 599 LINE",
"770 597 OFFCURVE",
"745 597 QCURVE SMOOTH",
"275 597 LINE",
"275 558 LINE",
"326 560 LINE",
"333 560 OFFCURVE",
"343 551 OFFCURVE",
"343 544 QCURVE SMOOTH",
"343 539 OFFCURVE",
"341 536 QCURVE",
"71 94 LINE SMOOTH",
"50 59 OFFCURVE",
"25 33 OFFCURVE",
"11 35 QCURVE",
"-20 38 LINE",
"-20 0 LINE",
"166 0 LINE",
"166 38 LINE",
"115 35 LINE SMOOTH",
"95 34 OFFCURVE",
"95 49 QCURVE SMOOTH",
"95 62 OFFCURVE",
"109 88 QCURVE",
"167 186 LINE",
"397 186 LINE",
"421 60 LINE SMOOTH",
"423 50 OFFCURVE",
"411 34 OFFCURVE",
"399 35 QCURVE SMOOTH",
"342 38 LINE",
"342 0 LINE",
"711 0 LINE SMOOTH",
"767 0 OFFCURVE",
"806 -3 QCURVE",
"806 171 LINE",
"772 171 LINE",
"770 34 OFFCURVE",
"631 34 QCURVE SMOOTH",
"587 34 LINE SMOOTH",
"571 34 OFFCURVE",
"566 53 QCURVE",
"520 289 LINE",
"576 289 LINE SMOOTH",
"608 289 OFFCURVE",
"652 233 OFFCURVE",
"652 191 QCURVE",
"686 191 LINE",
"686 426 LINE",
"651 426 LINE",
"651 381 OFFCURVE",
"608 324 OFFCURVE",
"575 324 QCURVE SMOOTH",
"514 324 LINE",
"471 562 LINE",
"611 562 LINE SMOOTH",
"684 562 OFFCURVE",
"753 505 OFFCURVE",
"753 443 QCURVE",
"786 443 LINE"
);
},
{
closed = 1;
nodes = (
"390 221 LINE",
"189 221 LINE",
"343 473 LINE"
);
}
);
userData = {
assembly = "NPUSHB[ ]\011/* 14 values pushed */
45 1 6 7 1 74 60 1 14 72 26 1 8 71 
MPPEM[ ]\011/* MeasurePixelPerEm */
PUSHB[ ]\011/* 1 value pushed */
10 
LT[ ]\011/* LessThan */
IF[ ]\011/* If */
NPUSHB[ ]\011/* 65 values pushed */
0 0 1 3 1 0 112 0 7 4 6 4 7 6 126 0 2 0 5 15 2 5 103 0 15 4 4 15 85 13 1 1 1 14 93 0 14 14 17 75 10 1 4 4 3 93 0 3 3 20 75 11 9 2 6 6 8 93 12 1 8 8 21 8 76 
ELSE[ ]\011/* Else */
MPPEM[ ]\011/* MeasurePixelPerEm */
PUSHB[ ]\011/* 1 value pushed */
12 
LT[ ]\011/* LessThan */
IF[ ]\011/* If */
NPUSHB[ ]\011/* 67 values pushed */
0 0 1 3 1 0 3 126 0 7 10 6 10 7 6 126 0 2 0 5 15 2 5 103 0 15 0 10 7 15 10 101 13 1 1 1 14 93 0 14 14 17 75 0 4 4 3 93 0 3 3 20 75 11 9 2 6 6 8 93 12 1 8 8 21 8 76 
ELSE[ ]\011/* Else */
MPPEM[ ]\011/* MeasurePixelPerEm */
PUSHB[ ]\011/* 1 value pushed */
45 
LT[ ]\011/* LessThan */
IF[ ]\011/* If */
NPUSHB[ ]\011/* 66 values pushed */
0 0 1 3 1 0 3 126 0 7 4 6 4 7 6 126 0 2 0 5 15 2 5 103 0 15 4 4 15 85 13 1 1 1 14 93 0 14 14 17 75 10 1 4 4 3 93 0 3 3 20 75 11 9 2 6 6 8 93 12 1 8 8 21 8 76 
ELSE[ ]\011/* Else */
NPUSHB[ ]\011/* 67 values pushed */
0 0 1 3 1 0 3 126 0 7 10 6 10 7 6 126 0 2 0 5 15 2 5 103 0 15 0 10 7 15 10 101 13 1 1 1 14 93 0 14 14 17 75 0 4 4 3 93 0 3 3 20 75 11 9 2 6 6 8 93 12 1 8 8 21 8 76 
EIF[ ]\011/* EndIf */
EIF[ ]\011/* EndIf */
EIF[ ]\011/* EndIf */
NPUSHB[ ]\011/* 26 values pushed */
63 62 59 57 56 54 44 43 42 40 36 35 31 30 34 18 50 34 17 18 33 34 16 16 7 29 
CALL[ ]\011/* CallFunction */";
};
width = 850;
}
);
leftKerningGroup = A;
note = AE;
unicode = 00C6;
},
{
glyphname = B;
layers = (
{
background = {
paths = (
{
closed = 1;
nodes = (
"50 597 LINE",
"50 567 LINE",
"101 569 LINE",
"109 569 OFFCURVE",
"118 556 OFFCURVE",
"118 549 QCURVE SMOOTH",
"118 49 LINE SMOOTH",
"118 27 OFFCURVE",
"100 27 QCURVE",
"50 29 LINE",
"50 0 LINE",
"312 0 LINE SMOOTH",
"533 0 OFFCURVE",
"533 162 QCURVE SMOOTH",
"533 206 OFFCURVE",
"487 277 OFFCURVE",
"409 317 OFFCURVE",
"362 317 QCURVE",
"425 328 OFFCURVE",
"500 401 OFFCURVE",
"500 454 QCURVE SMOOTH",
"500 525 OFFCURVE",
"412 597 OFFCURVE",
"327 597 QCURVE SMOOTH"
);
},
{
closed = 1;
nodes = (
"281 569 LINE SMOOTH",
"340 569 OFFCURVE",
"405 507 OFFCURVE",
"405 453 QCURVE SMOOTH",
"405 327 OFFCURVE",
"287 327 QCURVE SMOOTH",
"211 327 LINE",
"211 557 LINE",
"213 569 OFFCURVE",
"223 569 QCURVE SMOOTH"
);
},
{
closed = 1;
nodes = (
"314 299 LINE SMOOTH",
"436 299 OFFCURVE",
"436 162 QCURVE SMOOTH",
"436 100 OFFCURVE",
"359 28 OFFCURVE",
"295 28 QCURVE SMOOTH",
"225 28 LINE SMOOTH",
"211 28 OFFCURVE",
"211 41 QCURVE SMOOTH",
"211 299 LINE"
);
}
);
};
layerId = "3A4136D0-3900-4A7F-B896-13EBFCDD931C";
paths = (
{
closed = 1;
nodes = (
"50 597 LINE",
"50 567 LINE",
"101 569 LINE",
"109 569 OFFCURVE",
"118 556 OFFCURVE",
"118 549 QCURVE SMOOTH",
"118 49 LINE SMOOTH",
"118 27 OFFCURVE",
"100 27 QCURVE",
"50 29 LINE",
"50 0 LINE",
"312 0 LINE SMOOTH",
"533 0 OFFCURVE",
"533 162 QCURVE SMOOTH",
"533 206 OFFCURVE",
"487 277 OFFCURVE",
"409 317 OFFCURVE",
"362 317 QCURVE",
"425 328 OFFCURVE",
"500 401 OFFCURVE",
"500 454 QCURVE SMOOTH",
"500 525 OFFCURVE",
"412 597 OFFCURVE",
"327 597 QCURVE SMOOTH"
);
},
{
closed = 1;
nodes = (
"281 569 LINE SMOOTH",
"402 569 OFFCURVE",
"405 453 QCURVE SMOOTH",
"408 327 OFFCURVE",
"287 327 QCURVE SMOOTH",
"211 327 LINE",
"211 557 LINE",
"213 569 OFFCURVE",
"223 569 QCURVE SMOOTH"
);
},
{
closed = 1;
nodes = (
"314 299 LINE SMOOTH",
"436 299 OFFCURVE",
"436 162 QCURVE SMOOTH",
"436 100 OFFCURVE",
"359 28 OFFCURVE",
"295 28 QCURVE SMOOTH",
"225 28 LINE SMOOTH",
"211 28 OFFCURVE",
"211 41 QCURVE SMOOTH",
"211 299 LINE"
);
}
);
userData = {
assembly = "NPUSHB[ ]\011/* 77 values pushed */
26 17 2 6 3 1 74 0 0 6 8 6 0 112 0 6 11 1 8 2 6 8 101 10 5 2 3 3 4 93 9 1 4 4 17 75 7 1 2 2 1 93 0 1 1 21 1 76 34 34 25 24 0 0 34 43 34 42 39 36 29 27 24 33 25 32 0 23 0 22 36 33 36 21 12 7 24 
CALL[ ]\011/* CallFunction */";
};
width = 573;
},
{
background = {
paths = (
{
closed = 1;
nodes = (
"39 597 LINE",
"39 560 LINE",
"86 562 LINE",
"94 562 OFFCURVE",
"103 549 OFFCURVE",
"103 542 QCURVE SMOOTH",
"103 57 LINE SMOOTH",
"103 35 OFFCURVE",
"87 35 QCURVE",
"39 37 LINE",
"39 0 LINE",
"335 0 LINE SMOOTH",
"556 0 OFFCURVE",
"556 162 QCURVE SMOOTH",
"556 206 OFFCURVE",
"510 277 OFFCURVE",
"432 317 OFFCURVE",
"385 317 QCURVE",
"448 328 OFFCURVE",
"523 401 OFFCURVE",
"523 454 QCURVE SMOOTH",
"523 525 OFFCURVE",
"435 597 OFFCURVE",
"350 597 QCURVE SMOOTH"
);
},
{
closed = 1;
nodes = (
"291 562 LINE SMOOTH",
"383 562 OFFCURVE",
"383 449 QCURVE SMOOTH",
"383 386 OFFCURVE",
"339 329 OFFCURVE",
"293 329 QCURVE SMOOTH",
"241 329 LINE",
"241 550 LINE",
"243 562 OFFCURVE",
"253 562 QCURVE SMOOTH"
);
},
{
closed = 1;
nodes = (
"317 294 LINE SMOOTH",
"366 294 OFFCURVE",
"414 232 OFFCURVE",
"414 164 QCURVE SMOOTH",
"414 100 OFFCURVE",
"355 36 OFFCURVE",
"304 36 QCURVE SMOOTH",
"255 36 LINE SMOOTH",
"241 36 OFFCURVE",
"241 49 QCURVE SMOOTH",
"241 294 LINE"
);
}
);
};
layerId = "A0AC7266-FF1C-4B13-9E61-C3CFB2289D5A";
paths = (
{
closed = 1;
nodes = (
"39 597 LINE",
"39 560 LINE",
"86 562 LINE",
"94 562 OFFCURVE",
"103 549 OFFCURVE",
"103 542 QCURVE SMOOTH",
"103 57 LINE SMOOTH",
"103 35 OFFCURVE",
"87 35 QCURVE",
"39 37 LINE",
"39 0 LINE",
"335 0 LINE SMOOTH",
"556 0 OFFCURVE",
"556 162 QCURVE SMOOTH",
"556 206 OFFCURVE",
"510 277 OFFCURVE",
"432 317 OFFCURVE",
"385 317 QCURVE",
"448 328 OFFCURVE",
"523 401 OFFCURVE",
"523 454 QCURVE SMOOTH",
"523 525 OFFCURVE",
"435 597 OFFCURVE",
"350 597 QCURVE SMOOTH"
);
},
{
closed = 1;
nodes = (
"291 562 LINE SMOOTH",
"383 562 OFFCURVE",
"383 449 QCURVE SMOOTH",
"383 329 OFFCURVE",
"293 329 QCURVE SMOOTH",
"241 329 LINE",
"241 550 LINE",
"243 562 OFFCURVE",
"253 562 QCURVE SMOOTH"
);
},
{
closed = 1;
nodes = (
"317 294 LINE SMOOTH",
"414 294 OFFCURVE",
"414 164 QCURVE SMOOTH",
"414 100 OFFCURVE",
"355 36 OFFCURVE",
"304 36 QCURVE SMOOTH",
"255 36 LINE SMOOTH",
"241 36 OFFCURVE",
"241 49 QCURVE SMOOTH",
"241 294 LINE"
);
}
);
userData = {
assembly = "NPUSHB[ ]\011/* 78 values pushed */
26 17 2 6 3 1 74 0 0 6 8 6 0 8 126 0 6 11 1 8 2 6 8 101 10 5 2 3 3 4 93 9 1 4 4 17 75 7 1 2 2 1 94 0 1 1 21 1 76 34 34 25 24 0 0 34 44 34 43 39 36 29 27 24 33 25 32 0 23 0 22 36 33 36 21 12 7 24 
CALL[ ]\011/* CallFunction */";
};
width = 581;
}
);
note = B;
rightKerningGroup = B;
unicode = 0042;
},
{
glyphname = C;
layers = (
{
anchors = (
{
name = bottom;
position = "{321, 0}";
},
{
name = top;
position = "{328, 597}";
}
);
background = {
paths = (
{
closed = 1;
nodes = (
"45 201 OFFCURVE",
"117 64 OFFCURVE",
"250 -10 OFFCURVE",
"340 -10 QCURVE SMOOTH",
"373 -10 OFFCURVE",
"435 4 OFFCURVE",
"473 17 QCURVE",
"478 18 OFFCURVE",
"501 26 OFFCURVE",
"539 35 OFFCURVE",
"553 35 QCURVE SMOOTH",
"559 35 LINE",
"556 53 OFFCURVE",
"556 82 QCURVE SMOOTH",
"556 120 OFFCURVE",
"562 167 QCURVE",
"534 167 LINE",
"520 102 OFFCURVE",
"414 17 OFFCURVE",
"345 17 QCURVE SMOOTH",
"286 17 OFFCURVE",
"196 87 OFFCURVE",
"147 214 OFFCURVE",
"147 295 QCURVE SMOOTH",
"147 381 OFFCURVE",
"194 511 OFFCURVE",
"281 582 OFFCURVE",
"340 582 QCURVE SMOOTH",
"384 582 OFFCURVE",
"464 542 OFFCURVE",
"520 474 OFFCURVE",
"529 433 QCURVE",
"553 433 LINE",
"551 435 OFFCURVE",
"549 468 OFFCURVE",
"549 489 QCURVE SMOOTH",
"549 533 OFFCURVE",
"553 564 QCURVE",
"529 564 OFFCURVE",
"492 574 OFFCURVE",
"467 583 QCURVE SMOOTH",
"431 595 OFFCURVE",
"382 607 OFFCURVE",
"345 607 QCURVE SMOOTH",
"204 607 OFFCURVE",
"45 442 OFFCURVE",
"45 295 QCURVE SMOOTH"
);
}
);
};
layerId = "3A4136D0-3900-4A7F-B896-13EBFCDD931C";
paths = (
{
closed = 1;
nodes = (
"45 201 OFFCURVE",
"117 64 OFFCURVE",
"250 -10 OFFCURVE",
"340 -10 QCURVE SMOOTH",
"373 -10 OFFCURVE",
"435 4 OFFCURVE",
"473 17 QCURVE",
"501 26 OFFCURVE",
"539 35 OFFCURVE",
"553 35 QCURVE SMOOTH",
"559 35 LINE",
"556 53 OFFCURVE",
"556 82 QCURVE SMOOTH",
"556 120 OFFCURVE",
"562 167 QCURVE",
"534 167 LINE",
"520 102 OFFCURVE",
"414 17 OFFCURVE",
"345 17 QCURVE SMOOTH",
"254 17 OFFCURVE",
"147 176 OFFCURVE",
"147 295 QCURVE SMOOTH",
"147 424 OFFCURVE",
"251 582 OFFCURVE",
"340 582 QCURVE SMOOTH",
"411 582 OFFCURVE",
"520 487 OFFCURVE",
"529 433 QCURVE",
"553 433 LINE",
"551 435 OFFCURVE",
"549 468 OFFCURVE",
"549 489 QCURVE SMOOTH",
"549 533 OFFCURVE",
"553 564 QCURVE",
"529 564 OFFCURVE",
"492 574 OFFCURVE",
"467 583 QCURVE SMOOTH",
"431 595 OFFCURVE",
"382 607 OFFCURVE",
"345 607 QCURVE SMOOTH",
"204 607 OFFCURVE",
"45 442 OFFCURVE",
"45 295 QCURVE SMOOTH"
);
}
);
userData = {
assembly = "NPUSHB[ ]\011/* 47 values pushed */
0 1 2 4 2 1 4 126 0 4 0 5 3 4 5 103 0 2 2 0 95 0 0 0 25 75 0 3 3 6 95 0 6 6 26 6 76 37 36 18 38 41 20 33 7 7 27 
CALL[ ]\011/* CallFunction */";
};
width = 607;
},
{
anchors = (
{
name = bottom;
position = "{324, 0}";
},
{
name = top;
position = "{331, 597}";
}
);
background = {
paths = (
{
closed = 1;
nodes = (
"30 201 OFFCURVE",
"104 64 OFFCURVE",
"242 -10 OFFCURVE",
"336 -10 QCURVE SMOOTH",
"369 -10 OFFCURVE",
"424 3 OFFCURVE",
"469 16 QCURVE SMOOTH",
"500 26 OFFCURVE",
"539 35 OFFCURVE",
"557 35 QCURVE SMOOTH",
"563 35 LINE",
"560 53 OFFCURVE",
"560 82 QCURVE SMOOTH",
"560 118 OFFCURVE",
"566 167 QCURVE",
"530 167 LINE",
"517 106 OFFCURVE",
"422 25 OFFCURVE",
"359 25 QCURVE SMOOTH",
"277 25 OFFCURVE",
"181 166 OFFCURVE",
"181 295 QCURVE SMOOTH",
"181 430 OFFCURVE",
"272 575 OFFCURVE",
"355 575 QCURVE SMOOTH",
"415 575 OFFCURVE",
"513 492 OFFCURVE",
"525 433 QCURVE",
"557 433 LINE",
"555 435 OFFCURVE",
"553 468 OFFCURVE",
"553 489 QCURVE SMOOTH",
"553 533 OFFCURVE",
"557 564 QCURVE",
"534 564 OFFCURVE",
"496 573 OFFCURVE",
"470 583 QCURVE",
"433 595 OFFCURVE",
"381 607 OFFCURVE",
"341 607 QCURVE SMOOTH",
"195 607 OFFCURVE",
"30 443 OFFCURVE",
"30 295 QCURVE SMOOTH"
);
}
);
};
layerId = "A0AC7266-FF1C-4B13-9E61-C3CFB2289D5A";
paths = (
{
closed = 1;
nodes = (
"30 201 OFFCURVE",
"104 64 OFFCURVE",
"242 -10 OFFCURVE",
"336 -10 QCURVE SMOOTH",
"369 -10 OFFCURVE",
"424 3 OFFCURVE",
"469 16 QCURVE SMOOTH",
"500 26 OFFCURVE",
"539 35 OFFCURVE",
"557 35 QCURVE SMOOTH",
"563 35 LINE",
"560 53 OFFCURVE",
"560 82 QCURVE SMOOTH",
"560 118 OFFCURVE",
"566 167 QCURVE",
"530 167 LINE",
"517 106 OFFCURVE",
"422 25 OFFCURVE",
"359 25 QCURVE SMOOTH",
"277 25 OFFCURVE",
"181 166 OFFCURVE",
"181 295 QCURVE SMOOTH",
"181 430 OFFCURVE",
"272 575 OFFCURVE",
"355 575 QCURVE SMOOTH",
"415 575 OFFCURVE",
"513 492 OFFCURVE",
"525 433 QCURVE",
"557 433 LINE",
"555 435 OFFCURVE",
"553 468 OFFCURVE",
"553 489 QCURVE SMOOTH",
"553 533 OFFCURVE",
"557 564 QCURVE",
"534 564 OFFCURVE",
"496 573 OFFCURVE",
"470 583 QCURVE",
"433 595 OFFCURVE",
"381 607 OFFCURVE",
"341 607 QCURVE SMOOTH",
"195 607 OFFCURVE",
"30 443 OFFCURVE",
"30 295 QCURVE SMOOTH"
);
}
);
userData = {
assembly = "NPUSHB[ ]\011/* 48 values pushed */
0 1 0 2 5 1 2 103 0 5 0 6 4 5 6 103 0 3 3 0 95 0 0 0 25 75 0 4 4 7 95 0 7 7 26 7 76 36 36 18 36 34 36 20 33 8 7 28 
CALL[ ]\011/* CallFunction */";
};
width = 596;
}
);
leftKerningGroup = C;
note = C;
unicode = 0043;
},
{
glyphname = D;
layers = (
{
anchors = (
{
name = center;
position = "{207, 300}";
},
{
name = top;
position = "{317, 597}";
}
);
layerId = "3A4136D0-3900-4A7F-B896-13EBFCDD931C";
paths = (
{
closed = 1;
nodes = (
"50 0 LINE",
"287 0 LINE SMOOTH",
"588 0 OFFCURVE",
"588 299 QCURVE SMOOTH",
"588 458 OFFCURVE",
"435 597 OFFCURVE",
"275 597 QCURVE SMOOTH",
"50 597 LINE",
"50 567 LINE",
"89 569 LINE",
"98 569 OFFCURVE",
"108 557 OFFCURVE",
"108 548 QCURVE SMOOTH",
"108 49 LINE SMOOTH",
"108 27 OFFCURVE",
"93 27 QCURVE",
"50 29 LINE"
);
},
{
closed = 1;
nodes = (
"201 556 LINE SMOOTH",
"201 569 OFFCURVE",
"213 569 QCURVE SMOOTH",
"258 569 LINE SMOOTH",
"341 569 OFFCURVE",
"441 515 OFFCURVE",
"486 397 OFFCURVE",
"486 298 QCURVE SMOOTH",
"486 199 OFFCURVE",
"441 81 OFFCURVE",
"342 28 OFFCURVE",
"258 28 QCURVE SMOOTH",
"213 28 LINE SMOOTH",
"201 28 OFFCURVE",
"201 41 QCURVE SMOOTH"
);
}
);
userData = {
assembly = "NPUSHB[ ]\011/* 32 values pushed */
5 1 1 1 2 93 0 2 2 17 75 4 1 0 0 3 93 0 3 3 21 3 76 54 49 35 33 36 32 6 7 26 
CALL[ ]\011/* CallFunction */";
};
width = 623;
},
{
anchors = (
{
name = center;
position = "{203, 300}";
},
{
name = top;
position = "{325, 597}";
}
);
background = {
paths = (
{
closed = 1;
nodes = (
"39 0 LINE",
"295 0 LINE SMOOTH",
"454 0 OFFCURVE",
"607 151 OFFCURVE",
"607 299 QCURVE SMOOTH",
"607 459 OFFCURVE",
"450 597 OFFCURVE",
"283 597 QCURVE SMOOTH",
"39 597 LINE",
"39 560 LINE",
"74 562 LINE",
"83 562 OFFCURVE",
"93 550 OFFCURVE",
"93 541 QCURVE SMOOTH",
"93 57 LINE SMOOTH",
"93 48 OFFCURVE",
"86 35 OFFCURVE",
"79 35 QCURVE SMOOTH",
"78 35 LINE",
"39 37 LINE"
);
},
{
closed = 1;
nodes = (
"231 549 LINE SMOOTH",
"231 562 OFFCURVE",
"243 562 QCURVE SMOOTH",
"266 562 LINE SMOOTH",
"338 562 OFFCURVE",
"419 517 OFFCURVE",
"456 403 OFFCURVE",
"456 298 QCURVE SMOOTH",
"456 192 OFFCURVE",
"419 80 OFFCURVE",
"338 36 OFFCURVE",
"266 36 QCURVE SMOOTH",
"243 36 LINE SMOOTH",
"231 36 OFFCURVE",
"231 49 QCURVE SMOOTH"
);
}
);
};
layerId = "A0AC7266-FF1C-4B13-9E61-C3CFB2289D5A";
paths = (
{
closed = 1;
nodes = (
"39 0 LINE",
"295 0 LINE SMOOTH",
"607 0 OFFCURVE",
"607 299 QCURVE SMOOTH",
"607 460 OFFCURVE",
"450 597 OFFCURVE",
"283 597 QCURVE SMOOTH",
"39 597 LINE",
"39 560 LINE",
"74 562 LINE",
"83 562 OFFCURVE",
"93 550 OFFCURVE",
"93 541 QCURVE SMOOTH",
"93 57 LINE SMOOTH",
"93 34 OFFCURVE",
"79 35 QCURVE SMOOTH",
"39 37 LINE"
);
},
{
closed = 1;
nodes = (
"231 549 LINE SMOOTH",
"231 562 OFFCURVE",
"243 562 QCURVE SMOOTH",
"266 562 LINE SMOOTH",
"338 562 OFFCURVE",
"419 517 OFFCURVE",
"456 403 OFFCURVE",
"456 298 QCURVE SMOOTH",
"456 192 OFFCURVE",
"419 80 OFFCURVE",
"338 36 OFFCURVE",
"266 36 QCURVE SMOOTH",
"243 36 LINE SMOOTH",
"231 36 OFFCURVE",
"231 49 QCURVE SMOOTH"
);
}
);
userData = {
assembly = "NPUSHB[ ]\011/* 32 values pushed */
5 1 1 1 2 93 0 2 2 17 75 4 1 0 0 3 93 0 3 3 21 3 76 54 49 36 33 39 16 6 7 26 
CALL[ ]\011/* CallFunction */";
};
width = 634;
}
);
note = D;
rightKerningGroup = D;
unicode = 0044;
},
{
glyphname = E;
layers = (
{
anchors = (
{
name = bottom;
position = "{291, 0}";
},
{
name = ogonek;
position = "{430, 0}";
},
{
name = top;
position = "{294, 597}";
}
);
layerId = "3A4136D0-3900-4A7F-B896-13EBFCDD931C";
paths = (
{
closed = 1;
nodes = (
"50 0 LINE",
"431 0 LINE SMOOTH",
"497 0 OFFCURVE",
"519 -3 QCURVE",
"519 179 LINE",
"492 179 LINE",
"492 106 OFFCURVE",
"421 28 OFFCURVE",
"353 28 QCURVE SMOOTH",
"213 28 LINE SMOOTH",
"201 28 OFFCURVE",
"201 41 QCURVE SMOOTH",
"201 297 LINE",
"295 297 LINE SMOOTH",
"326 297 OFFCURVE",
"371 239 OFFCURVE",
"371 195 QCURVE",
"398 195 LINE",
"398 426 LINE",
"371 426 LINE",
"371 379 OFFCURVE",
"329 325 OFFCURVE",
"295 325 QCURVE SMOOTH",
"201 325 LINE",
"201 555 LINE SMOOTH",
"201 569 OFFCURVE",
"213 569 QCURVE SMOOTH",
"320 569 LINE SMOOTH",
"395 569 OFFCURVE",
"462 510 OFFCURVE",
"462 443 QCURVE",
"489 443 LINE",
"489 598 LINE",
"486 597 OFFCURVE",
"472 597 QCURVE SMOOTH",
"50 597 LINE",
"50 567 LINE",
"88 569 LINE",
"97 570 OFFCURVE",
"108 557 OFFCURVE",
"108 548 QCURVE SMOOTH",
"108 49 LINE SMOOTH",
"108 27 OFFCURVE",
"90 27 QCURVE",
"50 30 LINE"
);
}
);
userData = {
assembly = "NPUSHB[ ]\011/* 10 values pushed */
0 1 0 10 1 74 41 1 11 71 
MPPEM[ ]\011/* MeasurePixelPerEm */
PUSHB[ ]\011/* 1 value pushed */
10 
LT[ ]\011/* LessThan */
IF[ ]\011/* If */
NPUSHB[ ]\011/* 56 values pushed */
0 3 1 6 1 3 112 0 10 7 0 7 10 0 126 0 5 0 8 7 5 8 101 4 1 1 1 2 93 0 2 2 17 75 0 7 7 6 93 0 6 6 20 75 9 1 0 0 11 94 0 11 11 21 11 76 
ELSE[ ]\011/* Else */
NPUSHB[ ]\011/* 57 values pushed */
0 3 1 6 1 3 6 126 0 10 7 0 7 10 0 126 0 5 0 8 7 5 8 101 4 1 1 1 2 93 0 2 2 17 75 0 7 7 6 93 0 6 6 20 75 9 1 0 0 11 94 0 11 11 21 11 76 
EIF[ ]\011/* EndIf */
NPUSHB[ ]\011/* 18 values pushed */
44 42 40 39 37 34 34 17 18 34 50 18 33 21 17 12 7 29 
CALL[ ]\011/* CallFunction */";
};
width = 563;
},
{
anchors = (
{
name = bottom;
position = "{290, 0}";
},
{
name = ogonek;
position = "{429, 0}";
},
{
name = top;
position = "{293, 597}";
}
);
layerId = "A0AC7266-FF1C-4B13-9E61-C3CFB2289D5A";
paths = (
{
closed = 1;
nodes = (
"39 0 LINE",
"431 0 LINE SMOOTH",
"505 0 OFFCURVE",
"527 -3 QCURVE",
"527 179 LINE",
"492 179 LINE",
"492 110 OFFCURVE",
"421 36 OFFCURVE",
"353 36 QCURVE SMOOTH",
"243 36 LINE SMOOTH",
"231 36 OFFCURVE",
"231 49 QCURVE SMOOTH",
"231 290 LINE",
"303 290 LINE SMOOTH",
"334 290 OFFCURVE",
"379 233 OFFCURVE",
"379 191 QCURVE",
"413 191 LINE",
"413 426 LINE",
"379 426 LINE",
"379 379 OFFCURVE",
"337 325 OFFCURVE",
"303 325 QCURVE SMOOTH",
"231 325 LINE",
"231 548 LINE SMOOTH",
"231 562 OFFCURVE",
"243 562 QCURVE SMOOTH",
"320 562 LINE SMOOTH",
"394 562 OFFCURVE",
"462 506 OFFCURVE",
"462 443 QCURVE",
"497 443 LINE",
"497 598 LINE",
"494 597 OFFCURVE",
"480 597 QCURVE SMOOTH",
"39 597 LINE",
"39 560 LINE",
"73 562 LINE",
"82 563 OFFCURVE",
"93 550 OFFCURVE",
"93 541 QCURVE SMOOTH",
"93 57 LINE SMOOTH",
"93 35 OFFCURVE",
"75 35 QCURVE",
"39 38 LINE"
);
}
);
userData = {
assembly = "NPUSHB[ ]\011/* 10 values pushed */
0 1 0 10 1 74 41 1 11 71 
MPPEM[ ]\011/* MeasurePixelPerEm */
PUSHB[ ]\011/* 1 value pushed */
10 
LT[ ]\011/* LessThan */
IF[ ]\011/* If */
NPUSHB[ ]\011/* 56 values pushed */
0 3 1 6 1 3 112 0 10 7 0 7 10 0 126 0 5 0 8 7 5 8 101 4 1 1 1 2 93 0 2 2 17 75 0 7 7 6 93 0 6 6 20 75 9 1 0 0 11 94 0 11 11 21 11 76 
ELSE[ ]\011/* Else */
NPUSHB[ ]\011/* 57 values pushed */
0 3 1 6 1 3 6 126 0 10 7 0 7 10 0 126 0 5 0 8 7 5 8 101 4 1 1 1 2 93 0 2 2 17 75 0 7 7 6 93 0 6 6 20 75 9 1 0 0 11 94 0 11 11 21 11 76 
EIF[ ]\011/* EndIf */
NPUSHB[ ]\011/* 18 values pushed */
44 42 40 39 37 34 34 17 18 34 50 18 33 21 17 12 7 29 
CALL[ ]\011/* CallFunction */";
};
width = 571;
}
);
note = E;
unicode = 0045;
},
{
glyphname = F;
layers = (
{
layerId = "3A4136D0-3900-4A7F-B896-13EBFCDD931C";
paths = (
{
closed = 1;
nodes = (
"50 0 LINE",
"272 0 LINE",
"272 30 LINE",
"220 27 LINE",
"212 27 OFFCURVE",
"201 39 OFFCURVE",
"201 48 QCURVE SMOOTH",
"201 287 LINE",
"276 287 LINE SMOOTH",
"311 287 OFFCURVE",
"355 232 OFFCURVE",
"355 187 QCURVE",
"382 187 LINE",
"382 417 LINE",
"355 417 LINE",
"355 370 OFFCURVE",
"312 315 OFFCURVE",
"276 315 QCURVE SMOOTH",
"201 315 LINE",
"201 556 LINE SMOOTH",
"201 569 OFFCURVE",
"213 569 QCURVE SMOOTH",
"330 569 LINE SMOOTH",
"404 569 OFFCURVE",
"472 509 OFFCURVE",
"472 443 QCURVE",
"499 443 LINE",
"499 598 LINE",
"496 597 OFFCURVE",
"484 597 QCURVE SMOOTH",
"50 597 LINE",
"50 567 LINE",
"89 569 LINE",
"91 569 LINE SMOOTH",
"108 569 OFFCURVE",
"108 548 QCURVE SMOOTH",
"108 49 LINE SMOOTH",
"108 27 OFFCURVE",
"90 27 QCURVE",
"50 30 LINE"
);
}
);
userData = {
assembly = "PUSHB[ ]\011/* 6 values pushed */
0 1 0 7 1 74 
MPPEM[ ]\011/* MeasurePixelPerEm */
PUSHB[ ]\011/* 1 value pushed */
10 
LT[ ]\011/* LessThan */
IF[ ]\011/* If */
NPUSHB[ ]\011/* 48 values pushed */
0 3 1 6 1 3 112 0 5 0 8 7 5 8 101 4 1 1 1 2 93 0 2 2 17 75 0 7 7 6 93 0 6 6 20 75 9 1 0 0 10 93 0 10 10 21 10 76 
ELSE[ ]\011/* Else */
NPUSHB[ ]\011/* 49 values pushed */
0 3 1 6 1 3 6 126 0 5 0 8 7 5 8 101 4 1 1 1 2 93 0 2 2 17 75 0 7 7 6 93 0 6 6 20 75 9 1 0 0 10 93 0 10 10 21 10 76 
EIF[ ]\011/* EndIf */
NPUSHB[ ]\011/* 16 values pushed */
39 38 37 35 34 17 18 34 50 18 33 51 17 11 7 29 
CALL[ ]\011/* CallFunction */";
};
width = 529;
},
{
layerId = "A0AC7266-FF1C-4B13-9E61-C3CFB2289D5A";
paths = (
{
closed = 1;
nodes = (
"39 0 LINE",
"302 0 LINE",
"302 38 LINE",
"250 35 LINE",
"242 35 OFFCURVE",
"231 47 OFFCURVE",
"231 56 QCURVE SMOOTH",
"231 280 LINE",
"299 280 LINE SMOOTH",
"334 280 OFFCURVE",
"378 225 OFFCURVE",
"378 180 QCURVE",
"412 180 LINE",
"412 417 LINE",
"378 417 LINE",
"378 370 OFFCURVE",
"335 315 OFFCURVE",
"299 315 QCURVE SMOOTH",
"231 315 LINE",
"231 549 LINE SMOOTH",
"231 562 OFFCURVE",
"243 562 QCURVE SMOOTH",
"330 562 LINE SMOOTH",
"405 562 OFFCURVE",
"473 505 OFFCURVE",
"472 443 QCURVE",
"507 443 LINE",
"507 598 LINE",
"504 597 OFFCURVE",
"492 597 QCURVE SMOOTH",
"39 597 LINE",
"39 560 LINE",
"74 562 LINE",
"76 562 LINE SMOOTH",
"93 562 OFFCURVE",
"93 541 QCURVE SMOOTH",
"93 57 LINE SMOOTH",
"93 35 OFFCURVE",
"75 35 QCURVE",
"39 38 LINE"
);
}
);
userData = {
assembly = "PUSHB[ ]\011/* 6 values pushed */
0 1 0 7 1 74 
MPPEM[ ]\011/* MeasurePixelPerEm */
PUSHB[ ]\011/* 1 value pushed */
10 
LT[ ]\011/* LessThan */
IF[ ]\011/* If */
NPUSHB[ ]\011/* 48 values pushed */
0 3 1 6 1 3 112 0 5 0 8 7 5 8 103 4 1 1 1 2 93 0 2 2 17 75 0 7 7 6 93 0 6 6 20 75 9 1 0 0 10 93 0 10 10 21 10 76 
ELSE[ ]\011/* Else */
MPPEM[ ]\011/* MeasurePixelPerEm */
PUSHB[ ]\011/* 1 value pushed */
50 
LT[ ]\011/* LessThan */
IF[ ]\011/* If */
NPUSHB[ ]\011/* 49 values pushed */
0 3 1 6 1 3 6 126 0 5 0 8 7 5 8 103 4 1 1 1 2 93 0 2 2 17 75 0 7 7 6 93 0 6 6 20 75 9 1 0 0 10 93 0 10 10 21 10 76 
ELSE[ ]\011/* Else */
NPUSHB[ ]\011/* 47 values pushed */
0 3 1 6 1 3 6 126 0 5 0 8 7 5 8 103 0 6 0 7 0 6 7 101 4 1 1 1 2 93 0 2 2 17 75 9 1 0 0 10 93 0 10 10 21 10 76 
EIF[ ]\011/* EndIf */
EIF[ ]\011/* EndIf */
NPUSHB[ ]\011/* 16 values pushed */
39 38 37 35 34 17 18 34 50 18 33 51 17 11 7 29 
CALL[ ]\011/* CallFunction */";
};
width = 529;
}
);
note = F;
rightKerningGroup = F;
unicode = 0046;
},
{
glyphname = G;
layers = (
{
anchors = (
{
name = bottom;
position = "{323, 0}";
},
{
name = top;
position = "{330, 597}";
}
);
layerId = "3A4136D0-3900-4A7F-B896-13EBFCDD931C";
paths = (
{
closed = 1;
nodes = (
"45 145 OFFCURVE",
"202 -10 OFFCURVE",
"335 -10 QCURVE SMOOTH",
"382 -10 OFFCURVE",
"445 4 OFFCURVE",
"490 20 QCURVE SMOOTH",
"534 36 OFFCURVE",
"553 36 QCURVE SMOOTH",
"562 36 OFFCURVE",
"566 35 QCURVE",
"566 224 LINE SMOOTH",
"566 233 OFFCURVE",
"576 245 OFFCURVE",
"585 245 QCURVE",
"626 243 LINE",
"626 272 LINE",
"395 272 LINE",
"395 243 LINE",
"454 245 LINE SMOOTH",
"473 246 OFFCURVE",
"473 223 QCURVE SMOOTH",
"473 63 LINE",
"446 36 OFFCURVE",
"390 17 OFFCURVE",
"345 17 QCURVE SMOOTH",
"148 17 OFFCURVE",
"147 295 QCURVE SMOOTH",
"147 435 OFFCURVE",
"253 582 OFFCURVE",
"340 582 QCURVE SMOOTH",
"426 582 OFFCURVE",
"514 510 OFFCURVE",
"514 448 QCURVE SMOOTH",
"514 437 OFFCURVE",
"513 433 QCURVE",
"553 433 LINE",
"549 481 OFFCURVE",
"549 495 QCURVE SMOOTH",
"549 544 OFFCURVE",
"553 564 QCURVE",
"539 562 OFFCURVE",
"496 578 QCURVE SMOOTH",
"420 607 OFFCURVE",
"343 607 QCURVE SMOOTH",
"200 607 OFFCURVE",
"45 449 OFFCURVE",
"45 295 QCURVE SMOOTH"
);
}
);
userData = {
assembly = "NPUSHB[ ]\011/* 72 values pushed */
14 1 5 1 27 1 7 4 39 1 3 7 3 74 0 1 2 5 2 1 5 126 0 7 4 3 4 7 3 126 0 5 6 1 4 7 5 4 103 0 2 2 0 95 0 0 0 25 75 0 3 3 8 95 0 8 8 26 8 76 35 21 33 17 36 35 43 19 33 9 7 29 
CALL[ ]\011/* CallFunction */";
};
width = 646;
},
{
anchors = (
{
name = bottom;
position = "{323, 0}";
},
{
name = top;
position = "{330, 597}";
}
);
background = {
paths = (
{
closed = 1;
nodes = (
"30 146 OFFCURVE",
"192 -10 OFFCURVE",
"335 -10 QCURVE SMOOTH",
"384 -10 OFFCURVE",
"457 7 OFFCURVE",
"497 21 QCURVE SMOOTH",
"547 37 OFFCURVE",
"561 37 QCURVE SMOOTH",
"570 37 OFFCURVE",
"580 35 QCURVE",
"580 217 LINE SMOOTH",
"580 226 OFFCURVE",
"590 238 OFFCURVE",
"599 238 QCURVE",
"631 236 LINE",
"631 272 LINE",
"364 272 LINE",
"364 236 LINE",
"423 238 LINE SMOOTH",
"442 238 OFFCURVE",
"442 216 QCURVE SMOOTH",
"442 68 LINE",
"421 44 OFFCURVE",
"375 25 OFFCURVE",
"344 25 QCURVE SMOOTH",
"181 25 OFFCURVE",
"181 288 QCURVE SMOOTH",
"181 428 OFFCURVE",
"271 575 OFFCURVE",
"354 575 QCURVE SMOOTH",
"430 575 OFFCURVE",
"513 506 OFFCURVE",
"515 444 QCURVE SMOOTH",
"515 433 OFFCURVE",
"514 426 QCURVE",
"564 426 LINE",
"560 486 OFFCURVE",
"560 504 QCURVE SMOOTH",
"560 538 OFFCURVE",
"564 564 QCURVE",
"552 564 OFFCURVE",
"499 579 QCURVE SMOOTH",
"454 592 OFFCURVE",
"386 607 OFFCURVE",
"343 607 QCURVE SMOOTH",
"193 607 OFFCURVE",
"30 449 OFFCURVE",
"30 297 QCURVE SMOOTH"
);
}
);
};
layerId = "A0AC7266-FF1C-4B13-9E61-C3CFB2289D5A";
paths = (
{
closed = 1;
nodes = (
"30 146 OFFCURVE",
"192 -10 OFFCURVE",
"335 -10 QCURVE SMOOTH",
"384 -10 OFFCURVE",
"457 7 OFFCURVE",
"497 21 QCURVE SMOOTH",
"547 37 OFFCURVE",
"561 37 QCURVE SMOOTH",
"570 37 OFFCURVE",
"580 35 QCURVE",
"580 217 LINE SMOOTH",
"580 226 OFFCURVE",
"590 238 OFFCURVE",
"599 238 QCURVE",
"631 236 LINE",
"631 272 LINE",
"364 272 LINE",
"364 236 LINE",
"423 238 LINE SMOOTH",
"442 238 OFFCURVE",
"442 216 QCURVE SMOOTH",
"442 68 LINE",
"421 44 OFFCURVE",
"375 25 OFFCURVE",
"344 25 QCURVE SMOOTH",
"181 25 OFFCURVE",
"181 288 QCURVE SMOOTH",
"181 428 OFFCURVE",
"271 575 OFFCURVE",
"354 575 QCURVE SMOOTH",
"430 575 OFFCURVE",
"513 506 OFFCURVE",
"515 444 QCURVE SMOOTH",
"515 433 OFFCURVE",
"514 426 QCURVE",
"564 426 LINE",
"560 486 OFFCURVE",
"560 504 QCURVE SMOOTH",
"560 538 OFFCURVE",
"564 564 QCURVE",
"552 562 OFFCURVE",
"499 579 QCURVE SMOOTH",
"412 607 OFFCURVE",
"343 607 QCURVE SMOOTH",
"193 607 OFFCURVE",
"30 449 OFFCURVE",
"30 297 QCURVE SMOOTH"
);
}
);
userData = {
assembly = "NPUSHB[ ]\011/* 70 values pushed */
26 1 8 5 38 1 4 8 2 74 0 8 5 4 5 8 4 126 0 1 0 2 6 1 2 101 0 6 7 1 5 8 6 5 103 0 3 3 0 95 0 0 0 25 75 0 4 4 9 95 0 9 9 26 9 76 47 45 36 33 17 36 35 36 20 20 33 10 7 29 
CALL[ ]\011/* CallFunction */";
};
width = 650;
}
);
leftKerningGroup = C;
note = G;
unicode = 0047;
},
{
glyphname = H;
layers = (
{
anchors = (
{
name = bottom;
position = "{348, 0}";
},
{
name = center;
position = "{347, 438}";
},
{
name = top;
position = "{346, 597}";
}
);
layerId = "3A4136D0-3900-4A7F-B896-13EBFCDD931C";
paths = (
{
closed = 1;
nodes = (
"50 0 LINE",
"270 0 LINE",
"270 29 LINE",
"221 27 LINE",
"201 27 OFFCURVE",
"201 49 QCURVE SMOOTH",
"201 294 LINE",
"495 294 LINE",
"495 49 LINE SMOOTH",
"495 27 OFFCURVE",
"476 27 QCURVE",
"427 29 LINE",
"427 0 LINE",
"646 0 LINE",
"646 29 LINE",
"607 27 LINE",
"588 27 OFFCURVE",
"588 49 QCURVE SMOOTH",
"588 548 LINE SMOOTH",
"588 557 OFFCURVE",
"597 569 OFFCURVE",
"605 569 QCURVE SMOOTH",
"607 569 LINE",
"646 567 LINE",
"646 597 LINE",
"427 597 LINE",
"427 567 LINE",
"476 569 LINE SMOOTH",
"495 570 OFFCURVE",
"495 548 QCURVE SMOOTH",
"495 322 LINE",
"201 322 LINE",
"201 548 LINE SMOOTH",
"201 557 OFFCURVE",
"210 569 OFFCURVE",
"219 569 QCURVE SMOOTH",
"221 569 LINE",
"270 567 LINE",
"270 597 LINE",
"50 597 LINE",
"50 567 LINE",
"89 569 LINE SMOOTH",
"108 570 OFFCURVE",
"108 548 QCURVE SMOOTH",
"108 49 LINE SMOOTH",
"108 27 OFFCURVE",
"89 27 QCURVE",
"50 29 LINE"
);
}
);
userData = {
assembly = "NPUSHB[ ]\011/* 59 values pushed */
0 4 0 11 0 4 11 101 7 5 3 3 1 1 2 93 6 1 2 2 17 75 12 10 8 3 0 0 9 93 13 1 9 9 21 9 76 47 46 45 43 41 40 38 36 35 34 36 49 17 34 19 49 17 35 32 14 7 29 
CALL[ ]\011/* CallFunction */";
};
width = 696;
},
{
anchors = (
{
name = bottom;
position = "{349, 0}";
},
{
name = center;
position = "{348, 438}";
},
{
name = top;
position = "{347, 597}";
}
);
layerId = "A0AC7266-FF1C-4B13-9E61-C3CFB2289D5A";
paths = (
{
closed = 1;
nodes = (
"39 0 LINE",
"300 0 LINE",
"300 37 LINE",
"251 35 LINE",
"231 35 OFFCURVE",
"231 57 QCURVE SMOOTH",
"231 287 LINE",
"465 287 LINE",
"465 57 LINE SMOOTH",
"465 35 OFFCURVE",
"446 35 QCURVE",
"397 37 LINE",
"397 0 LINE",
"657 0 LINE",
"657 37 LINE",
"622 35 LINE SMOOTH",
"603 34 OFFCURVE",
"603 57 QCURVE SMOOTH",
"603 541 LINE SMOOTH",
"603 550 OFFCURVE",
"612 562 OFFCURVE",
"620 562 QCURVE SMOOTH",
"622 562 LINE",
"657 560 LINE",
"657 597 LINE",
"397 597 LINE",
"397 560 LINE",
"446 562 LINE SMOOTH",
"465 563 OFFCURVE",
"465 541 QCURVE SMOOTH",
"465 322 LINE",
"231 322 LINE",
"231 541 LINE SMOOTH",
"231 550 OFFCURVE",
"240 562 OFFCURVE",
"249 562 QCURVE SMOOTH",
"251 562 LINE",
"300 560 LINE",
"300 597 LINE",
"39 597 LINE",
"39 560 LINE",
"74 562 LINE SMOOTH",
"93 563 OFFCURVE",
"93 541 QCURVE SMOOTH",
"93 57 LINE SMOOTH",
"93 35 OFFCURVE",
"76 35 QCURVE SMOOTH",
"39 37 LINE"
);
}
);
userData = {
assembly = "NPUSHB[ ]\011/* 59 values pushed */
0 4 0 11 0 4 11 101 7 5 3 3 1 1 2 93 6 1 2 2 17 75 12 10 8 3 0 0 9 93 13 1 9 9 21 9 76 48 47 46 44 42 41 39 37 36 35 36 49 17 34 19 49 17 35 48 14 7 29 
CALL[ ]\011/* CallFunction */";
};
width = 696;
}
);
note = H;
unicode = 0048;
},
{
glyphname = I;
layers = (
{
anchors = (
{
name = bottom;
position = "{154, 0}";
},
{
name = ogonek;
position = "{155, 0}";
},
{
name = top;
position = "{154, 597}";
}
);
layerId = "3A4136D0-3900-4A7F-B896-13EBFCDD931C";
paths = (
{
closed = 1;
nodes = (
"50 0 LINE",
"260 0 LINE",
"260 29 LINE",
"221 27 LINE",
"201 27 OFFCURVE",
"201 49 QCURVE SMOOTH",
"201 548 LINE SMOOTH",
"201 557 OFFCURVE",
"211 569 OFFCURVE",
"219 569 QCURVE SMOOTH",
"221 569 LINE",
"260 567 LINE",
"260 597 LINE",
"50 597 LINE",
"50 567 LINE",
"89 569 LINE",
"98 570 OFFCURVE",
"108 557 OFFCURVE",
"108 548 QCURVE SMOOTH",
"108 49 LINE SMOOTH",
"108 27 OFFCURVE",
"89 27 QCURVE",
"50 29 LINE"
);
}
);
userData = {
assembly = "NPUSHB[ ]\011/* 32 values pushed */
3 1 1 1 2 93 0 2 2 17 75 4 1 0 0 5 93 0 5 5 21 5 76 17 36 49 17 21 32 6 7 26 
CALL[ ]\011/* CallFunction */";
};
width = 310;
},
{
anchors = (
{
name = bottom;
position = "{162, 0}";
},
{
name = ogonek;
position = "{163, 0}";
},
{
name = top;
position = "{161, 597}";
}
);
layerId = "A0AC7266-FF1C-4B13-9E61-C3CFB2289D5A";
paths = (
{
closed = 1;
nodes = (
"39 0 LINE",
"286 0 LINE",
"286 37 LINE",
"251 35 LINE",
"231 33 OFFCURVE",
"231 57 QCURVE SMOOTH",
"231 541 LINE SMOOTH",
"231 550 OFFCURVE",
"241 562 OFFCURVE",
"249 562 QCURVE SMOOTH",
"251 562 LINE",
"286 560 LINE",
"286 597 LINE",
"39 597 LINE",
"39 560 LINE",
"74 562 LINE",
"83 563 OFFCURVE",
"93 550 OFFCURVE",
"93 541 QCURVE SMOOTH",
"93 57 LINE SMOOTH",
"93 35 OFFCURVE",
"76 35 QCURVE SMOOTH",
"39 37 LINE"
);
}
);
userData = {
assembly = "NPUSHB[ ]\011/* 32 values pushed */
3 1 1 1 2 93 0 2 2 17 75 4 1 0 0 5 93 0 5 5 21 5 76 17 21 49 17 21 48 6 7 26 
CALL[ ]\011/* CallFunction */";
};
width = 325;
}
);
note = I;
unicode = 0049;
},
{
glyphname = J;
layers = (
{
anchors = (
{
name = top;
position = "{299, 597}";
}
);
layerId = "3A4136D0-3900-4A7F-B896-13EBFCDD931C";
paths = (
{
closed = 1;
nodes = (
"24 -1 LINE",
"30 5 OFFCURVE",
"51 5 QCURVE SMOOTH",
"59 5 LINE SMOOTH",
"68 5 OFFCURVE",
"100 -1 QCURVE SMOOTH",
"150 -10 OFFCURVE",
"181 -10 QCURVE SMOOTH",
"348 -10 OFFCURVE",
"348 179 QCURVE SMOOTH",
"348 549 LINE SMOOTH",
"348 557 OFFCURVE",
"358 569 OFFCURVE",
"366 569 QCURVE SMOOTH",
"368 569 LINE",
"406 567 LINE",
"406 597 LINE",
"167 597 LINE",
"167 567 LINE",
"236 569 LINE",
"244 570 OFFCURVE",
"255 557 OFFCURVE",
"255 548 QCURVE SMOOTH",
"255 179 LINE SMOOTH",
"255 90 OFFCURVE",
"213 16 OFFCURVE",
"165 16 QCURVE SMOOTH",
"109 16 OFFCURVE",
"60 114 OFFCURVE",
"60 172 QCURVE",
"24 172 LINE"
);
}
);
userData = {
assembly = "NPUSHB[ ]\011/* 48 values pushed */
30 1 5 6 1 74 4 1 2 2 3 93 0 3 3 17 75 0 0 0 6 95 0 6 6 21 75 0 1 1 5 95 0 5 5 26 5 76 50 36 49 17 22 34 16 7 7 27 
CALL[ ]\011/* CallFunction */";
};
width = 451;
},
{
anchors = (
{
name = top;
position = "{299, 597}";
}
);
layerId = "A0AC7266-FF1C-4B13-9E61-C3CFB2289D5A";
paths = (
{
closed = 1;
nodes = (
"24 -1 LINE",
"30 5 OFFCURVE",
"51 5 QCURVE SMOOTH",
"59 5 LINE SMOOTH",
"68 5 OFFCURVE",
"98 -1 QCURVE SMOOTH",
"148 -10 OFFCURVE",
"176 -10 QCURVE SMOOTH",
"371 -10 OFFCURVE",
"371 179 QCURVE SMOOTH",
"371 542 LINE SMOOTH",
"371 550 OFFCURVE",
"381 562 OFFCURVE",
"389 562 QCURVE SMOOTH",
"391 562 LINE",
"425 560 LINE",
"425 597 LINE",
"145 597 LINE",
"145 560 LINE",
"214 562 LINE",
"222 563 OFFCURVE",
"233 550 OFFCURVE",
"233 541 QCURVE SMOOTH",
"233 179 LINE SMOOTH",
"233 94 OFFCURVE",
"196 24 OFFCURVE",
"153 24 QCURVE SMOOTH",
"108 24 OFFCURVE",
"68 117 OFFCURVE",
"68 172 QCURVE",
"24 172 LINE"
);
}
);
userData = {
assembly = "NPUSHB[ ]\011/* 48 values pushed */
30 1 5 6 1 74 4 1 2 2 3 93 0 3 3 17 75 0 0 0 6 95 0 6 6 21 75 0 1 1 5 95 0 5 5 26 5 76 50 36 49 17 22 34 16 7 7 27 
CALL[ ]\011/* CallFunction */";
};
width = 459;
}
);
note = J;
rightKerningGroup = J;
unicode = 004A;
},
{
glyphname = K;
layers = (
{
anchors = (
{
name = bottom;
position = "{316, 0}";
}
);
layerId = "3A4136D0-3900-4A7F-B896-13EBFCDD931C";
paths = (
{
closed = 1;
nodes = (
"564 27 OFFCURVE",
"553 41 QCURVE SMOOTH",
"314 365 LINE",
"467 540 LINE SMOOTH",
"483 558 OFFCURVE",
"509 570 OFFCURVE",
"525 569 QCURVE SMOOTH",
"559 567 LINE",
"559 597 LINE",
"381 597 LINE",
"381 567 LINE",
"423 569 LINE",
"433 569 OFFCURVE",
"433 560 QCURVE SMOOTH",
"433 553 OFFCURVE",
"416 533 QCURVE SMOOTH",
"201 278 LINE",
"201 547 LINE SMOOTH",
"201 569 OFFCURVE",
"221 569 QCURVE",
"270 567 LINE",
"270 597 LINE",
"50 597 LINE",
"50 567 LINE",
"89 569 LINE",
"98 570 OFFCURVE",
"108 558 OFFCURVE",
"108 548 QCURVE SMOOTH",
"108 49 LINE SMOOTH",
"108 27 OFFCURVE",
"89 27 QCURVE",
"50 29 LINE",
"50 0 LINE",
"270 0 LINE",
"270 29 LINE",
"221 27 LINE",
"201 27 OFFCURVE",
"201 49 QCURVE SMOOTH",
"201 234 LINE",
"257 299 LINE",
"440 52 LINE SMOOTH",
"445 45 OFFCURVE",
"445 38 QCURVE SMOOTH",
"445 27 OFFCURVE",
"428 27 QCURVE SMOOTH",
"374 30 LINE",
"374 0 LINE",
"611 0 LINE",
"611 30 LINE",
"593 27 OFFCURVE",
"577 27 QCURVE SMOOTH"
);
}
);
userData = {
assembly = "NPUSHB[ ]\011/* 63 values pushed */
48 34 12 11 8 1 6 1 5 1 74 10 8 7 3 5 5 6 93 9 1 6 6 17 75 12 11 4 2 4 1 1 0 93 3 1 0 0 21 0 76 0 0 0 51 0 50 45 43 42 41 38 33 17 21 33 17 39 49 18 13 7 29 
CALL[ ]\011/* CallFunction */";
};
width = 617;
},
{
anchors = (
{
name = bottom;
position = "{319, 0}";
}
);
layerId = "A0AC7266-FF1C-4B13-9E61-C3CFB2289D5A";
paths = (
{
closed = 1;
nodes = (
"588 34 OFFCURVE",
"579 48 QCURVE SMOOTH",
"360 372 LINE",
"499 533 LINE SMOOTH",
"515 551 OFFCURVE",
"541 563 OFFCURVE",
"557 562 QCURVE SMOOTH",
"591 560 LINE",
"591 597 LINE",
"411 597 LINE",
"411 560 LINE",
"447 562 LINE",
"457 562 OFFCURVE",
"457 553 QCURVE SMOOTH",
"457 546 OFFCURVE",
"440 526 QCURVE SMOOTH",
"231 278 LINE",
"231 540 LINE SMOOTH",
"231 562 OFFCURVE",
"251 562 QCURVE",
"300 560 LINE",
"300 597 LINE",
"39 597 LINE",
"39 560 LINE",
"74 562 LINE",
"83 563 OFFCURVE",
"93 551 OFFCURVE",
"93 541 QCURVE SMOOTH",
"93 57 LINE SMOOTH",
"93 35 OFFCURVE",
"76 35 QCURVE SMOOTH",
"39 37 LINE",
"39 0 LINE",
"296 0 LINE",
"296 37 LINE",
"251 35 LINE",
"231 33 OFFCURVE",
"231 57 QCURVE SMOOTH",
"231 224 LINE",
"267 266 LINE",
"406 59 LINE SMOOTH",
"411 52 OFFCURVE",
"411 45 QCURVE SMOOTH",
"411 34 OFFCURVE",
"394 34 QCURVE SMOOTH",
"348 37 LINE",
"348 0 LINE",
"633 0 LINE",
"633 37 LINE",
"620 34 OFFCURVE",
"603 34 QCURVE SMOOTH"
);
}
);
userData = {
assembly = "NPUSHB[ ]\011/* 63 values pushed */
49 35 12 11 8 1 6 1 5 1 74 10 8 7 3 5 5 6 93 9 1 6 6 17 75 12 11 4 2 4 1 1 0 93 3 1 0 0 21 0 76 0 0 0 52 0 51 46 44 43 42 38 33 17 21 49 17 24 49 18 13 7 29 
CALL[ ]\011/* CallFunction */";
};
width = 639;
}
);
note = K;
rightKerningGroup = K;
unicode = 004B;
},
{
glyphname = L;
layers = (
{
anchors = (
{
name = bottom;
position = "{263, 0}";
},
{
name = center;
position = "{152, 267}";
},
{
name = top;
position = "{150, 597}";
},
{
name = topright;
position = "{280, 424}";
}
);
layerId = "3A4136D0-3900-4A7F-B896-13EBFCDD931C";
paths = (
{
closed = 1;
nodes = (
"50 0 LINE",
"368 0 LINE SMOOTH",
"474 0 OFFCURVE",
"492 -3 QCURVE",
"492 171 LINE",
"466 171 LINE",
"466 101 OFFCURVE",
"395 28 OFFCURVE",
"326 28 QCURVE SMOOTH",
"213 28 LINE SMOOTH",
"201 28 OFFCURVE",
"201 41 QCURVE SMOOTH",
"201 548 LINE SMOOTH",
"201 557 OFFCURVE",
"211 569 OFFCURVE",
"219 569 QCURVE SMOOTH",
"221 569 LINE",
"270 567 LINE",
"270 597 LINE",
"50 597 LINE",
"50 567 LINE",
"89 569 LINE",
"97 570 OFFCURVE",
"108 557 OFFCURVE",
"108 548 QCURVE SMOOTH",
"108 49 LINE SMOOTH",
"108 27 OFFCURVE",
"93 27 QCURVE",
"50 30 LINE"
);
}
);
userData = {
assembly = "NPUSHB[ ]\011/* 45 values pushed */
25 1 6 71 0 5 1 0 1 5 0 126 3 1 1 1 2 93 0 2 2 17 75 4 1 0 0 6 94 0 6 6 21 6 76 34 18 52 49 17 21 32 7 7 27 
CALL[ ]\011/* CallFunction */";
};
width = 514;
},
{
anchors = (
{
name = bottom;
position = "{273, 0}";
},
{
name = center;
position = "{162, 267}";
},
{
name = top;
position = "{160, 597}";
},
{
name = topright;
position = "{276, 423}";
}
);
layerId = "A0AC7266-FF1C-4B13-9E61-C3CFB2289D5A";
paths = (
{
closed = 1;
nodes = (
"39 0 LINE",
"368 0 LINE SMOOTH",
"474 0 OFFCURVE",
"492 -3 QCURVE",
"492 171 LINE",
"459 171 LINE",
"459 105 OFFCURVE",
"391 36 OFFCURVE",
"326 36 QCURVE SMOOTH",
"243 36 LINE SMOOTH",
"231 36 OFFCURVE",
"231 49 QCURVE SMOOTH",
"231 541 LINE SMOOTH",
"231 550 OFFCURVE",
"241 562 OFFCURVE",
"249 562 QCURVE SMOOTH",
"251 562 LINE",
"300 560 LINE",
"300 597 LINE",
"39 597 LINE",
"39 560 LINE",
"74 562 LINE",
"82 563 OFFCURVE",
"93 550 OFFCURVE",
"93 541 QCURVE SMOOTH",
"93 57 LINE SMOOTH",
"93 35 OFFCURVE",
"78 35 QCURVE",
"39 38 LINE"
);
}
);
userData = {
assembly = "NPUSHB[ ]\011/* 10 values pushed */
0 1 0 5 1 74 25 1 6 71 
MPPEM[ ]\011/* MeasurePixelPerEm */
PUSHB[ ]\011/* 1 value pushed */
9 
LT[ ]\011/* LessThan */
IF[ ]\011/* If */
NPUSHB[ ]\011/* 31 values pushed */
0 5 1 0 1 5 0 126 3 1 1 1 2 93 0 2 2 17 75 4 1 0 0 6 94 0 6 6 21 6 76 
ELSE[ ]\011/* Else */
MPPEM[ ]\011/* MeasurePixelPerEm */
PUSHB[ ]\011/* 1 value pushed */
10 
LT[ ]\011/* LessThan */
IF[ ]\011/* If */
NPUSHB[ ]\011/* 30 values pushed */
0 5 1 0 0 5 112 3 1 1 1 2 93 0 2 2 17 75 4 1 0 0 6 94 0 6 6 21 6 76 
ELSE[ ]\011/* Else */
NPUSHB[ ]\011/* 31 values pushed */
0 5 1 0 1 5 0 126 3 1 1 1 2 93 0 2 2 17 75 4 1 0 0 6 94 0 6 6 21 6 76 
EIF[ ]\011/* EndIf */
EIF[ ]\011/* EndIf */
NPUSHB[ ]\011/* 10 values pushed */
34 18 52 49 17 21 17 7 7 27 
CALL[ ]\011/* CallFunction */";
};
width = 514;
}
);
note = L;
rightKerningGroup = L;
unicode = 004C;
},
{
glyphname = M;
layers = (
{
layerId = "3A4136D0-3900-4A7F-B896-13EBFCDD931C";
paths = (
{
closed = 1;
nodes = (
"769 27 LINE",
"749 27 OFFCURVE",
"749 49 QCURVE SMOOTH",
"749 549 LINE SMOOTH",
"749 557 OFFCURVE",
"759 569 OFFCURVE",
"767 569 QCURVE SMOOTH",
"769 569 LINE",
"803 567 LINE",
"803 597 LINE",
"658 597 LINE",
"439 113 LINE",
"206 597 LINE",
"52 597 LINE",
"52 567 LINE",
"94 569 LINE",
"104 570 OFFCURVE",
"104 563 QCURVE SMOOTH",
"104 49 LINE SMOOTH",
"104 27 OFFCURVE",
"84 27 QCURVE",
"45 29 LINE",
"45 0 LINE",
"206 0 LINE",
"206 29 LINE",
"157 27 LINE",
"138 27 OFFCURVE",
"138 49 QCURVE SMOOTH",
"138 527 LINE",
"395 -10 LINE",
"419 -10 LINE",
"657 519 LINE",
"657 49 LINE SMOOTH",
"657 27 OFFCURVE",
"637 27 QCURVE",
"588 29 LINE",
"588 0 LINE",
"808 0 LINE",
"808 29 LINE"
);
}
);
userData = {
assembly = "NPUSHB[ ]\011/* 62 values pushed */
27 21 10 7 4 1 6 1 74 9 1 6 6 7 93 8 1 7 7 17 75 11 10 5 3 4 1 1 0 93 4 1 0 0 21 75 0 2 2 18 2 76 0 0 0 38 0 37 33 30 18 17 20 33 17 35 19 33 17 12 7 29 
CALL[ ]\011/* CallFunction */";
};
width = 858;
},
{
layerId = "A0AC7266-FF1C-4B13-9E61-C3CFB2289D5A";
paths = (
{
closed = 1;
nodes = (
"810 35 LINE",
"790 33 OFFCURVE",
"790 57 QCURVE SMOOTH",
"790 542 LINE SMOOTH",
"790 550 OFFCURVE",
"800 562 OFFCURVE",
"808 562 QCURVE SMOOTH",
"810 562 LINE",
"841 560 LINE",
"841 597 LINE",
"654 597 LINE",
"457 161 LINE",
"247 597 LINE",
"41 597 LINE",
"41 560 LINE",
"83 562 LINE",
"93 563 OFFCURVE",
"93 556 QCURVE SMOOTH",
"93 57 LINE SMOOTH",
"93 35 OFFCURVE",
"73 35 QCURVE",
"34 37 LINE",
"34 0 LINE",
"202 0 LINE",
"202 37 LINE",
"153 35 LINE",
"134 35 OFFCURVE",
"134 57 QCURVE SMOOTH",
"134 527 LINE",
"391 -10 LINE",
"423 -10 LINE",
"653 501 LINE",
"653 57 LINE SMOOTH",
"653 35 OFFCURVE",
"633 35 QCURVE",
"584 37 LINE",
"584 0 LINE",
"846 0 LINE",
"846 37 LINE"
);
}
);
userData = {
assembly = "NPUSHB[ ]\011/* 62 values pushed */
27 21 10 7 4 1 6 1 74 9 1 6 6 7 93 8 1 7 7 17 75 11 10 5 3 4 1 1 0 93 4 1 0 0 21 75 0 2 2 18 2 76 0 0 0 38 0 38 33 30 18 17 20 33 17 35 19 33 17 12 7 29 
CALL[ ]\011/* CallFunction */";
};
width = 884;
}
);
note = M;
unicode = 004D;
},
{
glyphname = N;
layers = (
{
anchors = (
{
name = bottom;
position = "{335, 0}";
},
{
name = top;
position = "{334, 597}";
}
);
layerId = "3A4136D0-3900-4A7F-B896-13EBFCDD931C";
paths = (
{
closed = 1;
nodes = (
"456 597 LINE",
"456 567 LINE",
"505 569 LINE",
"508 569 LINE SMOOTH",
"525 569 OFFCURVE",
"525 549 QCURVE SMOOTH",
"525 155 LINE",
"200 597 LINE",
"45 597 LINE",
"45 567 LINE",
"84 569 LINE",
"93 570 OFFCURVE",
"104 557 OFFCURVE",
"104 548 QCURVE SMOOTH",
"104 49 LINE SMOOTH",
"104 27 OFFCURVE",
"84 27 QCURVE",
"45 29 LINE",
"45 0 LINE",
"206 0 LINE",
"206 29 LINE",
"157 27 LINE",
"138 27 OFFCURVE",
"138 49 QCURVE SMOOTH",
"138 525 LINE",
"529 -6 LINE",
"559 -6 LINE",
"559 548 LINE SMOOTH",
"559 569 OFFCURVE",
"576 569 QCURVE SMOOTH",
"578 569 LINE",
"617 567 LINE",
"617 597 LINE"
);
}
);
userData = {
assembly = "NPUSHB[ ]\011/* 55 values pushed */
26 8 2 2 0 1 74 7 5 2 0 0 6 93 9 8 2 6 6 17 75 4 1 2 2 3 93 0 3 3 21 75 0 1 1 18 1 76 0 0 0 32 0 32 51 17 21 33 17 35 18 49 10 7 28 
CALL[ ]\011/* CallFunction */";
};
width = 662;
},
{
anchors = (
{
name = bottom;
position = "{346, 0}";
},
{
name = top;
position = "{345, 597}";
}
);
layerId = "A0AC7266-FF1C-4B13-9E61-C3CFB2289D5A";
paths = (
{
closed = 1;
nodes = (
"475 597 LINE",
"475 567 LINE",
"524 569 LINE",
"527 569 LINE SMOOTH",
"544 569 OFFCURVE",
"544 549 QCURVE SMOOTH",
"544 183 LINE",
"240 597 LINE",
"34 597 LINE",
"34 567 LINE",
"73 569 LINE",
"82 570 OFFCURVE",
"93 557 OFFCURVE",
"93 548 QCURVE SMOOTH",
"93 49 LINE SMOOTH",
"93 27 OFFCURVE",
"73 27 QCURVE",
"34 29 LINE",
"34 0 LINE",
"202 0 LINE",
"202 29 LINE",
"153 27 LINE",
"134 27 OFFCURVE",
"134 49 QCURVE SMOOTH",
"134 525 LINE",
"525 -6 LINE",
"585 -6 LINE",
"585 548 LINE SMOOTH",
"585 569 OFFCURVE",
"602 569 QCURVE SMOOTH",
"604 569 LINE",
"643 567 LINE",
"643 597 LINE"
);
}
);
userData = {
assembly = "PUSHB[ ]\011/* 7 values pushed */
26 8 2 2 0 1 74 
MPPEM[ ]\011/* MeasurePixelPerEm */
PUSHB[ ]\011/* 1 value pushed */
10 
LT[ ]\011/* LessThan */
IF[ ]\011/* If */
NPUSHB[ ]\011/* 27 values pushed */
7 5 2 0 0 6 93 9 8 2 6 6 17 75 4 1 2 2 1 93 3 1 1 1 18 1 76 
ELSE[ ]\011/* Else */
NPUSHB[ ]\011/* 31 values pushed */
7 5 2 0 0 6 93 9 8 2 6 6 17 75 4 1 2 2 3 93 0 3 3 21 75 0 1 1 18 1 76 
EIF[ ]\011/* EndIf */
NPUSHB[ ]\011/* 17 values pushed */
0 0 0 32 0 32 51 17 21 33 17 35 18 49 10 7 28 
CALL[ ]\011/* CallFunction */";
};
width = 677;
}
);
note = N;
unicode = 004E;
},
{
glyphname = Eng;
layers = (
{
layerId = "3A4136D0-3900-4A7F-B896-13EBFCDD931C";
paths = (
{
closed = 1;
nodes = (
"456 597 LINE",
"456 567 LINE",
"505 569 LINE",
"508 569 LINE SMOOTH",
"525 569 OFFCURVE",
"525 549 QCURVE SMOOTH",
"525 155 LINE",
"200 597 LINE",
"45 597 LINE",
"45 567 LINE",
"84 569 LINE",
"93 570 OFFCURVE",
"104 557 OFFCURVE",
"104 548 QCURVE SMOOTH",
"104 49 LINE SMOOTH",
"104 27 OFFCURVE",
"84 27 QCURVE",
"45 29 LINE",
"45 0 LINE",
"206 0 LINE",
"206 29 LINE",
"157 27 LINE",
"138 27 OFFCURVE",
"138 49 QCURVE SMOOTH",
"138 525 LINE",
"529 -6 LINE",
"559 -6 LINE",
"559 548 LINE SMOOTH",
"559 569 OFFCURVE",
"576 569 QCURVE SMOOTH",
"578 569 LINE",
"617 567 LINE",
"617 597 LINE"
);
},
{
closed = 1;
nodes = (
"473 100 LINE",
"473 -59 LINE SMOOTH",
"473 -90 OFFCURVE",
"475 -133 QCURVE SMOOTH",
"479 -216 OFFCURVE",
"422 -216 QCURVE SMOOTH",
"391 -216 OFFCURVE",
"391 -191 QCURVE SMOOTH",
"391 -187 OFFCURVE",
"397 -165 OFFCURVE",
"397 -160 QCURVE SMOOTH",
"397 -144 OFFCURVE",
"374 -132 OFFCURVE",
"362 -132 QCURVE SMOOTH",
"341 -132 OFFCURVE",
"315 -156 OFFCURVE",
"315 -176 QCURVE SMOOTH",
"315 -204 OFFCURVE",
"370 -243 OFFCURVE",
"416 -243 QCURVE SMOOTH",
"559 -243 OFFCURVE",
"559 -4 QCURVE SMOOTH",
"559 100 LINE"
);
}
);
width = 662;
},
{
layerId = "A0AC7266-FF1C-4B13-9E61-C3CFB2289D5A";
paths = (
{
closed = 1;
nodes = (
"475 597 LINE",
"475 567 LINE",
"524 569 LINE",
"527 569 LINE SMOOTH",
"544 569 OFFCURVE",
"544 549 QCURVE SMOOTH",
"544 183 LINE",
"240 597 LINE",
"34 597 LINE",
"34 567 LINE",
"73 569 LINE",
"82 570 OFFCURVE",
"93 557 OFFCURVE",
"93 548 QCURVE SMOOTH",
"93 49 LINE SMOOTH",
"93 27 OFFCURVE",
"73 27 QCURVE",
"34 29 LINE",
"34 0 LINE",
"202 0 LINE",
"202 29 LINE",
"153 27 LINE",
"134 27 OFFCURVE",
"134 49 QCURVE SMOOTH",
"134 525 LINE",
"525 -6 LINE",
"585 -6 LINE",
"585 548 LINE SMOOTH",
"585 569 OFFCURVE",
"602 569 QCURVE SMOOTH",
"604 569 LINE",
"643 567 LINE",
"643 597 LINE"
);
},
{
closed = 1;
nodes = (
"454 132 LINE",
"454 -37 LINE SMOOTH",
"454 -100 OFFCURVE",
"464 -156 QCURVE SMOOTH",
"473 -207 OFFCURVE",
"432 -209 QCURVE SMOOTH",
"410 -210 OFFCURVE",
"410 -184 QCURVE SMOOTH",
"410 -180 OFFCURVE",
"416 -158 OFFCURVE",
"416 -153 QCURVE SMOOTH",
"416 -128 OFFCURVE",
"379 -108 OFFCURVE",
"361 -108 QCURVE SMOOTH",
"332 -108 OFFCURVE",
"298 -140 OFFCURVE",
"298 -166 QCURVE SMOOTH",
"298 -201 OFFCURVE",
"366 -243 OFFCURVE",
"427 -243 QCURVE SMOOTH",
"585 -243 OFFCURVE",
"585 -12 QCURVE SMOOTH",
"585 132 LINE"
);
}
);
width = 677;
}
);
unicode = 014A;
},
{
glyphname = Nhookleft;
layers = (
{
layerId = "3A4136D0-3900-4A7F-B896-13EBFCDD931C";
paths = (
{
closed = 1;
nodes = (
"456 597 LINE",
"456 567 LINE",
"505 569 LINE",
"508 569 LINE SMOOTH",
"525 569 OFFCURVE",
"525 549 QCURVE SMOOTH",
"525 155 LINE",
"200 597 LINE",
"45 597 LINE",
"45 567 LINE",
"84 569 LINE",
"93 570 OFFCURVE",
"104 557 OFFCURVE",
"104 548 QCURVE",
"138 525 LINE",
"529 -6 LINE",
"559 -6 LINE",
"559 548 LINE SMOOTH",
"559 569 OFFCURVE",
"576 569 QCURVE SMOOTH",
"578 569 LINE",
"617 567 LINE",
"617 597 LINE"
);
},
{
closed = 1;
nodes = (
"104 597 LINE",
"104 -46 LINE SMOOTH",
"104 -77 OFFCURVE",
"106 -120 QCURVE SMOOTH",
"110 -216 OFFCURVE",
"53 -216 QCURVE SMOOTH",
"23 -216 OFFCURVE",
"22 -191 QCURVE SMOOTH",
"22 -187 OFFCURVE",
"28 -165 OFFCURVE",
"28 -160 QCURVE SMOOTH",
"28 -144 OFFCURVE",
"5 -132 OFFCURVE",
"-7 -132 QCURVE SMOOTH",
"-28 -132 OFFCURVE",
"-54 -156 OFFCURVE",
"-54 -176 QCURVE SMOOTH",
"-54 -204 OFFCURVE",
"-9 -243 OFFCURVE",
"37 -243 QCURVE SMOOTH",
"138 -243 OFFCURVE",
"138 -109 QCURVE SMOOTH",
"138 597 LINE"
);
}
);
width = 662;
},
{
layerId = "A0AC7266-FF1C-4B13-9E61-C3CFB2289D5A";
paths = (
{
closed = 1;
nodes = (
"475 597 LINE",
"475 567 LINE",
"524 569 LINE",
"527 569 LINE SMOOTH",
"544 569 OFFCURVE",
"544 549 QCURVE SMOOTH",
"544 183 LINE",
"240 597 LINE",
"34 597 LINE",
"34 567 LINE",
"73 569 LINE",
"82 570 OFFCURVE",
"93 557 OFFCURVE",
"93 548 QCURVE",
"134 525 LINE",
"525 -6 LINE",
"585 -6 LINE",
"585 548 LINE SMOOTH",
"585 569 OFFCURVE",
"602 569 QCURVE SMOOTH",
"604 569 LINE",
"643 567 LINE",
"643 597 LINE"
);
},
{
closed = 1;
nodes = (
"93 597 LINE",
"93 3 LINE",
"95 -60 OFFCURVE",
"103 -116 QCURVE",
"116 -209 OFFCURVE",
"71 -209 QCURVE",
"50 -209 OFFCURVE",
"49 -184 QCURVE",
"49 -180 OFFCURVE",
"55 -158 OFFCURVE",
"55 -153 QCURVE",
"55 -128 OFFCURVE",
"18 -108 OFFCURVE",
"0 -108 QCURVE",
"-29 -108 OFFCURVE",
"-63 -140 OFFCURVE",
"-63 -166 QCURVE",
"-63 -196 OFFCURVE",
"-14 -243 OFFCURVE",
"36 -243 QCURVE",
"134 -243 OFFCURVE",
"134 -132 QCURVE",
"134 597 LINE"
);
}
);
width = 677;
}
);
unicode = 019D;
},
{
glyphname = O;
layers = (
{
anchors = (
{
name = bottom;
position = "{335, 0}";
},
{
name = center;
position = "{335, 299}";
},
{
name = ogonek;
position = "{429, 0}";
},
{
name = top;
position = "{335, 597}";
},
{
name = topright;
position = "{365, 597}";
}
);
layerId = "3A4136D0-3900-4A7F-B896-13EBFCDD931C";
paths = (
{
closed = 1;
nodes = (
"45 152 OFFCURVE",
"198 -10 OFFCURVE",
"335 -10 QCURVE SMOOTH",
"472 -10 OFFCURVE",
"625 152 OFFCURVE",
"625 299 QCURVE SMOOTH",
"625 445 OFFCURVE",
"474 607 OFFCURVE",
"335 607 QCURVE SMOOTH",
"198 607 OFFCURVE",
"45 448 OFFCURVE",
"45 299 QCURVE SMOOTH"
);
},
{
closed = 1;
nodes = (
"147 448 OFFCURVE",
"238 580 OFFCURVE",
"335 580 QCURVE SMOOTH",
"432 580 OFFCURVE",
"523 448 OFFCURVE",
"523 299 QCURVE SMOOTH",
"523 149 OFFCURVE",
"432 17 OFFCURVE",
"335 17 QCURVE SMOOTH",
"238 17 OFFCURVE",
"147 149 OFFCURVE",
"147 299 QCURVE SMOOTH"
);
}
);
userData = {
assembly = "NPUSHB[ ]\011/* 28 values pushed */
0 3 3 0 95 0 0 0 25 75 0 2 2 1 95 0 1 1 26 1 76 36 36 36 33 4 7 24 
CALL[ ]\011/* CallFunction */";
};
width = 670;
},
{
anchors = (
{
name = bottom;
position = "{339, 0}";
},
{
name = center;
position = "{339, 299}";
},
{
name = ogonek;
position = "{442, 0}";
},
{
name = top;
position = "{339, 597}";
},
{
name = topright;
position = "{371, 597}";
}
);
background = {
paths = (
{
closed = 1;
nodes = (
"30 152 OFFCURVE",
"192 -10 OFFCURVE",
"339 -10 QCURVE SMOOTH",
"486 -10 OFFCURVE",
"648 152 OFFCURVE",
"648 299 QCURVE SMOOTH",
"648 445 OFFCURVE",
"488 607 OFFCURVE",
"339 607 QCURVE SMOOTH",
"192 607 OFFCURVE",
"30 448 OFFCURVE",
"30 299 QCURVE SMOOTH"
);
},
{
closed = 1;
nodes = (
"181 403 OFFCURVE",
"215 523 OFFCURVE",
"283 573 OFFCURVE",
"339 573 QCURVE SMOOTH",
"395 573 OFFCURVE",
"463 523 OFFCURVE",
"497 403 OFFCURVE",
"497 299 QCURVE SMOOTH",
"497 194 OFFCURVE",
"463 75 OFFCURVE",
"395 25 OFFCURVE",
"339 25 QCURVE SMOOTH",
"283 25 OFFCURVE",
"215 75 OFFCURVE",
"181 194 OFFCURVE",
"181 299 QCURVE SMOOTH"
);
}
);
};
layerId = "A0AC7266-FF1C-4B13-9E61-C3CFB2289D5A";
paths = (
{
closed = 1;
nodes = (
"30 152 OFFCURVE",
"192 -10 OFFCURVE",
"339 -10 QCURVE SMOOTH",
"486 -10 OFFCURVE",
"648 152 OFFCURVE",
"648 299 QCURVE SMOOTH",
"648 445 OFFCURVE",
"488 607 OFFCURVE",
"339 607 QCURVE SMOOTH",
"192 607 OFFCURVE",
"30 448 OFFCURVE",
"30 299 QCURVE SMOOTH"
);
},
{
closed = 1;
nodes = (
"181 453 OFFCURVE",
"253 573 OFFCURVE",
"339 573 QCURVE SMOOTH",
"425 573 OFFCURVE",
"497 453 OFFCURVE",
"497 299 QCURVE SMOOTH",
"497 144 OFFCURVE",
"425 25 OFFCURVE",
"339 25 QCURVE SMOOTH",
"253 25 OFFCURVE",
"181 144 OFFCURVE",
"181 299 QCURVE SMOOTH"
);
}
);
userData = {
assembly = "NPUSHB[ ]\011/* 28 values pushed */
0 3 3 0 95 0 0 0 25 75 0 2 2 1 95 0 1 1 26 1 76 38 37 36 33 4 7 24 
CALL[ ]\011/* CallFunction */";
};
width = 678;
}
);
leftKerningGroup = C;
note = O;
rightKerningGroup = D;
unicode = 004F;
},
{
glyphname = OE;
layers = (
{
layerId = "3A4136D0-3900-4A7F-B896-13EBFCDD931C";
paths = (
{
closed = 1;
nodes = (
"45 146 OFFCURVE",
"197 -10 OFFCURVE",
"339 -10 QCURVE SMOOTH",
"341 -10 OFFCURVE",
"419 0 OFFCURVE",
"479 0 QCURVE SMOOTH",
"729 0 LINE SMOOTH",
"793 0 OFFCURVE",
"817 -3 QCURVE",
"817 179 LINE",
"790 179 LINE",
"790 106 OFFCURVE",
"719 27 OFFCURVE",
"650 27 QCURVE SMOOTH",
"535 27 LINE SMOOTH",
"522 27 OFFCURVE",
"522 40 QCURVE SMOOTH",
"522 297 LINE",
"598 297 LINE SMOOTH",
"630 297 OFFCURVE",
"675 239 OFFCURVE",
"675 195 QCURVE",
"702 195 LINE",
"702 426 LINE",
"675 426 LINE",
"675 379 OFFCURVE",
"631 324 OFFCURVE",
"598 324 QCURVE SMOOTH",
"522 324 LINE",
"522 555 LINE SMOOTH",
"522 569 OFFCURVE",
"535 569 QCURVE SMOOTH",
"629 569 LINE SMOOTH",
"704 569 OFFCURVE",
"771 511 OFFCURVE",
"771 443 QCURVE",
"798 443 LINE",
"798 597 LINE",
"471 597 LINE SMOOTH",
"443 597 OFFCURVE",
"411 602 QCURVE SMOOTH",
"404 603 OFFCURVE",
"363 607 OFFCURVE",
"342 607 QCURVE SMOOTH",
"45 607 OFFCURVE",
"45 292 QCURVE SMOOTH"
);
},
{
closed = 1;
nodes = (
"142 446 OFFCURVE",
"233 581 OFFCURVE",
"335 581 QCURVE SMOOTH",
"376 581 OFFCURVE",
"434 549 OFFCURVE",
"434 526 QCURVE SMOOTH",
"434 90 LINE SMOOTH",
"434 59 OFFCURVE",
"390 18 OFFCURVE",
"335 18 QCURVE SMOOTH",
"232 18 OFFCURVE",
"142 148 OFFCURVE",
"142 296 QCURVE SMOOTH"
);
}
);
userData = {
assembly = "PUSHB[ ]\011/* 6 values pushed */
36 1 11 10 1 74 
MPPEM[ ]\011/* MeasurePixelPerEm */
PUSHB[ ]\011/* 1 value pushed */
10 
LT[ ]\011/* LessThan */
IF[ ]\011/* If */
NPUSHB[ ]\011/* 74 values pushed */
0 2 3 5 3 2 112 0 9 6 8 6 9 8 126 0 4 0 7 6 4 7 101 0 13 13 0 95 0 0 0 25 75 0 3 3 1 93 0 1 1 17 75 0 6 6 5 93 0 5 5 20 75 0 8 8 10 94 0 10 10 21 75 0 12 12 11 95 0 11 11 26 11 76 
ELSE[ ]\011/* Else */
NPUSHB[ ]\011/* 75 values pushed */
0 2 3 5 3 2 5 126 0 9 6 8 6 9 8 126 0 4 0 7 6 4 7 101 0 13 13 0 95 0 0 0 25 75 0 3 3 1 93 0 1 1 17 75 0 6 6 5 93 0 5 5 20 75 0 8 8 10 94 0 10 10 21 75 0 12 12 11 95 0 11 11 26 11 76 
EIF[ ]\011/* EndIf */
NPUSHB[ ]\011/* 22 values pushed */
56 54 49 47 43 41 40 37 35 34 50 34 17 18 34 50 17 35 32 14 7 29 
CALL[ ]\011/* CallFunction */";
};
width = 861;
},
{
background = {
paths = (
{
closed = 1;
nodes = (
"30 151 OFFCURVE",
"192 -10 OFFCURVE",
"339 -10 QCURVE SMOOTH",
"341 -10 OFFCURVE",
"419 0 OFFCURVE",
"479 0 QCURVE SMOOTH",
"766 0 LINE SMOOTH",
"836 0 OFFCURVE",
"861 -3 QCURVE",
"861 179 LINE",
"827 179 LINE",
"827 109 OFFCURVE",
"756 35 OFFCURVE",
"687 35 QCURVE SMOOTH",
"585 35 LINE SMOOTH",
"572 35 OFFCURVE",
"572 48 QCURVE SMOOTH",
"572 290 LINE",
"638 290 LINE SMOOTH",
"669 290 OFFCURVE",
"715 233 OFFCURVE",
"715 191 QCURVE",
"749 191 LINE",
"749 426 LINE",
"715 426 LINE",
"715 379 OFFCURVE",
"672 325 OFFCURVE",
"638 325 QCURVE SMOOTH",
"572 325 LINE",
"572 548 LINE SMOOTH",
"572 562 OFFCURVE",
"585 562 QCURVE SMOOTH",
"658 562 LINE SMOOTH",
"733 562 OFFCURVE",
"800 507 OFFCURVE",
"800 443 QCURVE",
"834 443 LINE",
"834 597 LINE",
"471 597 LINE SMOOTH",
"443 597 OFFCURVE",
"411 602 QCURVE SMOOTH",
"404 603 OFFCURVE",
"363 607 OFFCURVE",
"342 607 QCURVE SMOOTH",
"185 607 OFFCURVE",
"30 442 OFFCURVE",
"30 292 QCURVE SMOOTH"
);
},
{
closed = 1;
nodes = (
"180 397 OFFCURVE",
"212 519 OFFCURVE",
"279 574 OFFCURVE",
"335 574 QCURVE SMOOTH",
"376 574 OFFCURVE",
"434 546 OFFCURVE",
"434 526 QCURVE SMOOTH",
"434 90 LINE SMOOTH",
"434 63 OFFCURVE",
"390 26 OFFCURVE",
"335 26 QCURVE SMOOTH",
"279 26 OFFCURVE",
"211 78 OFFCURVE",
"180 196 OFFCURVE",
"180 296 QCURVE SMOOTH"
);
}
);
};
layerId = "A0AC7266-FF1C-4B13-9E61-C3CFB2289D5A";
paths = (
{
closed = 1;
nodes = (
"30 151 OFFCURVE",
"192 -10 OFFCURVE",
"339 -10 QCURVE SMOOTH",
"341 -10 OFFCURVE",
"419 0 OFFCURVE",
"479 0 QCURVE SMOOTH",
"766 0 LINE SMOOTH",
"836 0 OFFCURVE",
"861 -3 QCURVE",
"861 179 LINE",
"827 179 LINE",
"827 109 OFFCURVE",
"756 35 OFFCURVE",
"687 35 QCURVE SMOOTH",
"585 35 LINE SMOOTH",
"572 35 OFFCURVE",
"572 48 QCURVE SMOOTH",
"572 290 LINE",
"638 290 LINE SMOOTH",
"669 290 OFFCURVE",
"715 233 OFFCURVE",
"715 191 QCURVE",
"749 191 LINE",
"749 426 LINE",
"715 426 LINE",
"715 379 OFFCURVE",
"672 325 OFFCURVE",
"638 325 QCURVE SMOOTH",
"572 325 LINE",
"572 548 LINE SMOOTH",
"572 562 OFFCURVE",
"585 562 QCURVE SMOOTH",
"658 562 LINE SMOOTH",
"733 562 OFFCURVE",
"800 507 OFFCURVE",
"800 443 QCURVE",
"834 443 LINE",
"834 597 LINE",
"471 597 LINE SMOOTH",
"443 597 OFFCURVE",
"411 602 QCURVE SMOOTH",
"404 603 OFFCURVE",
"361 607 OFFCURVE",
"342 607 QCURVE SMOOTH",
"30 607 OFFCURVE",
"30 292 QCURVE SMOOTH"
);
},
{
closed = 1;
nodes = (
"180 437 OFFCURVE",
"248 574 OFFCURVE",
"335 574 QCURVE SMOOTH",
"376 574 OFFCURVE",
"434 546 OFFCURVE",
"434 526 QCURVE SMOOTH",
"434 90 LINE SMOOTH",
"434 63 OFFCURVE",
"390 26 OFFCURVE",
"335 26 QCURVE SMOOTH",
"249 26 OFFCURVE",
"180 148 OFFCURVE",
"180 296 QCURVE SMOOTH"
);
}
);
userData = {
assembly = "PUSHB[ ]\011/* 6 values pushed */
37 1 11 10 1 74 
MPPEM[ ]\011/* MeasurePixelPerEm */
PUSHB[ ]\011/* 1 value pushed */
10 
LT[ ]\011/* LessThan */
IF[ ]\011/* If */
NPUSHB[ ]\011/* 74 values pushed */
0 2 3 5 3 2 112 0 9 6 8 6 9 8 126 0 4 0 7 6 4 7 103 0 13 13 0 95 0 0 0 25 75 0 3 3 1 93 0 1 1 17 75 0 6 6 5 93 0 5 5 20 75 0 8 8 10 94 0 10 10 21 75 0 12 12 11 95 0 11 11 26 11 76 
ELSE[ ]\011/* Else */
NPUSHB[ ]\011/* 75 values pushed */
0 2 3 5 3 2 5 126 0 9 6 8 6 9 8 126 0 4 0 7 6 4 7 103 0 13 13 0 95 0 0 0 25 75 0 3 3 1 93 0 1 1 17 75 0 6 6 5 93 0 5 5 20 75 0 8 8 10 94 0 10 10 21 75 0 12 12 11 95 0 11 11 26 11 76 
EIF[ ]\011/* EndIf */
NPUSHB[ ]\011/* 22 values pushed */
58 56 51 49 44 42 41 38 36 35 50 34 17 18 34 50 17 35 33 14 7 29 
CALL[ ]\011/* CallFunction */";
};
width = 905;
}
);
leftKerningGroup = C;
note = OE;
unicode = 0152;
},
{
glyphname = P;
layers = (
{
layerId = "3A4136D0-3900-4A7F-B896-13EBFCDD931C";
paths = (
{
closed = 1;
nodes = (
"50 0 LINE",
"270 0 LINE",
"270 29 LINE",
"221 27 LINE",
"201 27 OFFCURVE",
"201 49 QCURVE SMOOTH",
"201 263 LINE",
"306 263 LINE SMOOTH",
"390 263 OFFCURVE",
"488 357 OFFCURVE",
"488 436 QCURVE SMOOTH",
"488 518 OFFCURVE",
"389 597 OFFCURVE",
"285 597 QCURVE SMOOTH",
"50 597 LINE",
"50 567 LINE",
"85 569 LINE SMOOTH",
"98 570 OFFCURVE",
"108 559 OFFCURVE",
"108 547 QCURVE SMOOTH",
"108 49 LINE SMOOTH",
"108 27 OFFCURVE",
"89 27 QCURVE",
"50 29 LINE"
);
},
{
closed = 1;
nodes = (
"201 291 LINE",
"201 557 LINE SMOOTH",
"201 562 OFFCURVE",
"209 569 OFFCURVE",
"213 569 QCURVE SMOOTH",
"269 569 LINE SMOOTH",
"325 569 OFFCURVE",
"392 496 OFFCURVE",
"392 436 QCURVE SMOOTH",
"392 373 OFFCURVE",
"331 291 OFFCURVE",
"285 291 QCURVE SMOOTH"
);
}
);
userData = {
assembly = "NPUSHB[ ]\011/* 49 values pushed */
8 1 6 0 3 0 6 3 101 7 1 1 1 2 93 0 2 2 17 75 4 1 0 0 5 93 0 5 5 21 5 76 25 24 31 29 24 35 25 35 17 34 36 33 21 32 9 7 26 
CALL[ ]\011/* CallFunction */";
};
width = 523;
},
{
layerId = "A0AC7266-FF1C-4B13-9E61-C3CFB2289D5A";
paths = (
{
closed = 1;
nodes = (
"39 0 LINE",
"300 0 LINE",
"300 37 LINE",
"251 35 LINE",
"231 35 OFFCURVE",
"231 57 QCURVE SMOOTH",
"231 248 LINE",
"329 248 LINE SMOOTH",
"418 248 OFFCURVE",
"523 347 OFFCURVE",
"523 429 QCURVE SMOOTH",
"523 514 OFFCURVE",
"415 597 OFFCURVE",
"302 597 QCURVE SMOOTH",
"39 597 LINE",
"39 560 LINE",
"70 562 LINE SMOOTH",
"83 563 OFFCURVE",
"93 552 OFFCURVE",
"93 540 QCURVE SMOOTH",
"93 57 LINE SMOOTH",
"93 35 OFFCURVE",
"76 35 QCURVE SMOOTH",
"39 37 LINE"
);
},
{
closed = 1;
nodes = (
"231 284 LINE",
"231 550 LINE SMOOTH",
"231 555 OFFCURVE",
"239 562 OFFCURVE",
"243 562 QCURVE SMOOTH",
"283 562 LINE SMOOTH",
"326 562 OFFCURVE",
"379 488 OFFCURVE",
"379 429 QCURVE SMOOTH",
"379 366 OFFCURVE",
"326 284 OFFCURVE",
"286 284 QCURVE SMOOTH"
);
}
);
userData = {
assembly = "NPUSHB[ ]\011/* 49 values pushed */
8 1 6 0 3 0 6 3 101 7 1 1 1 2 93 0 2 2 17 75 4 1 0 0 5 93 0 5 5 21 5 76 26 25 32 30 25 36 26 36 17 34 36 33 21 48 9 7 26 
CALL[ ]\011/* CallFunction */";
};
width = 547;
}
);
note = P;
rightKerningGroup = P;
unicode = 0050;
},
{
glyphname = Thorn;
layers = (
{
background = {
paths = (
{
closed = 1;
nodes = (
"50 0 LINE",
"270 0 LINE",
"270 29 LINE",
"221 27 LINE SMOOTH",
"201 26 OFFCURVE",
"201 49 QCURVE SMOOTH",
"201 162 LINE",
"304 162 LINE SMOOTH",
"391 162 OFFCURVE",
"489 255 OFFCURVE",
"489 334 QCURVE SMOOTH",
"489 418 OFFCURVE",
"389 496 OFFCURVE",
"283 496 QCURVE SMOOTH",
"201 496 LINE",
"201 548 LINE SMOOTH",
"201 557 OFFCURVE",
"212 569 OFFCURVE",
"221 569 QCURVE",
"270 567 LINE",
"270 597 LINE",
"50 597 LINE",
"50 567 LINE",
"89 569 LINE",
"98 569 OFFCURVE",
"108 557 OFFCURVE",
"108 548 QCURVE SMOOTH",
"108 49 LINE SMOOTH",
"108 39 OFFCURVE",
"100 27 OFFCURVE",
"91 27 QCURVE SMOOTH",
"89 27 LINE",
"50 29 LINE"
);
},
{
closed = 1;
nodes = (
"201 471 LINE",
"267 471 LINE SMOOTH",
"325 471 OFFCURVE",
"393 396 OFFCURVE",
"393 334 QCURVE SMOOTH",
"393 294 OFFCURVE",
"363 227 OFFCURVE",
"312 188 OFFCURVE",
"283 188 QCURVE SMOOTH",
"214 188 LINE SMOOTH",
"209 188 OFFCURVE",
"201 196 OFFCURVE",
"201 201 QCURVE SMOOTH"
);
}
);
};
layerId = "3A4136D0-3900-4A7F-B896-13EBFCDD931C";
paths = (
{
closed = 1;
nodes = (
"50 0 LINE",
"270 0 LINE",
"270 29 LINE",
"221 27 LINE SMOOTH",
"201 26 OFFCURVE",
"201 49 QCURVE SMOOTH",
"201 162 LINE",
"304 162 LINE SMOOTH",
"391 162 OFFCURVE",
"489 255 OFFCURVE",
"489 334 QCURVE SMOOTH",
"489 418 OFFCURVE",
"389 496 OFFCURVE",
"283 496 QCURVE SMOOTH",
"201 496 LINE",
"201 548 LINE SMOOTH",
"201 557 OFFCURVE",
"212 569 OFFCURVE",
"221 569 QCURVE",
"270 567 LINE",
"270 597 LINE",
"50 597 LINE",
"50 567 LINE",
"89 569 LINE",
"98 569 OFFCURVE",
"108 557 OFFCURVE",
"108 548 QCURVE SMOOTH",
"108 49 LINE SMOOTH",
"108 39 OFFCURVE",
"100 27 OFFCURVE",
"91 27 QCURVE SMOOTH",
"89 27 LINE",
"50 29 LINE"
);
},
{
closed = 1;
nodes = (
"201 471 LINE",
"267 471 LINE SMOOTH",
"325 471 OFFCURVE",
"393 396 OFFCURVE",
"393 334 QCURVE SMOOTH",
"393 275 OFFCURVE",
"329 188 OFFCURVE",
"283 188 QCURVE SMOOTH",
"214 188 LINE SMOOTH",
"209 188 OFFCURVE",
"201 196 OFFCURVE",
"201 201 QCURVE SMOOTH"
);
}
);
userData = {
assembly = "NPUSHB[ ]\011/* 59 values pushed */
45 1 8 9 1 74 0 4 0 9 8 4 9 103 0 8 0 5 0 8 5 101 3 1 1 1 2 93 0 2 2 17 75 6 1 0 0 7 93 0 7 7 21 7 76 44 42 50 17 34 36 35 33 17 37 48 10 7 29 
CALL[ ]\011/* CallFunction */";
};
width = 524;
},
{
layerId = "A0AC7266-FF1C-4B13-9E61-C3CFB2289D5A";
paths = (
{
closed = 1;
nodes = (
"39 0 LINE",
"300 0 LINE",
"300 29 LINE",
"251 27 LINE SMOOTH",
"231 26 OFFCURVE",
"231 49 QCURVE SMOOTH",
"231 162 LINE",
"327 162 LINE SMOOTH",
"418 162 OFFCURVE",
"519 251 OFFCURVE",
"519 334 QCURVE SMOOTH",
"519 422 OFFCURVE",
"418 496 OFFCURVE",
"306 496 QCURVE SMOOTH",
"231 496 LINE",
"231 548 LINE SMOOTH",
"231 557 OFFCURVE",
"242 569 OFFCURVE",
"251 569 QCURVE",
"300 567 LINE",
"300 597 LINE",
"39 597 LINE",
"39 567 LINE",
"74 569 LINE",
"83 570 OFFCURVE",
"93 557 OFFCURVE",
"93 548 QCURVE SMOOTH",
"93 49 LINE SMOOTH",
"93 39 OFFCURVE",
"85 27 OFFCURVE",
"76 27 QCURVE SMOOTH",
"74 27 LINE",
"39 29 LINE"
);
},
{
closed = 1;
nodes = (
"231 471 LINE",
"275 471 LINE SMOOTH",
"324 471 OFFCURVE",
"378 400 OFFCURVE",
"378 334 QCURVE SMOOTH",
"378 269 OFFCURVE",
"327 188 OFFCURVE",
"291 188 QCURVE SMOOTH",
"244 188 LINE SMOOTH",
"239 188 OFFCURVE",
"231 196 OFFCURVE",
"231 201 QCURVE SMOOTH"
);
}
);
userData = {
assembly = "NPUSHB[ ]\011/* 59 values pushed */
44 1 8 9 1 74 0 4 0 9 8 4 9 103 0 8 0 5 0 8 5 101 3 1 1 1 2 93 0 2 2 17 75 6 1 0 0 7 93 0 7 7 21 7 76 43 41 50 17 34 36 35 33 17 22 48 10 7 29 
CALL[ ]\011/* CallFunction */";
};
width = 543;
}
);
note = Thorn;
unicode = 00DE;
},
{
glyphname = Q;
layers = (
{
background = {
paths = (
{
closed = 1;
nodes = (
"500 7 OFFCURVE",
"625 166 OFFCURVE",
"625 299 QCURVE SMOOTH",
"625 445 OFFCURVE",
"474 607 OFFCURVE",
"335 607 QCURVE SMOOTH",
"198 607 OFFCURVE",
"45 448 OFFCURVE",
"45 299 QCURVE SMOOTH",
"45 167 OFFCURVE",
"170 8 OFFCURVE",
"284 -7 QCURVE",
"284 -62 OFFCURVE",
"350 -148 OFFCURVE",
"467 -196 OFFCURVE",
"541 -196 QCURVE",
"554 -166 LINE",
"473 -164 OFFCURVE",
"385 -72 OFFCURVE",
"385 -7 QCURVE"
);
},
{
closed = 1;
nodes = (
"147 448 OFFCURVE",
"238 580 OFFCURVE",
"335 580 QCURVE SMOOTH",
"432 580 OFFCURVE",
"523 448 OFFCURVE",
"523 299 QCURVE SMOOTH",
"523 149 OFFCURVE",
"432 17 OFFCURVE",
"335 17 QCURVE SMOOTH",
"238 17 OFFCURVE",
"147 149 OFFCURVE",
"147 299 QCURVE SMOOTH"
);
}
);
};
layerId = "3A4136D0-3900-4A7F-B896-13EBFCDD931C";
paths = (
{
closed = 1;
nodes = (
"45 152 OFFCURVE",
"198 -10 OFFCURVE",
"335 -10 QCURVE SMOOTH",
"472 -10 OFFCURVE",
"625 152 OFFCURVE",
"625 299 QCURVE SMOOTH",
"625 445 OFFCURVE",
"474 607 OFFCURVE",
"335 607 QCURVE SMOOTH",
"198 607 OFFCURVE",
"45 448 OFFCURVE",
"45 299 QCURVE SMOOTH"
);
},
{
closed = 1;
nodes = (
"147 448 OFFCURVE",
"238 580 OFFCURVE",
"335 580 QCURVE SMOOTH",
"432 580 OFFCURVE",
"523 448 OFFCURVE",
"523 299 QCURVE SMOOTH",
"523 149 OFFCURVE",
"432 17 OFFCURVE",
"335 17 QCURVE SMOOTH",
"238 17 OFFCURVE",
"147 149 OFFCURVE",
"147 299 QCURVE SMOOTH"
);
},
{
closed = 1;
nodes = (
"273 0 LINE",
"371 -109 OFFCURVE",
"417 -194 OFFCURVE",
"478 -194 CURVE SMOOTH",
"502 -194 OFFCURVE",
"542 -191 OFFCURVE",
"584 -166 CURVE",
"575 -140 LINE",
"461 -176 OFFCURVE",
"449 -37 OFFCURVE",
"335 -10 CURVE"
);
}
);
userData = {
assembly = "NPUSHB[ ]\011/* 41 values pushed */
20 8 2 0 3 1 74 0 3 4 0 4 3 0 126 0 0 0 1 0 1 99 0 4 4 2 95 0 2 2 25 4 76 36 39 40 17 18 5 7 25 
CALL[ ]\011/* CallFunction */";
};
width = 670;
},
{
background = {
paths = (
{
closed = 1;
nodes = (
"523 13 OFFCURVE",
"648 170 OFFCURVE",
"648 299 QCURVE SMOOTH",
"648 445 OFFCURVE",
"488 607 OFFCURVE",
"339 607 QCURVE SMOOTH",
"192 607 OFFCURVE",
"30 448 OFFCURVE",
"30 299 QCURVE SMOOTH",
"30 173 OFFCURVE",
"151 17 OFFCURVE",
"262 -3 QCURVE",
"261 -59 OFFCURVE",
"329 -147 OFFCURVE",
"457 -196 OFFCURVE",
"541 -196 QCURVE",
"551 -160 LINE",
"485 -160 OFFCURVE",
"406 -73 OFFCURVE",
"408 -5 QCURVE SMOOTH"
);
},
{
closed = 1;
nodes = (
"181 443 OFFCURVE",
"249 573 OFFCURVE",
"339 573 QCURVE SMOOTH",
"432 573 OFFCURVE",
"497 435 OFFCURVE",
"497 299 QCURVE SMOOTH",
"497 149 OFFCURVE",
"425 25 OFFCURVE",
"339 25 QCURVE SMOOTH",
"253 25 OFFCURVE",
"181 149 OFFCURVE",
"181 299 QCURVE SMOOTH"
);
}
);
};
layerId = "A0AC7266-FF1C-4B13-9E61-C3CFB2289D5A";
paths = (
{
closed = 1;
nodes = (
"30 152 OFFCURVE",
"192 -10 OFFCURVE",
"339 -10 QCURVE SMOOTH",
"486 -10 OFFCURVE",
"648 152 OFFCURVE",
"648 299 QCURVE SMOOTH",
"648 445 OFFCURVE",
"488 607 OFFCURVE",
"339 607 QCURVE SMOOTH",
"192 607 OFFCURVE",
"30 448 OFFCURVE",
"30 299 QCURVE SMOOTH"
);
},
{
closed = 1;
nodes = (
"181 453 OFFCURVE",
"253 573 OFFCURVE",
"339 573 QCURVE SMOOTH",
"425 573 OFFCURVE",
"497 453 OFFCURVE",
"497 299 QCURVE SMOOTH",
"497 144 OFFCURVE",
"425 25 OFFCURVE",
"339 25 QCURVE SMOOTH",
"253 25 OFFCURVE",
"181 144 OFFCURVE",
"181 299 QCURVE SMOOTH"
);
},
{
closed = 1;
nodes = (
"275 0 LINE",
"373 -109 OFFCURVE",
"429 -203 OFFCURVE",
"490 -203 CURVE SMOOTH",
"514 -203 OFFCURVE",
"561 -193 OFFCURVE",
"603 -168 CURVE",
"587 -133 LINE",
"465 -181 OFFCURVE",
"494 -29 OFFCURVE",
"339 -10 CURVE"
);
}
);
userData = {
assembly = "NPUSHB[ ]\011/* 41 values pushed */
10 2 2 0 3 1 74 0 3 4 0 4 3 0 126 0 0 0 1 0 1 99 0 4 4 2 95 0 2 2 25 4 76 38 37 40 17 20 5 7 25 
CALL[ ]\011/* CallFunction */";
};
width = 678;
}
);
leftKerningGroup = C;
note = Q;
rightKerningGroup = D;
unicode = 0051;
},
{
glyphname = R;
layers = (
{
anchors = (
{
name = bottom;
position = "{296, 0}";
},
{
name = top;
position = "{295, 597}";
}
);
layerId = "3A4136D0-3900-4A7F-B896-13EBFCDD931C";
paths = (
{
closed = 1;
nodes = (
"50 0 LINE",
"270 0 LINE",
"270 29 LINE",
"221 27 LINE",
"201 27 OFFCURVE",
"201 49 QCURVE SMOOTH",
"201 286 LINE",
"243 286 LINE SMOOTH",
"313 286 OFFCURVE",
"410 212 OFFCURVE",
"410 137 QCURVE SMOOTH",
"410 104 LINE SMOOTH",
"410 92 OFFCURVE",
"412 66 QCURVE SMOOTH",
"414 25 OFFCURVE",
"426 0 QCURVE",
"562 0 LINE",
"562 30 LINE",
"555 26 OFFCURVE",
"543 26 QCURVE SMOOTH",
"535 26 OFFCURVE",
"529 28 QCURVE",
"515 30 OFFCURVE",
"500 92 OFFCURVE",
"500 122 QCURVE SMOOTH",
"500 175 OFFCURVE",
"458 255 OFFCURVE",
"395 297 OFFCURVE",
"364 297 QCURVE",
"419 312 OFFCURVE",
"486 387 OFFCURVE",
"486 438 QCURVE SMOOTH",
"486 522 OFFCURVE",
"386 597 OFFCURVE",
"275 597 QCURVE SMOOTH",
"50 597 LINE",
"50 567 LINE",
"86 569 LINE",
"97 570 OFFCURVE",
"108 557 OFFCURVE",
"108 548 QCURVE SMOOTH",
"108 49 LINE SMOOTH",
"108 27 OFFCURVE",
"89 27 QCURVE",
"50 29 LINE"
);
},
{
closed = 1;
nodes = (
"201 313 LINE",
"201 559 LINE SMOOTH",
"201 569 OFFCURVE",
"213 569 QCURVE SMOOTH",
"275 569 LINE SMOOTH",
"335 569 OFFCURVE",
"392 507 OFFCURVE",
"392 438 QCURVE SMOOTH",
"392 379 OFFCURVE",
"340 313 OFFCURVE",
"294 313 QCURVE SMOOTH"
);
}
);
userData = {
assembly = "NPUSHB[ ]\011/* 69 values pushed */
31 27 2 0 6 1 74 0 3 9 6 9 3 6 126 11 1 9 0 6 0 9 6 103 10 1 1 1 2 93 0 2 2 17 75 7 4 2 0 0 5 93 8 1 5 5 21 5 76 46 45 53 50 45 55 46 55 17 34 39 18 24 21 33 21 32 12 7 29 
CALL[ ]\011/* CallFunction */";
};
width = 581;
},
{
anchors = (
{
name = bottom;
position = "{300, 0}";
},
{
name = top;
position = "{299, 597}";
}
);
layerId = "A0AC7266-FF1C-4B13-9E61-C3CFB2289D5A";
paths = (
{
closed = 1;
nodes = (
"39 0 LINE",
"300 0 LINE",
"300 37 LINE",
"251 35 LINE",
"231 35 OFFCURVE",
"231 57 QCURVE SMOOTH",
"231 271 LINE",
"258 271 LINE SMOOTH",
"312 271 OFFCURVE",
"388 205 OFFCURVE",
"388 137 QCURVE SMOOTH",
"388 104 LINE SMOOTH",
"388 92 OFFCURVE",
"390 66 QCURVE SMOOTH",
"392 25 OFFCURVE",
"404 0 QCURVE",
"581 0 LINE",
"581 30 LINE",
"574 26 OFFCURVE",
"565 26 QCURVE SMOOTH",
"558 26 OFFCURVE",
"552 28 QCURVE",
"540 31 OFFCURVE",
"523 94 OFFCURVE",
"523 122 QCURVE SMOOTH",
"523 173 OFFCURVE",
"474 250 OFFCURVE",
"400 290 OFFCURVE",
"364 290 QCURVE",
"432 304 OFFCURVE",
"509 386 OFFCURVE",
"509 447 QCURVE SMOOTH",
"509 524 OFFCURVE",
"406 597 OFFCURVE",
"298 597 QCURVE SMOOTH",
"39 597 LINE",
"39 560 LINE",
"71 562 LINE SMOOTH",
"82 563 OFFCURVE",
"93 550 OFFCURVE",
"93 541 QCURVE SMOOTH",
"93 57 LINE SMOOTH",
"93 35 OFFCURVE",
"76 35 QCURVE SMOOTH",
"39 37 LINE"
);
},
{
closed = 1;
nodes = (
"231 306 LINE",
"231 552 LINE SMOOTH",
"231 562 OFFCURVE",
"243 562 QCURVE SMOOTH",
"275 562 LINE SMOOTH",
"325 562 OFFCURVE",
"373 501 OFFCURVE",
"373 434 QCURVE SMOOTH",
"373 375 OFFCURVE",
"330 306 OFFCURVE",
"294 306 QCURVE SMOOTH"
);
}
);
userData = {
assembly = "NPUSHB[ ]\011/* 82 values pushed */
32 1 0 6 28 1 4 0 2 74 0 3 9 6 9 3 6 126 11 1 9 0 6 0 9 6 103 10 1 1 1 2 93 0 2 2 17 75 7 1 0 0 5 93 8 1 5 5 21 75 0 4 4 5 93 8 1 5 5 21 5 76 47 46 54 51 46 56 47 56 17 34 39 18 24 21 33 21 48 12 7 29 
CALL[ ]\011/* CallFunction */";
};
width = 597;
}
);
note = R;
rightKerningGroup = R;
unicode = 0052;
},
{
glyphname = S;
layers = (
{
anchors = (
{
name = bottom;
position = "{251, 0}";
},
{
name = top;
position = "{250, 597}";
}
);
background = {
paths = (
{
closed = 1;
nodes = (
"48 203 LINE",
"56 177 OFFCURVE",
"56 96 QCURVE SMOOTH",
"56 34 OFFCURVE",
"52 13 QCURVE",
"57 14 OFFCURVE",
"77 18 OFFCURVE",
"86 18 QCURVE SMOOTH",
"112 18 OFFCURVE",
"165 3 QCURVE SMOOTH",
"191 -5 OFFCURVE",
"237 -10 OFFCURVE",
"268 -10 QCURVE SMOOTH",
"319 -10 OFFCURVE",
"406 35 OFFCURVE",
"457 116 OFFCURVE",
"457 168 QCURVE SMOOTH",
"457 227 OFFCURVE",
"392 302 OFFCURVE",
"316 333 QCURVE SMOOTH",
"224 370 LINE SMOOTH",
"184 386 OFFCURVE",
"138 439 OFFCURVE",
"138 472 QCURVE SMOOTH",
"138 523 OFFCURVE",
"202 580 OFFCURVE",
"254 580 QCURVE SMOOTH",
"318 580 OFFCURVE",
"403 499 OFFCURVE",
"403 434 QCURVE",
"429 434 LINE",
"425 445 OFFCURVE",
"423 471 OFFCURVE",
"423 501 QCURVE SMOOTH",
"423 552 OFFCURVE",
"426 576 QCURVE",
"415 572 OFFCURVE",
"397 572 QCURVE SMOOTH",
"386 572 OFFCURVE",
"370 578 QCURVE SMOOTH",
"362 581 OFFCURVE",
"318 596 OFFCURVE",
"273 607 OFFCURVE",
"241 607 QCURVE SMOOTH",
"182 607 OFFCURVE",
"98 562 OFFCURVE",
"56 486 OFFCURVE",
"56 441 QCURVE SMOOTH",
"56 391 OFFCURVE",
"112 317 OFFCURVE",
"166 295 QCURVE SMOOTH",
"268 254 LINE SMOOTH",
"314 236 OFFCURVE",
"367 177 OFFCURVE",
"367 138 QCURVE SMOOTH",
"366 84 OFFCURVE",
"307 18 OFFCURVE",
"257 18 QCURVE SMOOTH",
"96 18 OFFCURVE",
"73 203 QCURVE"
);
}
);
};
layerId = "3A4136D0-3900-4A7F-B896-13EBFCDD931C";
paths = (
{
closed = 1;
nodes = (
"48 203 LINE",
"56 177 OFFCURVE",
"56 96 QCURVE SMOOTH",
"56 34 OFFCURVE",
"52 13 QCURVE",
"57 14 OFFCURVE",
"77 18 OFFCURVE",
"86 18 QCURVE SMOOTH",
"113 18 OFFCURVE",
"165 3 QCURVE SMOOTH",
"209 -10 OFFCURVE",
"268 -10 QCURVE SMOOTH",
"319 -10 OFFCURVE",
"406 35 OFFCURVE",
"457 116 OFFCURVE",
"457 168 QCURVE SMOOTH",
"457 227 OFFCURVE",
"392 302 OFFCURVE",
"316 333 QCURVE SMOOTH",
"224 370 LINE SMOOTH",
"184 386 OFFCURVE",
"138 439 OFFCURVE",
"138 472 QCURVE SMOOTH",
"138 523 OFFCURVE",
"202 580 OFFCURVE",
"254 580 QCURVE SMOOTH",
"318 580 OFFCURVE",
"403 499 OFFCURVE",
"403 434 QCURVE",
"429 434 LINE",
"425 445 OFFCURVE",
"423 471 OFFCURVE",
"423 501 QCURVE SMOOTH",
"423 552 OFFCURVE",
"426 576 QCURVE",
"415 572 OFFCURVE",
"397 572 QCURVE SMOOTH",
"386 572 OFFCURVE",
"370 578 QCURVE SMOOTH",
"362 581 OFFCURVE",
"318 596 OFFCURVE",
"273 607 OFFCURVE",
"241 607 QCURVE SMOOTH",
"182 607 OFFCURVE",
"98 562 OFFCURVE",
"56 485 OFFCURVE",
"56 441 QCURVE SMOOTH",
"57 339 OFFCURVE",
"166 295 QCURVE SMOOTH",
"268 254 LINE SMOOTH",
"367 214 OFFCURVE",
"367 138 QCURVE SMOOTH",
"367 85 OFFCURVE",
"307 18 OFFCURVE",
"257 18 QCURVE SMOOTH",
"96 18 OFFCURVE",
"73 203 QCURVE"
);
}
);
userData = {
assembly = "PUSHB[ ]\011/* 6 values pushed */
24 1 2 4 1 74 
MPPEM[ ]\011/* MeasurePixelPerEm */
PUSHB[ ]\011/* 1 value pushed */
27 
LT[ ]\011/* LessThan */
IF[ ]\011/* If */
NPUSHB[ ]\011/* 43 values pushed */
8 1 7 3 6 3 7 6 126 0 2 0 3 7 2 3 101 0 4 4 1 95 0 1 1 25 75 0 6 6 21 75 0 0 0 5 95 0 5 5 26 5 76 
ELSE[ ]\011/* Else */
NPUSHB[ ]\011/* 45 values pushed */
8 1 7 3 6 3 7 6 126 0 6 0 3 6 0 124 0 2 0 3 7 2 3 101 0 4 4 1 95 0 1 1 25 75 0 0 0 5 95 0 5 5 26 5 76 
EIF[ ]\011/* EndIf */
NPUSHB[ ]\011/* 16 values pushed */
0 0 0 59 0 59 35 44 34 22 36 44 33 9 7 27 
CALL[ ]\011/* CallFunction */";
};
width = 494;
},
{
anchors = (
{
name = bottom;
position = "{259, 0}";
},
{
name = top;
position = "{258, 597}";
}
);
background = {
paths = (
{
closed = 1;
nodes = (
"41 200 LINE",
"49 160 OFFCURVE",
"49 90 QCURVE SMOOTH",
"49 34 OFFCURVE",
"45 13 QCURVE",
"49 15 OFFCURVE",
"74 18 OFFCURVE",
"83 18 QCURVE SMOOTH",
"104 18 OFFCURVE",
"161 3 QCURVE SMOOTH",
"212 -10 OFFCURVE",
"256 -10 QCURVE SMOOTH",
"326 -10 OFFCURVE",
"424 41 OFFCURVE",
"474 128 OFFCURVE",
"474 182 QCURVE SMOOTH",
"474 245 OFFCURVE",
"407 322 OFFCURVE",
"329 356 QCURVE SMOOTH",
"244 392 LINE SMOOTH",
"199 410 OFFCURVE",
"158 455 OFFCURVE",
"158 483 QCURVE SMOOTH",
"158 523 OFFCURVE",
"220 573 OFFCURVE",
"268 573 QCURVE SMOOTH",
"329 573 OFFCURVE",
"414 496 OFFCURVE",
"414 434 QCURVE",
"448 434 LINE",
"444 445 OFFCURVE",
"442 471 OFFCURVE",
"442 500 QCURVE SMOOTH",
"442 552 OFFCURVE",
"445 576 QCURVE",
"434 572 OFFCURVE",
"417 572 QCURVE SMOOTH",
"404 572 OFFCURVE",
"387 578 QCURVE",
"377 581 OFFCURVE",
"331 597 OFFCURVE",
"285 607 OFFCURVE",
"252 607 QCURVE SMOOTH",
"186 607 OFFCURVE",
"94 559 OFFCURVE",
"48 479 OFFCURVE",
"48 431 QCURVE SMOOTH",
"48 323 OFFCURVE",
"162 276 QCURVE SMOOTH",
"260 235 LINE SMOOTH",
"355 198 OFFCURVE",
"355 128 QCURVE SMOOTH",
"355 82 OFFCURVE",
"296 26 OFFCURVE",
"245 26 QCURVE SMOOTH",
"176 26 OFFCURVE",
"83 116 OFFCURVE",
"73 203 QCURVE"
);
}
);
};
layerId = "A0AC7266-FF1C-4B13-9E61-C3CFB2289D5A";
paths = (
{
closed = 1;
nodes = (
"41 200 LINE",
"49 160 OFFCURVE",
"49 90 QCURVE SMOOTH",
"49 34 OFFCURVE",
"45 13 QCURVE",
"49 15 OFFCURVE",
"74 18 OFFCURVE",
"83 18 QCURVE SMOOTH",
"104 18 OFFCURVE",
"161 3 QCURVE SMOOTH",
"212 -10 OFFCURVE",
"256 -10 QCURVE SMOOTH",
"326 -10 OFFCURVE",
"424 41 OFFCURVE",
"474 128 OFFCURVE",
"474 182 QCURVE SMOOTH",
"474 245 OFFCURVE",
"407 322 OFFCURVE",
"329 356 QCURVE SMOOTH",
"244 392 LINE SMOOTH",
"199 410 OFFCURVE",
"158 455 OFFCURVE",
"158 483 QCURVE SMOOTH",
"158 523 OFFCURVE",
"220 573 OFFCURVE",
"268 573 QCURVE SMOOTH",
"329 573 OFFCURVE",
"414 496 OFFCURVE",
"414 434 QCURVE",
"448 434 LINE",
"444 445 OFFCURVE",
"442 471 OFFCURVE",
"442 500 QCURVE SMOOTH",
"442 552 OFFCURVE",
"445 576 QCURVE",
"434 572 OFFCURVE",
"417 572 QCURVE SMOOTH",
"404 572 OFFCURVE",
"387 578 QCURVE",
"377 581 OFFCURVE",
"331 597 OFFCURVE",
"285 607 OFFCURVE",
"252 607 QCURVE SMOOTH",
"186 607 OFFCURVE",
"94 559 OFFCURVE",
"48 479 OFFCURVE",
"48 431 QCURVE SMOOTH",
"48 323 OFFCURVE",
"162 276 QCURVE SMOOTH",
"260 235 LINE SMOOTH",
"355 198 OFFCURVE",
"355 128 QCURVE SMOOTH",
"355 82 OFFCURVE",
"296 26 OFFCURVE",
"245 26 QCURVE SMOOTH",
"100 26 OFFCURVE",
"73 203 QCURVE"
);
}
);
userData = {
assembly = "PUSHB[ ]\011/* 6 values pushed */
23 1 4 1 1 74 
MPPEM[ ]\011/* MeasurePixelPerEm */
PUSHB[ ]\011/* 1 value pushed */
27 
LT[ ]\011/* LessThan */
IF[ ]\011/* If */
NPUSHB[ ]\011/* 34 values pushed */
0 2 0 3 0 2 3 101 0 4 4 1 95 0 1 1 25 75 0 6 6 21 75 0 0 0 5 95 0 5 5 26 5 76 
ELSE[ ]\011/* Else */
NPUSHB[ ]\011/* 37 values pushed */
0 6 0 5 0 6 5 126 0 2 0 3 0 2 3 101 0 4 4 1 95 0 1 1 25 75 0 0 0 5 95 0 5 5 26 5 76 
EIF[ ]\011/* EndIf */
NPUSHB[ ]\011/* 10 values pushed */
34 44 34 22 36 42 34 7 7 27 
CALL[ ]\011/* CallFunction */";
};
width = 498;
}
);
note = S;
unicode = 0053;
},
{
glyphname = Germandbls;
layers = (
{
layerId = "3A4136D0-3900-4A7F-B896-13EBFCDD931C";
paths = (
{
closed = 1;
nodes = (
"50 0 LINE",
"201 0 LINE",
"201 556 LINE",
"201 569 OFFCURVE",
"213 569 QCURVE SMOOTH",
"478 569 LINE",
"480 597 LINE",
"50 597 LINE",
"50 567 LINE",
"89 569 LINE",
"91 569 LINE SMOOTH",
"108 569 OFFCURVE",
"108 548 QCURVE SMOOTH",
"108 49 LINE SMOOTH",
"108 27 OFFCURVE",
"90 27 QCURVE",
"50 30 LINE"
);
},
{
closed = 1;
nodes = (
"270 340 LINE",
"270 319 LINE",
"381 315 OFFCURVE",
"463 244 OFFCURVE",
"463 179 QCURVE SMOOTH",
"463 94 OFFCURVE",
"412 17 OFFCURVE",
"370 17 QCURVE SMOOTH",
"331 17 OFFCURVE",
"311 49 OFFCURVE",
"311 77 QCURVE SMOOTH",
"311 91 OFFCURVE",
"316 102 QCURVE",
"321 114 OFFCURVE",
"321 126 QCURVE SMOOTH",
"321 143 OFFCURVE",
"296 165 OFFCURVE",
"274 165 QCURVE SMOOTH",
"250 165 OFFCURVE",
"225 138 OFFCURVE",
"225 115 QCURVE SMOOTH",
"225 61 OFFCURVE",
"305 -10 OFFCURVE",
"378 -10 QCURVE SMOOTH",
"453 -10 OFFCURVE",
"552 102 OFFCURVE",
"552 177 QCURVE SMOOTH",
"552 337 OFFCURVE",
"328 340 QCURVE"
);
},
{
closed = 1;
nodes = (
"300 325 LINE",
"504 569 LINE",
"480 597 LINE",
"270 340 LINE"
);
}
);
width = 582;
},
{
layerId = "A0AC7266-FF1C-4B13-9E61-C3CFB2289D5A";
paths = (
{
closed = 1;
nodes = (
"39 0 LINE",
"231 0 LINE",
"231 549 LINE",
"231 562 OFFCURVE",
"243 562 QCURVE SMOOTH",
"539 562 LINE",
"554 597 LINE",
"39 597 LINE",
"39 560 LINE",
"74 562 LINE",
"76 562 LINE SMOOTH",
"93 562 OFFCURVE",
"93 541 QCURVE SMOOTH",
"93 57 LINE SMOOTH",
"93 35 OFFCURVE",
"75 35 QCURVE",
"39 38 LINE"
);
},
{
closed = 1;
nodes = (
"327 340 LINE",
"327 308 LINE",
"442 299 OFFCURVE",
"519 226 OFFCURVE",
"519 161 QCURVE SMOOTH",
"519 116 OFFCURVE",
"477 25 OFFCURVE",
"430 25 QCURVE SMOOTH",
"407 25 OFFCURVE",
"378 52 OFFCURVE",
"378 78 QCURVE SMOOTH",
"378 90 OFFCURVE",
"383 103 QCURVE",
"387 119 OFFCURVE",
"387 126 QCURVE SMOOTH",
"387 149 OFFCURVE",
"354 177 OFFCURVE",
"327 177 QCURVE SMOOTH",
"294 177 OFFCURVE",
"258 140 OFFCURVE",
"258 111 QCURVE SMOOTH",
"258 46 OFFCURVE",
"358 -10 OFFCURVE",
"436 -10 QCURVE SMOOTH",
"547 -10 OFFCURVE",
"653 98 OFFCURVE",
"653 167 QCURVE SMOOTH",
"653 340 OFFCURVE",
"416 340 QCURVE SMOOTH"
);
},
{
closed = 1;
nodes = (
"369 325 LINE",
"583 562 LINE",
"554 597 LINE",
"327 340 LINE"
);
}
);
width = 668;
}
);
unicode = 1E9E;
},
{
glyphname = Schwa;
layers = (
{
layerId = "3A4136D0-3900-4A7F-B896-13EBFCDD931C";
paths = (
{
closed = 1;
nodes = (
"450 -10 OFFCURVE",
"593 147 OFFCURVE",
"593 299 QCURVE SMOOTH",
"593 606 OFFCURVE",
"318 606 QCURVE SMOOTH",
"239 606 OFFCURVE",
"106 529 OFFCURVE",
"78 462 QCURVE",
"110 438 LINE",
"132 490 OFFCURVE",
"229 560 OFFCURVE",
"299 560 QCURVE SMOOTH",
"397 560 OFFCURVE",
"492 433 OFFCURVE",
"492 295 QCURVE",
"62 295 LINE",
"62 255 LINE",
"65 131 OFFCURVE",
"194 -10 OFFCURVE",
"311 -10 QCURVE SMOOTH"
);
},
{
closed = 1;
nodes = (
"240 17 OFFCURVE",
"161 117 OFFCURVE",
"161 217 QCURVE SMOOTH",
"161 244 OFFCURVE",
"175 263 OFFCURVE",
"189 263 QCURVE SMOOTH",
"491 263 LINE",
"491 155 OFFCURVE",
"399 17 OFFCURVE",
"315 17 QCURVE SMOOTH"
);
}
);
width = 638;
},
{
layerId = "A0AC7266-FF1C-4B13-9E61-C3CFB2289D5A";
paths = (
{
closed = 1;
nodes = (
"459 -10 OFFCURVE",
"628 149 OFFCURVE",
"628 300 QCURVE SMOOTH",
"628 606 OFFCURVE",
"341 606 QCURVE SMOOTH",
"253 606 OFFCURVE",
"108 531 OFFCURVE",
"76 464 QCURVE",
"103 437 LINE",
"135 484 OFFCURVE",
"230 549 OFFCURVE",
"305 549 QCURVE SMOOTH",
"404 549 OFFCURVE",
"477 435 OFFCURVE",
"477 304 QCURVE",
"50 304 LINE",
"50 253 LINE",
"52 127 OFFCURVE",
"184 -10 OFFCURVE",
"310 -10 QCURVE SMOOTH"
);
},
{
closed = 1;
nodes = (
"241 25 OFFCURVE",
"190 127 OFFCURVE",
"190 213 QCURVE SMOOTH",
"190 239 OFFCURVE",
"204 259 OFFCURVE",
"218 259 QCURVE SMOOTH",
"476 259 LINE",
"476 160 OFFCURVE",
"411 25 OFFCURVE",
"323 25 QCURVE SMOOTH"
);
}
);
width = 658;
}
);
unicode = 018F;
},
{
glyphname = T;
layers = (
{
anchors = (
{
name = bottom;
position = "{265, 0}";
},
{
name = center;
position = "{265, 303}";
},
{
name = top;
position = "{265, 597}";
}
);
layerId = "3A4136D0-3900-4A7F-B896-13EBFCDD931C";
paths = (
{
closed = 1;
nodes = (
"15 444 LINE",
"41 444 LINE",
"41 509 OFFCURVE",
"99 570 OFFCURVE",
"165 570 QCURVE SMOOTH",
"206 570 LINE SMOOTH",
"218 570 OFFCURVE",
"218 558 QCURVE SMOOTH",
"218 52 LINE SMOOTH",
"218 42 OFFCURVE",
"208 27 OFFCURVE",
"199 27 QCURVE",
"145 29 LINE",
"145 0 LINE",
"384 0 LINE",
"384 29 LINE",
"331 27 LINE",
"311 27 OFFCURVE",
"311 49 QCURVE SMOOTH",
"311 559 LINE",
"313 570 OFFCURVE",
"323 570 QCURVE SMOOTH",
"365 570 LINE SMOOTH",
"431 570 OFFCURVE",
"488 509 OFFCURVE",
"488 444 QCURVE",
"514 444 LINE",
"514 600 LINE",
"506 598 OFFCURVE",
"474 598 QCURVE SMOOTH",
"55 598 LINE SMOOTH",
"29 598 OFFCURVE",
"15 600 QCURVE"
);
}
);
userData = {
assembly = "NPUSHB[ ]\011/* 11 values pushed */
13 1 1 2 1 74 5 0 2 0 72 
MPPEM[ ]\011/* MeasurePixelPerEm */
PUSHB[ ]\011/* 1 value pushed */
10 
LT[ ]\011/* LessThan */
IF[ ]\011/* If */
NPUSHB[ ]\011/* 31 values pushed */
7 1 1 2 3 2 1 112 6 1 2 2 0 93 0 0 0 17 75 5 1 3 3 4 93 0 4 4 21 4 76 
ELSE[ ]\011/* Else */
NPUSHB[ ]\011/* 32 values pushed */
7 1 1 2 3 2 1 3 126 6 1 2 2 0 93 0 0 0 17 75 5 1 3 3 4 93 0 4 4 21 4 76 
EIF[ ]\011/* EndIf */
NPUSHB[ ]\011/* 11 values pushed */
18 52 33 17 35 50 18 49 8 7 28 
CALL[ ]\011/* CallFunction */";
};
width = 529;
},
{
anchors = (
{
name = bottom;
position = "{273, 0}";
},
{
name = center;
position = "{273, 303}";
},
{
name = top;
position = "{273, 597}";
}
);
layerId = "A0AC7266-FF1C-4B13-9E61-C3CFB2289D5A";
paths = (
{
closed = 1;
nodes = (
"15 444 LINE",
"49 444 LINE",
"49 505 OFFCURVE",
"107 563 OFFCURVE",
"173 563 QCURVE SMOOTH",
"191 563 LINE SMOOTH",
"203 563 OFFCURVE",
"203 551 QCURVE SMOOTH",
"203 60 LINE SMOOTH",
"203 50 OFFCURVE",
"193 35 OFFCURVE",
"184 35 QCURVE",
"130 37 LINE",
"130 0 LINE",
"414 0 LINE",
"414 37 LINE",
"361 35 LINE",
"341 35 OFFCURVE",
"341 57 QCURVE SMOOTH",
"341 552 LINE",
"343 563 OFFCURVE",
"353 563 QCURVE SMOOTH",
"373 563 LINE SMOOTH",
"439 563 OFFCURVE",
"496 505 OFFCURVE",
"496 444 QCURVE",
"529 444 LINE",
"529 600 LINE",
"519 598 OFFCURVE",
"482 598 QCURVE SMOOTH",
"63 598 LINE SMOOTH",
"33 598 OFFCURVE",
"15 600 QCURVE"
);
}
);
userData = {
assembly = "NPUSHB[ ]\011/* 11 values pushed */
13 1 1 2 1 74 5 0 2 0 72 
MPPEM[ ]\011/* MeasurePixelPerEm */
PUSHB[ ]\011/* 1 value pushed */
10 
LT[ ]\011/* LessThan */
IF[ ]\011/* If */
NPUSHB[ ]\011/* 31 values pushed */
7 1 1 2 3 2 1 112 6 1 2 2 0 93 0 0 0 17 75 5 1 3 3 4 93 0 4 4 21 4 76 
ELSE[ ]\011/* Else */
NPUSHB[ ]\011/* 32 values pushed */
7 1 1 2 3 2 1 3 126 6 1 2 2 0 93 0 0 0 17 75 5 1 3 3 4 93 0 4 4 21 4 76 
EIF[ ]\011/* EndIf */
NPUSHB[ ]\011/* 11 values pushed */
18 52 33 17 35 50 18 49 8 7 28 
CALL[ ]\011/* CallFunction */";
};
width = 544;
}
);
leftKerningGroup = T;
note = T;
rightKerningGroup = T;
unicode = 0054;
},
{
glyphname = U;
layers = (
{
anchors = (
{
name = bottom;
position = "{359, 0}";
},
{
name = ogonek;
position = "{419, 0}";
},
{
name = top;
position = "{356, 597}";
},
{
name = topright;
position = "{493, 618}";
}
);
background = {
paths = (
{
closed = 1;
nodes = (
"35 567 LINE",
"73 569 LINE",
"81 570 OFFCURVE",
"92 557 OFFCURVE",
"92 548 QCURVE SMOOTH",
"92 199 LINE SMOOTH",
"92 97 OFFCURVE",
"222 -10 OFFCURVE",
"344 -10 QCURVE SMOOTH",
"408 -10 OFFCURVE",
"509 41 OFFCURVE",
"567 132 OFFCURVE",
"567 189 QCURVE SMOOTH",
"567 549 LINE SMOOTH",
"567 557 OFFCURVE",
"577 569 OFFCURVE",
"585 569 QCURVE SMOOTH",
"587 569 LINE",
"626 567 LINE",
"626 597 LINE",
"465 597 LINE",
"465 567 LINE",
"514 569 LINE",
"522 570 OFFCURVE",
"532 558 OFFCURVE",
"532 548 QCURVE SMOOTH",
"532 198 LINE SMOOTH",
"532 148 OFFCURVE",
"488 67 OFFCURVE",
"410 21 OFFCURVE",
"362 21 QCURVE SMOOTH",
"278 21 OFFCURVE",
"185 115 OFFCURVE",
"185 199 QCURVE SMOOTH",
"185 549 LINE SMOOTH",
"185 557 OFFCURVE",
"195 569 OFFCURVE",
"203 569 QCURVE SMOOTH",
"205 569 LINE",
"254 567 LINE",
"254 597 LINE",
"35 597 LINE"
);
}
);
};
layerId = "3A4136D0-3900-4A7F-B896-13EBFCDD931C";
paths = (
{
closed = 1;
nodes = (
"35 567 LINE",
"73 569 LINE",
"81 570 OFFCURVE",
"92 557 OFFCURVE",
"92 548 QCURVE SMOOTH",
"92 202 LINE SMOOTH",
"92 -10 OFFCURVE",
"344 -10 QCURVE SMOOTH",
"443 -10 OFFCURVE",
"567 106 OFFCURVE",
"567 189 QCURVE SMOOTH",
"567 549 LINE SMOOTH",
"567 557 OFFCURVE",
"577 569 OFFCURVE",
"585 569 QCURVE SMOOTH",
"587 569 LINE",
"626 567 LINE",
"626 597 LINE",
"465 597 LINE",
"465 567 LINE",
"514 569 LINE",
"522 570 OFFCURVE",
"532 558 OFFCURVE",
"532 548 QCURVE SMOOTH",
"532 198 LINE SMOOTH",
"532 123 OFFCURVE",
"436 21 OFFCURVE",
"362 21 QCURVE SMOOTH",
"278 21 OFFCURVE",
"185 115 OFFCURVE",
"185 199 QCURVE SMOOTH",
"185 549 LINE SMOOTH",
"185 557 OFFCURVE",
"195 569 OFFCURVE",
"203 569 QCURVE SMOOTH",
"205 569 LINE",
"254 567 LINE",
"254 597 LINE",
"35 597 LINE"
);
}
);
userData = {
assembly = "NPUSHB[ ]\011/* 36 values pushed */
7 5 3 3 1 1 0 93 4 1 0 0 17 75 0 2 2 6 95 0 6 6 26 6 76 22 38 49 17 23 37 49 16 8 7 28 
CALL[ ]\011/* CallFunction */";
};
width = 651;
},
{
anchors = (
{
name = bottom;
position = "{375, 0}";
},
{
name = ogonek;
position = "{440, 0}";
},
{
name = top;
position = "{372, 597}";
},
{
name = topright;
position = "{483, 620}";
}
);
layerId = "A0AC7266-FF1C-4B13-9E61-C3CFB2289D5A";
paths = (
{
closed = 1;
nodes = (
"35 560 LINE",
"73 562 LINE",
"81 563 OFFCURVE",
"92 550 OFFCURVE",
"92 541 QCURVE SMOOTH",
"92 199 LINE SMOOTH",
"92 -10 OFFCURVE",
"358 -10 QCURVE SMOOTH",
"467 -10 OFFCURVE",
"575 102 OFFCURVE",
"575 203 QCURVE SMOOTH",
"575 542 LINE SMOOTH",
"575 550 OFFCURVE",
"585 562 OFFCURVE",
"593 562 QCURVE SMOOTH",
"595 562 LINE",
"634 560 LINE",
"634 597 LINE",
"465 597 LINE",
"465 560 LINE",
"514 562 LINE",
"522 563 OFFCURVE",
"532 551 OFFCURVE",
"532 541 QCURVE SMOOTH",
"532 203 LINE SMOOTH",
"532 123 OFFCURVE",
"461 31 OFFCURVE",
"384 31 QCURVE SMOOTH",
"309 31 OFFCURVE",
"230 114 OFFCURVE",
"230 199 QCURVE SMOOTH",
"230 542 LINE SMOOTH",
"230 550 OFFCURVE",
"240 562 OFFCURVE",
"248 562 QCURVE SMOOTH",
"250 562 LINE",
"299 560 LINE",
"299 597 LINE",
"35 597 LINE"
);
}
);
userData = {
assembly = "NPUSHB[ ]\011/* 36 values pushed */
7 5 3 3 1 1 0 93 4 1 0 0 17 75 0 2 2 6 95 0 6 6 26 6 76 21 37 49 17 22 37 49 16 8 7 28 
CALL[ ]\011/* CallFunction */";
};
width = 659;
}
);
leftKerningGroup = U;
note = U;
rightKerningGroup = U;
unicode = 0055;
},
{
glyphname = Uhorn;
layers = (
{
anchors = (
{
name = bottom;
position = "{359, 0}";
},
{
name = top;
position = "{356, 597}";
}
);
layerId = "3A4136D0-3900-4A7F-B896-13EBFCDD931C";
paths = (
{
closed = 1;
nodes = (
"35 567 LINE",
"73 569 LINE",
"81 570 OFFCURVE",
"92 557 OFFCURVE",
"92 548 QCURVE SMOOTH",
"92 202 LINE SMOOTH",
"92 -10 OFFCURVE",
"344 -10 QCURVE SMOOTH",
"443 -10 OFFCURVE",
"567 106 OFFCURVE",
"567 189 QCURVE SMOOTH",
"567 597 LINE",
"465 597 LINE",
"465 567 LINE",
"514 569 LINE",
"522 570 OFFCURVE",
"532 558 OFFCURVE",
"532 548 QCURVE SMOOTH",
"532 198 LINE SMOOTH",
"532 123 OFFCURVE",
"436 21 OFFCURVE",
"362 21 QCURVE SMOOTH",
"278 21 OFFCURVE",
"185 115 OFFCURVE",
"185 199 QCURVE SMOOTH",
"185 549 LINE SMOOTH",
"185 557 OFFCURVE",
"195 569 OFFCURVE",
"203 569 QCURVE SMOOTH",
"205 569 LINE",
"254 567 LINE",
"254 597 LINE",
"35 597 LINE"
);
},
{
closed = 1;
nodes = (
"566 566 LINE",
"703 568 OFFCURVE",
"703 679 QCURVE SMOOTH",
"703 702 OFFCURVE",
"675 732 OFFCURVE",
"652 732 QCURVE SMOOTH",
"633 732 OFFCURVE",
"606 709 OFFCURVE",
"606 688 QCURVE SMOOTH",
"606 667 OFFCURVE",
"648 653 OFFCURVE",
"648 636 QCURVE SMOOTH",
"648 597 OFFCURVE",
"556 597 QCURVE"
);
}
);
width = 681;
},
{
anchors = (
{
name = bottom;
position = "{379, 0}";
},
{
name = top;
position = "{376, 597}";
}
);
layerId = "A0AC7266-FF1C-4B13-9E61-C3CFB2289D5A";
paths = (
{
closed = 1;
nodes = (
"35 560 LINE",
"73 562 LINE",
"81 563 OFFCURVE",
"92 550 OFFCURVE",
"92 541 QCURVE SMOOTH",
"92 199 LINE SMOOTH",
"92 -10 OFFCURVE",
"358 -10 QCURVE SMOOTH",
"467 -10 OFFCURVE",
"575 102 OFFCURVE",
"575 203 QCURVE SMOOTH",
"575 597 LINE",
"465 597 LINE",
"465 560 LINE",
"514 562 LINE",
"522 563 OFFCURVE",
"532 551 OFFCURVE",
"532 541 QCURVE SMOOTH",
"532 203 LINE SMOOTH",
"532 123 OFFCURVE",
"461 31 OFFCURVE",
"384 31 QCURVE SMOOTH",
"309 31 OFFCURVE",
"230 114 OFFCURVE",
"230 199 QCURVE SMOOTH",
"230 542 LINE SMOOTH",
"230 550 OFFCURVE",
"240 562 OFFCURVE",
"248 562 QCURVE SMOOTH",
"250 562 LINE",
"299 560 LINE",
"299 597 LINE",
"35 597 LINE"
);
},
{
closed = 1;
nodes = (
"570 558 LINE",
"714 560 OFFCURVE",
"714 691 QCURVE SMOOTH",
"714 718 OFFCURVE",
"682 753 OFFCURVE",
"655 753 QCURVE SMOOTH",
"633 753 OFFCURVE",
"600 727 OFFCURVE",
"600 702 QCURVE SMOOTH",
"600 677 OFFCURVE",
"639 660 OFFCURVE",
"639 641 QCURVE SMOOTH",
"639 597 OFFCURVE",
"558 597 QCURVE"
);
}
);
width = 689;
}
);
unicode = 01AF;
},
{
glyphname = V;
layers = (
{
layerId = "3A4136D0-3900-4A7F-B896-13EBFCDD931C";
paths = (
{
closed = 1;
nodes = (
"447 597 LINE",
"447 567 LINE",
"498 569 LINE",
"510 569 OFFCURVE",
"510 558 QCURVE SMOOTH",
"510 552 OFFCURVE",
"503 534 QCURVE SMOOTH",
"329 129 LINE",
"148 545 LINE",
"146 551 OFFCURVE",
"146 554 QCURVE SMOOTH",
"146 560 OFFCURVE",
"152 569 OFFCURVE",
"157 569 QCURVE",
"210 567 LINE",
"210 597 LINE",
"-5 597 LINE",
"-5 567 LINE",
"23 569 LINE",
"35 569 OFFCURVE",
"46 546 QCURVE",
"283 -4 LINE",
"309 -4 LINE",
"547 546 LINE SMOOTH",
"553 560 OFFCURVE",
"560 570 OFFCURVE",
"568 569 QCURVE",
"604 567 LINE",
"604 597 LINE"
);
}
);
userData = {
assembly = "NPUSHB[ ]\011/* 43 values pushed */
21 11 2 1 0 1 74 5 4 2 3 0 0 3 93 7 6 2 3 3 17 75 0 1 1 18 1 76 0 0 0 28 0 28 42 17 18 18 20 17 8 7 26 
CALL[ ]\011/* CallFunction */";
};
width = 584;
},
{
layerId = "A0AC7266-FF1C-4B13-9E61-C3CFB2289D5A";
paths = (
{
closed = 1;
nodes = (
"466 597 LINE",
"466 560 LINE",
"514 562 LINE",
"526 562 OFFCURVE",
"526 551 QCURVE SMOOTH",
"526 542 OFFCURVE",
"519 527 QCURVE SMOOTH",
"359 159 LINE",
"195 538 LINE",
"193 544 OFFCURVE",
"193 547 QCURVE SMOOTH",
"193 553 OFFCURVE",
"199 562 OFFCURVE",
"204 562 QCURVE",
"254 560 LINE",
"254 597 LINE",
"-2 597 LINE",
"-2 560 LINE",
"26 562 LINE",
"38 562 OFFCURVE",
"49 539 QCURVE",
"283 -4 LINE",
"335 -4 LINE",
"570 539 LINE SMOOTH",
"576 553 OFFCURVE",
"583 563 OFFCURVE",
"591 562 QCURVE",
"627 560 LINE",
"627 597 LINE"
);
}
);
userData = {
assembly = "NPUSHB[ ]\011/* 43 values pushed */
21 11 2 1 0 1 74 5 4 2 3 0 0 3 93 7 6 2 3 3 17 75 0 1 1 18 1 76 0 0 0 28 0 28 42 17 18 18 20 17 8 7 26 
CALL[ ]\011/* CallFunction */";
};
width = 607;
}
);
leftKerningGroup = V;
note = V;
rightKerningGroup = V;
unicode = 0056;
},
{
glyphname = W;
layers = (
{
anchors = (
{
name = top;
position = "{467, 597}";
}
);
background = {
paths = (
{
closed = 1;
nodes = (
"751 597 LINE",
"751 567 LINE",
"803 569 LINE",
"809 570 OFFCURVE",
"816 563 OFFCURVE",
"816 557 QCURVE",
"814 549 LINE",
"684 143 LINE",
"521 547 LINE SMOOTH",
"518 554 OFFCURVE",
"523 569 OFFCURVE",
"531 569 QCURVE",
"573 567 LINE",
"573 597 LINE",
"365 597 LINE",
"365 567 LINE",
"406 569 LINE",
"414 570 OFFCURVE",
"423 564 OFFCURVE",
"427 556 QCURVE",
"297 155 LINE",
"148 547 LINE",
"145 558 LINE",
"145 564 OFFCURVE",
"151 569 OFFCURVE",
"158 569 QCURVE",
"211 567 LINE",
"211 597 LINE",
"-5 597 LINE",
"-5 567 LINE",
"25 569 LINE",
"39 569 OFFCURVE",
"46 547 QCURVE",
"257 -10 LINE",
"276 -10 LINE",
"446 509 LINE",
"652 -10 LINE",
"668 -10 LINE",
"849 548 LINE",
"853 561 OFFCURVE",
"865 570 OFFCURVE",
"874 569 QCURVE",
"904 567 LINE",
"904 597 LINE"
);
}
);
};
layerId = "3A4136D0-3900-4A7F-B896-13EBFCDD931C";
paths = (
{
closed = 1;
nodes = (
"751 597 LINE",
"751 567 LINE",
"803 569 LINE",
"809 570 OFFCURVE",
"816 563 OFFCURVE",
"816 557 QCURVE",
"814 549 LINE",
"684 143 LINE",
"501 597 LINE SMOOTH",
"440 597 LINE",
"297 155 LINE",
"148 547 LINE",
"145 558 LINE",
"145 564 OFFCURVE",
"151 569 OFFCURVE",
"158 569 QCURVE",
"211 567 LINE",
"211 597 LINE",
"-5 597 LINE",
"-5 567 LINE",
"25 569 LINE",
"39 569 OFFCURVE",
"46 547 QCURVE",
"257 -10 LINE",
"276 -10 LINE",
"446 509 LINE",
"652 -10 LINE",
"668 -10 LINE",
"849 548 LINE",
"853 561 OFFCURVE",
"865 570 OFFCURVE",
"874 569 QCURVE",
"904 567 LINE",
"904 597 LINE"
);
}
);
userData = {
assembly = "NPUSHB[ ]\011/* 53 values pushed */
36 23 8 3 1 0 1 74 9 8 6 5 3 5 0 0 4 93 11 10 7 3 4 4 17 75 2 1 1 1 18 1 76 0 0 0 43 0 43 42 40 17 17 25 17 17 34 18 20 17 12 7 29 
CALL[ ]\011/* CallFunction */";
};
width = 884;
},
{
anchors = (
{
name = top;
position = "{488, 597}";
}
);
background = {
paths = (
{
closed = 1;
nodes = (
"771 597 LINE",
"771 560 LINE",
"823 562 LINE",
"829 563 OFFCURVE",
"836 556 OFFCURVE",
"836 550 QCURVE",
"834 542 LINE",
"705 159 LINE",
"565 540 LINE",
"562 547 OFFCURVE",
"567 562 OFFCURVE",
"575 562 QCURVE",
"617 560 LINE",
"617 597 LINE",
"370 597 LINE",
"370 560 LINE",
"411 562 LINE",
"422 562 OFFCURVE",
"431 548 OFFCURVE",
"439 526 QCURVE",
"321 182 LINE",
"192 540 LINE",
"189 551 LINE",
"189 557 OFFCURVE",
"195 562 OFFCURVE",
"202 562 QCURVE",
"252 560 LINE",
"252 597 LINE",
"-3 597 LINE",
"-3 560 LINE",
"27 562 LINE",
"41 562 OFFCURVE",
"48 540 QCURVE",
"250 -10 LINE",
"299 -10 LINE",
"461 468 LINE",
"645 -10 LINE",
"691 -10 LINE",
"876 541 LINE SMOOTH",
"879 549 OFFCURVE",
"892 563 OFFCURVE",
"901 562 QCURVE",
"931 560 LINE",
"931 597 LINE"
);
}
);
};
layerId = "A0AC7266-FF1C-4B13-9E61-C3CFB2289D5A";
paths = (
{
closed = 1;
nodes = (
"771 597 LINE",
"771 560 LINE",
"823 562 LINE",
"829 563 OFFCURVE",
"836 556 OFFCURVE",
"836 550 QCURVE",
"834 542 LINE",
"705 159 LINE",
"544 597 LINE",
"463 597 LINE",
"321 182 LINE",
"192 540 LINE",
"189 551 LINE",
"189 557 OFFCURVE",
"195 562 OFFCURVE",
"202 562 QCURVE",
"252 560 LINE",
"252 597 LINE",
"-3 597 LINE",
"-3 560 LINE",
"27 562 LINE",
"41 562 OFFCURVE",
"48 540 QCURVE",
"250 -10 LINE",
"299 -10 LINE",
"461 468 LINE",
"645 -10 LINE",
"691 -10 LINE",
"876 541 LINE SMOOTH",
"879 549 OFFCURVE",
"892 563 OFFCURVE",
"901 562 QCURVE",
"931 560 LINE",
"931 597 LINE"
);
}
);
userData = {
assembly = "NPUSHB[ ]\011/* 54 values pushed */
37 24 23 8 4 1 0 1 74 9 8 6 5 3 5 0 0 4 93 11 10 7 3 4 4 17 75 2 1 1 1 18 1 76 0 0 0 44 0 44 43 41 17 17 26 17 17 34 18 20 17 12 7 29 
CALL[ ]\011/* CallFunction */";
};
width = 911;
}
);
leftKerningGroup = V;
note = W;
rightKerningGroup = V;
unicode = 0057;
},
{
glyphname = X;
layers = (
{
layerId = "3A4136D0-3900-4A7F-B896-13EBFCDD931C";
paths = (
{
closed = 1;
nodes = (
"539 27 LINE SMOOTH",
"519 26 OFFCURVE",
"509 44 QCURVE SMOOTH",
"340 328 LINE",
"478 549 LINE",
"492 569 OFFCURVE",
"509 569 QCURVE",
"540 567 LINE",
"540 597 LINE",
"388 597 LINE",
"388 567 LINE",
"431 569 LINE SMOOTH",
"444 570 OFFCURVE",
"444 561 QCURVE SMOOTH",
"444 556 OFFCURVE",
"439 549 QCURVE",
"320 361 LINE",
"211 548 LINE SMOOTH",
"208 553 OFFCURVE",
"208 557 QCURVE SMOOTH",
"208 562 OFFCURVE",
"216 569 OFFCURVE",
"223 569 QCURVE SMOOTH",
"225 569 LINE",
"267 567 LINE",
"267 597 LINE",
"39 597 LINE",
"39 567 LINE",
"71 569 LINE",
"93 569 OFFCURVE",
"103 550 QCURVE",
"254 296 LINE",
"100 50 LINE SMOOTH",
"87 28 OFFCURVE",
"66 28 QCURVE",
"30 30 LINE",
"30 0 LINE",
"189 0 LINE",
"189 30 LINE",
"144 27 LINE",
"140 26 OFFCURVE",
"135 32 OFFCURVE",
"135 36 QCURVE SMOOTH",
"135 41 OFFCURVE",
"138 47 QCURVE",
"273 262 LINE",
"399 50 LINE",
"404 44 OFFCURVE",
"404 36 QCURVE SMOOTH",
"404 27 OFFCURVE",
"394 27 QCURVE SMOOTH",
"392 27 LINE",
"343 30 LINE",
"343 0 LINE",
"578 0 LINE",
"578 30 LINE"
);
}
);
userData = {
assembly = "NPUSHB[ ]\011/* 56 values pushed */
52 39 24 17 10 7 0 7 1 4 1 74 9 7 6 3 4 4 5 93 8 1 5 5 17 75 10 3 2 1 1 0 93 2 1 0 0 21 0 76 55 54 50 48 17 26 49 17 36 33 28 49 17 11 7 29 
CALL[ ]\011/* CallFunction */";
};
width = 566;
},
{
layerId = "A0AC7266-FF1C-4B13-9E61-C3CFB2289D5A";
paths = (
{
closed = 1;
nodes = (
"562 34 LINE",
"543 31 OFFCURVE",
"532 51 QCURVE",
"364 330 LINE",
"496 542 LINE SMOOTH",
"508 562 OFFCURVE",
"527 562 QCURVE",
"562 560 LINE",
"562 597 LINE",
"399 597 LINE",
"399 560 LINE",
"442 562 LINE SMOOTH",
"455 563 OFFCURVE",
"455 554 QCURVE SMOOTH",
"455 549 OFFCURVE",
"450 542 QCURVE",
"342 372 LINE",
"246 541 LINE SMOOTH",
"243 546 OFFCURVE",
"243 550 QCURVE SMOOTH",
"243 555 OFFCURVE",
"251 562 OFFCURVE",
"258 562 QCURVE SMOOTH",
"260 562 LINE",
"302 560 LINE",
"302 597 LINE",
"32 597 LINE",
"32 560 LINE",
"57 562 LINE",
"78 562 OFFCURVE",
"89 543 QCURVE SMOOTH",
"237 293 LINE",
"90 58 LINE SMOOTH",
"77 36 OFFCURVE",
"56 36 QCURVE",
"20 38 LINE",
"20 0 LINE",
"186 0 LINE",
"186 38 LINE",
"141 35 LINE",
"137 34 OFFCURVE",
"132 40 OFFCURVE",
"132 44 QCURVE SMOOTH",
"132 49 OFFCURVE",
"135 55 QCURVE",
"258 250 LINE",
"373 57 LINE SMOOTH",
"378 49 OFFCURVE",
"378 42 QCURVE SMOOTH",
"378 34 OFFCURVE",
"368 34 QCURVE SMOOTH",
"366 34 LINE",
"317 37 LINE",
"317 0 LINE",
"593 0 LINE",
"593 37 LINE"
);
}
);
userData = {
assembly = "NPUSHB[ ]\011/* 53 values pushed */
52 39 28 24 17 10 0 7 1 4 1 74 9 7 6 3 4 4 5 93 8 1 5 5 17 75 3 1 1 1 0 93 2 1 0 0 21 0 76 50 48 17 26 49 18 20 33 28 49 17 10 7 29 
CALL[ ]\011/* CallFunction */";
};
width = 585;
}
);
note = X;
unicode = 0058;
},
{
glyphname = Y;
layers = (
{
anchors = (
{
name = bottom;
position = "{267, 0}";
},
{
name = top;
position = "{266, 597}";
}
);
layerId = "3A4136D0-3900-4A7F-B896-13EBFCDD931C";
paths = (
{
closed = 1;
nodes = (
"365 597 LINE",
"365 567 LINE",
"417 569 LINE",
"427 569 OFFCURVE",
"427 559 QCURVE SMOOTH",
"427 554 OFFCURVE",
"424 549 QCURVE SMOOTH",
"293 317 LINE",
"156 545 LINE SMOOTH",
"151 553 OFFCURVE",
"151 559 QCURVE SMOOTH",
"151 569 OFFCURVE",
"162 569 QCURVE SMOOTH",
"163 569 LINE",
"216 567 LINE",
"216 597 LINE",
"-5 597 LINE",
"-5 567 LINE",
"23 569 LINE",
"37 569 OFFCURVE",
"47 550 QCURVE",
"220 263 LINE",
"220 49 LINE SMOOTH",
"220 27 OFFCURVE",
"201 27 QCURVE",
"152 29 LINE",
"152 0 LINE",
"381 0 LINE",
"381 29 LINE",
"333 27 LINE",
"313 27 OFFCURVE",
"313 48 QCURVE SMOOTH",
"313 287 LINE",
"459 548 LINE SMOOTH",
"471 569 OFFCURVE",
"487 569 QCURVE",
"517 567 LINE",
"517 597 LINE"
);
}
);
userData = {
assembly = "NPUSHB[ ]\011/* 55 values pushed */
33 30 27 20 16 5 6 1 0 1 74 7 6 4 3 0 0 5 93 9 8 2 5 5 17 75 3 1 1 1 2 93 0 2 2 21 2 76 0 0 0 37 0 37 40 49 18 20 33 17 36 33 10 7 28 
CALL[ ]\011/* CallFunction */";
};
width = 507;
},
{
anchors = (
{
name = bottom;
position = "{295, 0}";
},
{
name = top;
position = "{294, 597}";
}
);
layerId = "A0AC7266-FF1C-4B13-9E61-C3CFB2289D5A";
paths = (
{
closed = 1;
nodes = (
"409 597 LINE",
"409 560 LINE",
"461 562 LINE",
"471 562 OFFCURVE",
"471 552 QCURVE SMOOTH",
"471 547 OFFCURVE",
"468 542 QCURVE SMOOTH",
"342 317 LINE",
"209 538 LINE SMOOTH",
"204 546 OFFCURVE",
"204 552 QCURVE SMOOTH",
"204 562 OFFCURVE",
"215 562 QCURVE SMOOTH",
"216 562 LINE",
"269 560 LINE",
"269 597 LINE",
"-1 597 LINE",
"-1 560 LINE",
"28 562 LINE",
"40 562 OFFCURVE",
"52 543 QCURVE SMOOTH",
"224 256 LINE",
"224 57 LINE SMOOTH",
"224 35 OFFCURVE",
"205 35 QCURVE",
"156 37 LINE",
"156 0 LINE",
"430 0 LINE",
"430 37 LINE",
"382 35 LINE",
"362 35 OFFCURVE",
"362 56 QCURVE SMOOTH",
"362 275 LINE",
"511 541 LINE SMOOTH",
"523 562 OFFCURVE",
"539 562 QCURVE",
"569 560 LINE",
"569 597 LINE"
);
}
);
userData = {
assembly = "NPUSHB[ ]\011/* 54 values pushed */
33 30 27 16 5 5 1 0 1 74 7 6 4 3 0 0 5 93 9 8 2 5 5 17 75 3 1 1 1 2 93 0 2 2 21 2 76 0 0 0 37 0 37 40 49 17 36 33 17 36 33 10 7 28 
CALL[ ]\011/* CallFunction */";
};
width = 559;
}
);
leftKerningGroup = Y;
note = Y;
rightKerningGroup = Y;
unicode = 0059;
},
{
glyphname = Z;
layers = (
{
anchors = (
{
name = top;
position = "{247, 597}";
}
);
layerId = "3A4136D0-3900-4A7F-B896-13EBFCDD931C";
paths = (
{
closed = 1;
nodes = (
"465 167 LINE",
"465 102 OFFCURVE",
"384 27 OFFCURVE",
"315 27 QCURVE SMOOTH",
"141 27 LINE",
"464 573 LINE",
"464 597 LINE",
"144 597 LINE SMOOTH",
"122 597 OFFCURVE",
"86 599 QCURVE",
"35 600 LINE",
"35 443 LINE",
"62 443 LINE",
"62 508 OFFCURVE",
"131 569 OFFCURVE",
"203 569 QCURVE SMOOTH",
"355 569 LINE",
"34 27 LINE",
"34 0 LINE",
"371 0 LINE SMOOTH",
"472 0 OFFCURVE",
"484 -4 QCURVE",
"492 167 LINE"
);
}
);
userData = {
assembly = "NPUSHB[ ]\011/* 15 values pushed */
17 1 1 3 1 74 5 1 4 1 73 1 1 0 71 
MPPEM[ ]\011/* MeasurePixelPerEm */
PUSHB[ ]\011/* 1 value pushed */
10 
LT[ ]\011/* LessThan */
IF[ ]\011/* If */
NPUSHB[ ]\011/* 36 values pushed */
0 2 1 5 1 2 112 6 1 5 4 1 5 4 124 0 1 1 3 93 0 3 3 17 75 0 4 4 0 94 0 0 0 21 0 76 
ELSE[ ]\011/* Else */
NPUSHB[ ]\011/* 37 values pushed */
0 2 1 5 1 2 5 126 6 1 5 4 1 5 4 124 0 1 1 3 93 0 3 3 17 75 0 4 4 0 94 0 0 0 21 0 76 
EIF[ ]\011/* EndIf */
NPUSHB[ ]\011/* 14 values pushed */
0 0 0 22 0 22 34 65 18 34 34 7 7 25 
CALL[ ]\011/* CallFunction */";
};
width = 512;
},
{
anchors = (
{
name = top;
position = "{279, 597}";
}
);
layerId = "A0AC7266-FF1C-4B13-9E61-C3CFB2289D5A";
paths = (
{
closed = 1;
nodes = (
"492 167 LINE",
"492 105 OFFCURVE",
"411 35 OFFCURVE",
"342 35 QCURVE SMOOTH",
"201 35 LINE",
"517 573 LINE",
"517 597 LINE",
"164 597 LINE SMOOTH",
"135 597 OFFCURVE",
"93 599 QCURVE SMOOTH",
"55 600 LINE",
"55 443 LINE",
"89 443 LINE",
"89 504 OFFCURVE",
"158 562 OFFCURVE",
"230 562 QCURVE SMOOTH",
"350 562 LINE",
"31 27 LINE",
"31 0 LINE",
"406 0 LINE SMOOTH",
"507 0 OFFCURVE",
"519 -4 QCURVE",
"527 167 LINE"
);
}
);
userData = {
assembly = "NPUSHB[ ]\011/* 14 values pushed */
17 1 1 3 5 1 0 4 2 74 1 1 0 71 
MPPEM[ ]\011/* MeasurePixelPerEm */
PUSHB[ ]\011/* 1 value pushed */
10 
LT[ ]\011/* LessThan */
IF[ ]\011/* If */
NPUSHB[ ]\011/* 35 values pushed */
0 2 1 5 1 2 112 6 1 5 4 4 5 110 0 1 1 3 93 0 3 3 17 75 0 4 4 0 94 0 0 0 21 0 76 
ELSE[ ]\011/* Else */
NPUSHB[ ]\011/* 37 values pushed */
0 2 1 5 1 2 5 126 6 1 5 4 1 5 4 124 0 1 1 3 93 0 3 3 17 75 0 4 4 0 94 0 0 0 21 0 76 
EIF[ ]\011/* EndIf */
NPUSHB[ ]\011/* 14 values pushed */
0 0 0 22 0 22 34 65 18 34 34 7 7 25 
CALL[ ]\011/* CallFunction */";
};
width = 547;
}
);
note = Z;
unicode = 005A;
},
{
glyphname = a;
layers = (
{
anchors = (
{
name = bottom;
position = "{208, 0}";
},
{
name = ogonek;
position = "{344, 0}";
},
{
name = top;
position = "{221, 420}";
}
);
background = {
paths = (
{
closed = 1;
nodes = (
"393 24 LINE",
"380 24 OFFCURVE",
"380 43 QCURVE SMOOTH",
"380 289 LINE SMOOTH",
"380 430 OFFCURVE",
"213 430 QCURVE SMOOTH",
"139 430 OFFCURVE",
"51 378 OFFCURVE",
"51 336 QCURVE SMOOTH",
"51 315 OFFCURVE",
"74 289 OFFCURVE",
"95 289 QCURVE SMOOTH",
"112 289 OFFCURVE",
"134 306 OFFCURVE",
"134 323 QCURVE SMOOTH",
"134 332 OFFCURVE",
"125 353 OFFCURVE",
"125 361 QCURVE SMOOTH",
"125 403 OFFCURVE",
"201 403 QCURVE SMOOTH",
"250 403 OFFCURVE",
"294 363 OFFCURVE",
"294 316 QCURVE SMOOTH",
"294 258 LINE",
"156 258 OFFCURVE",
"27 185 OFFCURVE",
"27 108 QCURVE SMOOTH",
"27 52 OFFCURVE",
"92 -5 OFFCURVE",
"155 -5 QCURVE SMOOTH",
"203 -5 OFFCURVE",
"272 33 OFFCURVE",
"294 76 QCURVE",
"292 37 LINE",
"292 30 OFFCURVE",
"289 7 OFFCURVE",
"288 0 QCURVE",
"430 0 LINE",
"430 26 LINE"
);
},
{
closed = 1;
nodes = (
"153 31 OFFCURVE",
"118 74 OFFCURVE",
"118 116 QCURVE SMOOTH",
"118 176 OFFCURVE",
"200 231 OFFCURVE",
"294 231 QCURVE",
"294 162 LINE",
"291 104 OFFCURVE",
"229 31 OFFCURVE",
"185 31 QCURVE SMOOTH"
);
}
);
};
layerId = "3A4136D0-3900-4A7F-B896-13EBFCDD931C";
paths = (
{
closed = 1;
nodes = (
"393 24 LINE",
"380 24 OFFCURVE",
"380 43 QCURVE SMOOTH",
"380 289 LINE SMOOTH",
"380 430 OFFCURVE",
"213 430 QCURVE SMOOTH",
"139 430 OFFCURVE",
"51 378 OFFCURVE",
"51 336 QCURVE SMOOTH",
"51 315 OFFCURVE",
"74 289 OFFCURVE",
"95 289 QCURVE SMOOTH",
"112 289 OFFCURVE",
"134 306 OFFCURVE",
"134 323 QCURVE SMOOTH",
"134 332 OFFCURVE",
"125 353 OFFCURVE",
"125 361 QCURVE SMOOTH",
"125 403 OFFCURVE",
"201 403 QCURVE SMOOTH",
"250 403 OFFCURVE",
"294 363 OFFCURVE",
"294 316 QCURVE SMOOTH",
"294 253 LINE",
"156 253 OFFCURVE",
"27 180 OFFCURVE",
"27 103 QCURVE SMOOTH",
"27 47 OFFCURVE",
"92 -10 OFFCURVE",
"155 -10 QCURVE SMOOTH",
"254 -10 OFFCURVE",
"294 76 QCURVE",
"292 37 LINE",
"292 20 OFFCURVE",
"288 0 QCURVE",
"430 0 LINE",
"430 26 LINE"
);
},
{
closed = 1;
nodes = (
"118 21 OFFCURVE",
"118 111 QCURVE SMOOTH",
"118 172 OFFCURVE",
"200 226 OFFCURVE",
"294 226 QCURVE",
"294 162 LINE",
"291 104 OFFCURVE",
"229 26 OFFCURVE",
"185 26 QCURVE SMOOTH"
);
}
);
userData = {
assembly = "NPUSHB[ ]\011/* 82 values pushed */
21 1 4 3 6 1 8 7 2 74 0 4 3 2 3 4 2 126 0 2 0 7 8 2 7 103 0 3 3 5 95 0 5 5 28 75 9 1 6 6 0 93 0 0 0 21 75 10 1 8 8 1 95 0 1 1 18 1 76 39 39 0 0 39 48 39 47 43 42 0 38 0 37 36 38 35 20 38 17 11 7 26 
CALL[ ]\011/* CallFunction */";
};
width = 450;
},
{
anchors = (
{
name = bottom;
position = "{213, 0}";
},
{
name = ogonek;
position = "{349, 0}";
},
{
name = top;
position = "{226, 425}";
}
);
background = {
paths = (
{
closed = 1;
nodes = (
"423 32 LINE",
"410 32 OFFCURVE",
"410 51 QCURVE SMOOTH",
"410 302 LINE SMOOTH",
"410 435 OFFCURVE",
"224 435 QCURVE SMOOTH",
"139 435 OFFCURVE",
"39 377 OFFCURVE",
"39 329 QCURVE SMOOTH",
"39 304 OFFCURVE",
"74 271 OFFCURVE",
"102 271 QCURVE SMOOTH",
"126 271 OFFCURVE",
"157 295 OFFCURVE",
"157 317 QCURVE SMOOTH",
"157 323 OFFCURVE",
"153 337 QCURVE",
"148 347 OFFCURVE",
"148 360 QCURVE SMOOTH",
"148 377 OFFCURVE",
"177 401 OFFCURVE",
"212 401 QCURVE SMOOTH",
"253 401 OFFCURVE",
"279 359 OFFCURVE",
"279 321 QCURVE SMOOTH",
"279 251 LINE",
"141 251 OFFCURVE",
"13 181 OFFCURVE",
"13 108 QCURVE SMOOTH",
"13 52 OFFCURVE",
"78 -5 OFFCURVE",
"141 -5 QCURVE SMOOTH",
"235 -5 OFFCURVE",
"279 64 QCURVE",
"278 37 LINE",
"278 24 OFFCURVE",
"274 0 QCURVE",
"456 0 LINE",
"456 34 LINE"
);
},
{
closed = 1;
nodes = (
"149 54 OFFCURVE",
"149 120 QCURVE SMOOTH",
"149 168 OFFCURVE",
"211 216 OFFCURVE",
"279 216 QCURVE",
"279 150 LINE",
"274 107 OFFCURVE",
"229 54 OFFCURVE",
"198 54 QCURVE SMOOTH"
);
}
);
};
layerId = "A0AC7266-FF1C-4B13-9E61-C3CFB2289D5A";
paths = (
{
closed = 1;
nodes = (
"423 32 LINE",
"410 32 OFFCURVE",
"410 51 QCURVE SMOOTH",
"410 302 LINE SMOOTH",
"410 435 OFFCURVE",
"224 435 QCURVE SMOOTH",
"139 435 OFFCURVE",
"39 377 OFFCURVE",
"39 329 QCURVE SMOOTH",
"39 304 OFFCURVE",
"74 271 OFFCURVE",
"102 271 QCURVE SMOOTH",
"126 271 OFFCURVE",
"157 295 OFFCURVE",
"157 317 QCURVE SMOOTH",
"157 323 OFFCURVE",
"148 346 OFFCURVE",
"148 359 QCURVE SMOOTH",
"148 401 OFFCURVE",
"212 401 QCURVE SMOOTH",
"253 401 OFFCURVE",
"279 359 OFFCURVE",
"279 321 QCURVE SMOOTH",
"279 246 LINE",
"141 246 OFFCURVE",
"13 176 OFFCURVE",
"13 103 QCURVE SMOOTH",
"13 47 OFFCURVE",
"78 -10 OFFCURVE",
"141 -10 QCURVE SMOOTH",
"235 -10 OFFCURVE",
"279 62 QCURVE",
"278 37 LINE",
"278 24 OFFCURVE",
"274 0 QCURVE",
"456 0 LINE",
"456 34 LINE"
);
},
{
closed = 1;
nodes = (
"149 49 OFFCURVE",
"149 115 QCURVE SMOOTH",
"149 163 OFFCURVE",
"211 211 OFFCURVE",
"279 211 QCURVE",
"279 148 LINE",
"274 105 OFFCURVE",
"229 54 OFFCURVE",
"198 54 QCURVE SMOOTH"
);
}
);
userData = {
assembly = "PUSHB[ ]\011/* 7 values pushed */
41 5 2 8 7 1 74 
MPPEM[ ]\011/* MeasurePixelPerEm */
PUSHB[ ]\011/* 1 value pushed */
10 
LT[ ]\011/* LessThan */
IF[ ]\011/* If */
NPUSHB[ ]\011/* 51 values pushed */
0 4 3 2 3 4 2 126 0 2 0 7 8 2 7 103 0 3 3 5 95 0 5 5 28 75 10 1 8 8 0 95 1 1 0 0 21 75 9 1 6 6 0 95 1 1 0 0 21 0 76 
ELSE[ ]\011/* Else */
MPPEM[ ]\011/* MeasurePixelPerEm */
PUSHB[ ]\011/* 1 value pushed */
12 
LT[ ]\011/* LessThan */
IF[ ]\011/* If */
NPUSHB[ ]\011/* 49 values pushed */
0 4 3 2 3 4 2 126 0 2 0 7 8 2 7 103 0 3 3 5 95 0 5 5 28 75 9 1 6 6 0 93 0 0 0 21 75 10 1 8 8 1 95 0 1 1 18 1 76 
ELSE[ ]\011/* Else */
MPPEM[ ]\011/* MeasurePixelPerEm */
PUSHB[ ]\011/* 1 value pushed */
45 
LT[ ]\011/* LessThan */
IF[ ]\011/* If */
NPUSHB[ ]\011/* 51 values pushed */
0 4 3 2 3 4 2 126 0 2 0 7 8 2 7 103 0 3 3 5 95 0 5 5 28 75 10 1 8 8 0 95 1 1 0 0 21 75 9 1 6 6 0 95 1 1 0 0 21 0 76 
ELSE[ ]\011/* Else */
NPUSHB[ ]\011/* 49 values pushed */
0 4 3 2 3 4 2 126 0 2 0 7 8 2 7 103 0 3 3 5 95 0 5 5 28 75 9 1 6 6 0 93 0 0 0 21 75 10 1 8 8 1 95 0 1 1 18 1 76 
EIF[ ]\011/* EndIf */
EIF[ ]\011/* EndIf */
EIF[ ]\011/* EndIf */
NPUSHB[ ]\011/* 23 values pushed */
39 39 0 0 39 47 39 46 43 42 0 38 0 37 36 40 35 20 36 17 11 7 26 
CALL[ ]\011/* CallFunction */";
};
width = 467;
}
);
leftKerningGroup = a;
note = a;
rightKerningGroup = a;
unicode = 0061;
},
{
glyphname = ae;
layers = (
{
anchors = (
{
name = top;
position = "{353, 420}";
}
);
layerId = "3A4136D0-3900-4A7F-B896-13EBFCDD931C";
paths = (
{
closed = 1;
nodes = (
"418 430 OFFCURVE",
"352 381 QCURVE",
"312 430 OFFCURVE",
"213 430 QCURVE SMOOTH",
"139 430 OFFCURVE",
"51 378 OFFCURVE",
"51 336 QCURVE SMOOTH",
"51 315 OFFCURVE",
"74 289 OFFCURVE",
"95 289 QCURVE SMOOTH",
"112 289 OFFCURVE",
"134 306 OFFCURVE",
"134 323 QCURVE SMOOTH",
"134 332 OFFCURVE",
"125 353 OFFCURVE",
"125 361 QCURVE SMOOTH",
"125 403 OFFCURVE",
"201 403 QCURVE SMOOTH",
"250 403 OFFCURVE",
"294 363 OFFCURVE",
"294 316 QCURVE SMOOTH",
"294 242 LINE",
"155 242 OFFCURVE",
"27 178 OFFCURVE",
"27 98 QCURVE SMOOTH",
"27 46 OFFCURVE",
"106 -5 OFFCURVE",
"172 -5 QCURVE SMOOTH",
"271 -5 OFFCURVE",
"318 87 QCURVE",
"341 40 OFFCURVE",
"431 -10 OFFCURVE",
"508 -10 QCURVE SMOOTH",
"562 -10 OFFCURVE",
"653 45 OFFCURVE",
"674 92 QCURVE",
"650 110 LINE",
"632 73 OFFCURVE",
"553 23 OFFCURVE",
"514 23 QCURVE SMOOTH",
"449 23 OFFCURVE",
"381 127 OFFCURVE",
"381 217 QCURVE",
"675 217 LINE",
"675 321 OFFCURVE",
"587 430 OFFCURVE",
"500 430 QCURVE SMOOTH"
);
},
{
closed = 1;
nodes = (
"590 403 OFFCURVE",
"590 270 QCURVE SMOOTH",
"590 242 OFFCURVE",
"580 242 QCURVE SMOOTH",
"381 242 LINE",
"381 324 OFFCURVE",
"439 403 OFFCURVE",
"501 403 QCURVE SMOOTH"
);
},
{
closed = 1;
nodes = (
"294 177 LINE SMOOTH",
"294 104 OFFCURVE",
"238 28 OFFCURVE",
"191 28 QCURVE SMOOTH",
"158 28 OFFCURVE",
"118 60 OFFCURVE",
"118 93 QCURVE SMOOTH",
"118 155 OFFCURVE",
"202 217 OFFCURVE",
"294 217 QCURVE"
);
}
);
userData = {
assembly = "NPUSHB[ ]\011/* 100 values pushed */
45 31 2 6 5 16 10 9 3 11 0 2 74 0 6 5 4 5 6 4 126 9 1 4 15 12 2 0 11 4 0 103 14 10 2 5 5 7 95 13 8 2 7 7 28 75 0 11 11 3 95 0 3 3 18 75 0 1 1 2 95 0 2 2 26 2 76 57 57 49 49 0 0 57 67 57 67 63 61 49 56 49 55 53 51 0 48 0 47 36 38 35 20 36 37 34 18 16 7 28 
CALL[ ]\011/* CallFunction */";
};
width = 710;
},
{
anchors = (
{
name = top;
position = "{361, 425}";
}
);
layerId = "A0AC7266-FF1C-4B13-9E61-C3CFB2289D5A";
paths = (
{
closed = 1;
nodes = (
"411 435 OFFCURVE",
"360 403 QCURVE",
"315 435 OFFCURVE",
"224 435 QCURVE SMOOTH",
"139 435 OFFCURVE",
"39 377 OFFCURVE",
"39 329 QCURVE SMOOTH",
"39 304 OFFCURVE",
"74 271 OFFCURVE",
"102 271 QCURVE SMOOTH",
"126 271 OFFCURVE",
"157 295 OFFCURVE",
"157 317 QCURVE SMOOTH",
"157 323 OFFCURVE",
"148 347 OFFCURVE",
"148 360 QCURVE SMOOTH",
"149 401 OFFCURVE",
"212 401 QCURVE SMOOTH",
"253 401 OFFCURVE",
"279 359 OFFCURVE",
"279 321 QCURVE SMOOTH",
"279 242 LINE",
"141 242 OFFCURVE",
"13 178 OFFCURVE",
"13 106 QCURVE SMOOTH",
"13 51 OFFCURVE",
"82 -5 OFFCURVE",
"145 -5 QCURVE SMOOTH",
"252 -5 OFFCURVE",
"301 77 QCURVE",
"327 33 OFFCURVE",
"426 -10 OFFCURVE",
"503 -10 QCURVE SMOOTH",
"573 -10 OFFCURVE",
"673 44 OFFCURVE",
"696 93 QCURVE",
"669 112 LINE",
"653 78 OFFCURVE",
"582 31 OFFCURVE",
"537 31 QCURVE SMOOTH",
"474 31 OFFCURVE",
"410 123 OFFCURVE",
"410 210 QCURVE",
"699 210 LINE",
"699 328 OFFCURVE",
"598 435 OFFCURVE",
"499 435 QCURVE SMOOTH"
);
},
{
closed = 1;
nodes = (
"565 401 OFFCURVE",
"565 274 QCURVE SMOOTH",
"565 242 OFFCURVE",
"548 242 QCURVE SMOOTH",
"410 242 LINE",
"410 315 OFFCURVE",
"452 401 OFFCURVE",
"496 401 QCURVE SMOOTH"
);
},
{
closed = 1;
nodes = (
"279 156 LINE",
"275 111 OFFCURVE",
"229 53 OFFCURVE",
"199 53 QCURVE SMOOTH",
"175 53 OFFCURVE",
"149 83 OFFCURVE",
"149 114 QCURVE SMOOTH",
"149 160 OFFCURVE",
"211 208 OFFCURVE",
"279 208 QCURVE"
);
}
);
userData = {
assembly = "NPUSHB[ ]\011/* 13 values pushed */
46 1 5 7 66 16 10 9 4 11 0 2 74 
MPPEM[ ]\011/* MeasurePixelPerEm */
PUSHB[ ]\011/* 1 value pushed */
10 
LT[ ]\011/* LessThan */
IF[ ]\011/* If */
NPUSHB[ ]\011/* 56 values pushed */
0 6 5 4 5 6 4 126 9 1 4 15 12 2 0 11 4 0 103 14 10 2 5 5 7 95 13 8 2 7 7 28 75 0 11 11 2 95 3 1 2 2 26 75 0 1 1 2 95 3 1 2 2 26 2 76 
ELSE[ ]\011/* Else */
MPPEM[ ]\011/* MeasurePixelPerEm */
PUSHB[ ]\011/* 1 value pushed */
12 
LT[ ]\011/* LessThan */
IF[ ]\011/* If */
NPUSHB[ ]\011/* 54 values pushed */
0 6 5 4 5 6 4 126 9 1 4 15 12 2 0 11 4 0 103 14 10 2 5 5 7 95 13 8 2 7 7 28 75 0 11 11 3 95 0 3 3 18 75 0 1 1 2 95 0 2 2 26 2 76 
ELSE[ ]\011/* Else */
MPPEM[ ]\011/* MeasurePixelPerEm */
PUSHB[ ]\011/* 1 value pushed */
45 
LT[ ]\011/* LessThan */
IF[ ]\011/* If */
NPUSHB[ ]\011/* 56 values pushed */
0 6 5 4 5 6 4 126 9 1 4 15 12 2 0 11 4 0 103 14 10 2 5 5 7 95 13 8 2 7 7 28 75 0 11 11 2 95 3 1 2 2 26 75 0 1 1 2 95 3 1 2 2 26 2 76 
ELSE[ ]\011/* Else */
NPUSHB[ ]\011/* 54 values pushed */
0 6 5 4 5 6 4 126 9 1 4 15 12 2 0 11 4 0 103 14 10 2 5 5 7 95 13 8 2 7 7 28 75 0 11 11 3 95 0 3 3 18 75 0 1 1 2 95 0 2 2 26 2 76 
EIF[ ]\011/* EndIf */
EIF[ ]\011/* EndIf */
EIF[ ]\011/* EndIf */
NPUSHB[ ]\011/* 33 values pushed */
58 58 49 49 0 0 58 67 58 67 64 62 49 57 49 56 53 51 0 48 0 47 36 40 35 20 35 37 34 18 16 7 28 
CALL[ ]\011/* CallFunction */";
};
width = 719;
}
);
leftKerningGroup = a;
note = ae;
rightKerningGroup = ae;
unicode = 00E6;
},
{
glyphname = b;
layers = (
{
background = {
paths = (
{
closed = 1;
nodes = (
"21 705 LINE",
"57 707 LINE",
"70 707 OFFCURVE",
"70 687 QCURVE SMOOTH",
"70 -5 LINE",
"103 -5 LINE",
"103 25 OFFCURVE",
"117 61 OFFCURVE",
"131 61 QCURVE SMOOTH",
"145 61 OFFCURVE",
"149 52 QCURVE",
"172 22 OFFCURVE",
"222 -10 OFFCURVE",
"271 -10 QCURVE SMOOTH",
"367 -10 OFFCURVE",
"461 100 OFFCURVE",
"461 209 QCURVE SMOOTH",
"461 430 OFFCURVE",
"288 430 QCURVE SMOOTH",
"194 430 OFFCURVE",
"157 342 QCURVE",
"157 730 LINE",
"21 730 LINE"
);
},
{
closed = 1;
nodes = (
"159 226 LINE SMOOTH",
"159 308 OFFCURVE",
"221 403 OFFCURVE",
"277 403 QCURVE SMOOTH",
"315 403 OFFCURVE",
"355 368 OFFCURVE",
"370 287 OFFCURVE",
"370 209 QCURVE SMOOTH",
"370 134 OFFCURVE",
"352 52 OFFCURVE",
"310 17 OFFCURVE",
"271 17 QCURVE SMOOTH",
"211 17 OFFCURVE",
"159 105 OFFCURVE",
"159 184 QCURVE SMOOTH"
);
}
);
};
layerId = "3A4136D0-3900-4A7F-B896-13EBFCDD931C";
paths = (
{
closed = 1;
nodes = (
"21 705 LINE",
"57 707 LINE",
"70 707 OFFCURVE",
"70 687 QCURVE SMOOTH",
"70 -5 LINE",
"103 -5 LINE",
"103 25 OFFCURVE",
"117 61 OFFCURVE",
"131 61 QCURVE SMOOTH",
"145 61 OFFCURVE",
"149 52 QCURVE",
"172 22 OFFCURVE",
"222 -10 OFFCURVE",
"271 -10 QCURVE SMOOTH",
"367 -10 OFFCURVE",
"461 100 OFFCURVE",
"461 209 QCURVE SMOOTH",
"461 430 OFFCURVE",
"288 430 QCURVE SMOOTH",
"194 430 OFFCURVE",
"157 342 QCURVE",
"157 730 LINE",
"21 730 LINE"
);
},
{
closed = 1;
nodes = (
"159 226 LINE SMOOTH",
"159 308 OFFCURVE",
"221 403 OFFCURVE",
"277 403 QCURVE SMOOTH",
"335 403 OFFCURVE",
"370 319 OFFCURVE",
"370 209 QCURVE SMOOTH",
"370 134 OFFCURVE",
"352 52 OFFCURVE",
"310 17 OFFCURVE",
"271 17 QCURVE SMOOTH",
"159 17 OFFCURVE",
"159 184 QCURVE SMOOTH"
);
}
);
userData = {
assembly = "NPUSHB[ ]\011/* 59 values pushed */
2 1 3 7 1 74 0 3 7 6 7 3 6 126 0 0 0 5 1 0 5 103 0 7 7 1 95 0 1 1 28 75 0 4 4 18 75 0 6 6 2 95 0 2 2 26 2 76 38 34 34 18 35 35 34 16 8 7 28 
CALL[ ]\011/* CallFunction */";
};
width = 481;
},
{
background = {
paths = (
{
closed = 1;
nodes = (
"17 698 LINE",
"50 700 LINE",
"57 700 OFFCURVE",
"63 688 OFFCURVE",
"63 680 QCURVE SMOOTH",
"63 -5 LINE",
"132 -5 LINE",
"132 25 OFFCURVE",
"150 61 OFFCURVE",
"168 61 QCURVE SMOOTH",
"179 61 OFFCURVE",
"186 52 QCURVE SMOOTH",
"209 22 OFFCURVE",
"263 -10 OFFCURVE",
"315 -10 QCURVE SMOOTH",
"404 -10 OFFCURVE",
"498 102 OFFCURVE",
"498 211 QCURVE SMOOTH",
"498 322 OFFCURVE",
"409 435 OFFCURVE",
"322 435 QCURVE SMOOTH",
"276 435 OFFCURVE",
"208 392 OFFCURVE",
"194 356 QCURVE",
"194 730 LINE",
"17 730 LINE"
);
},
{
closed = 1;
nodes = (
"196 229 LINE SMOOTH",
"196 303 OFFCURVE",
"243 390 OFFCURVE",
"286 390 QCURVE SMOOTH",
"328 390 OFFCURVE",
"358 303 OFFCURVE",
"358 211 QCURVE SMOOTH",
"358 144 OFFCURVE",
"344 69 OFFCURVE",
"312 36 OFFCURVE",
"284 36 QCURVE SMOOTH",
"196 36 OFFCURVE",
"196 186 QCURVE SMOOTH"
);
}
);
};
layerId = "A0AC7266-FF1C-4B13-9E61-C3CFB2289D5A";
paths = (
{
closed = 1;
nodes = (
"17 698 LINE",
"50 700 LINE",
"63 700 OFFCURVE",
"63 680 QCURVE SMOOTH",
"63 -5 LINE",
"132 -5 LINE",
"132 25 OFFCURVE",
"150 61 OFFCURVE",
"168 61 QCURVE SMOOTH",
"179 61 OFFCURVE",
"186 52 QCURVE SMOOTH",
"209 22 OFFCURVE",
"263 -10 OFFCURVE",
"315 -10 QCURVE SMOOTH",
"404 -10 OFFCURVE",
"498 102 OFFCURVE",
"498 211 QCURVE SMOOTH",
"498 435 OFFCURVE",
"322 435 QCURVE SMOOTH",
"230 435 OFFCURVE",
"194 356 QCURVE",
"194 730 LINE",
"17 730 LINE"
);
},
{
closed = 1;
nodes = (
"196 229 LINE SMOOTH",
"196 303 OFFCURVE",
"243 390 OFFCURVE",
"286 390 QCURVE SMOOTH",
"328 390 OFFCURVE",
"358 303 OFFCURVE",
"358 211 QCURVE SMOOTH",
"358 144 OFFCURVE",
"344 69 OFFCURVE",
"312 36 OFFCURVE",
"284 36 QCURVE SMOOTH",
"196 36 OFFCURVE",
"196 186 QCURVE SMOOTH"
);
}
);
userData = {
assembly = "NPUSHB[ ]\011/* 10 values pushed */
21 1 1 5 2 1 3 7 2 74 
MPPEM[ ]\011/* MeasurePixelPerEm */
PUSHB[ ]\011/* 1 value pushed */
10 
LT[ ]\011/* LessThan */
IF[ ]\011/* If */
NPUSHB[ ]\011/* 38 values pushed */
0 3 7 6 7 3 6 126 0 0 0 5 1 0 5 103 0 7 7 1 95 0 1 1 28 75 0 6 6 2 95 4 1 2 2 26 2 76 
ELSE[ ]\011/* Else */
MPPEM[ ]\011/* MeasurePixelPerEm */
PUSHB[ ]\011/* 1 value pushed */
12 
LT[ ]\011/* LessThan */
IF[ ]\011/* If */
NPUSHB[ ]\011/* 42 values pushed */
0 3 7 6 7 3 6 126 0 0 0 5 1 0 5 103 0 7 7 1 95 0 1 1 28 75 0 4 4 18 75 0 6 6 2 95 0 2 2 26 2 76 
ELSE[ ]\011/* Else */
MPPEM[ ]\011/* MeasurePixelPerEm */
PUSHB[ ]\011/* 1 value pushed */
45 
LT[ ]\011/* LessThan */
IF[ ]\011/* If */
NPUSHB[ ]\011/* 38 values pushed */
0 3 7 6 7 3 6 126 0 0 0 5 1 0 5 103 0 7 7 1 95 0 1 1 28 75 0 6 6 2 95 4 1 2 2 26 2 76 
ELSE[ ]\011/* Else */
NPUSHB[ ]\011/* 42 values pushed */
0 3 7 6 7 3 6 126 0 0 0 5 1 0 5 103 0 7 7 1 95 0 1 1 28 75 0 4 4 18 75 0 6 6 2 95 0 2 2 26 2 76 
EIF[ ]\011/* EndIf */
EIF[ ]\011/* EndIf */
EIF[ ]\011/* EndIf */
NPUSHB[ ]\011/* 11 values pushed */
37 33 35 18 35 36 35 16 8 7 28 
CALL[ ]\011/* CallFunction */";
};
width = 514;
}
);
note = b;
rightKerningGroup = b;
unicode = 0062;
},
{
glyphname = c;
layers = (
{
anchors = (
{
name = bottom;
position = "{233, 0}";
},
{
name = top;
position = "{235, 420}";
}
);
background = {
paths = (
{
closed = 1;
nodes = (
"174 430 OFFCURVE",
"85 375 OFFCURVE",
"36 274 OFFCURVE",
"36 206 QCURVE SMOOTH",
"36 105 OFFCURVE",
"143 -10 OFFCURVE",
"237 -10 QCURVE SMOOTH",
"302 -10 OFFCURVE",
"389 52 OFFCURVE",
"407 106 QCURVE",
"383 124 LINE",
"371 73 OFFCURVE",
"292 17 OFFCURVE",
"242 17 QCURVE SMOOTH",
"185 17 OFFCURVE",
"129 116 OFFCURVE",
"129 217 QCURVE SMOOTH",
"129 319 OFFCURVE",
"183 403 OFFCURVE",
"235 403 QCURVE SMOOTH",
"267 403 OFFCURVE",
"313 376 OFFCURVE",
"313 351 QCURVE SMOOTH",
"313 340 OFFCURVE",
"308 328 QCURVE",
"304 316 OFFCURVE",
"304 308 QCURVE SMOOTH",
"304 278 OFFCURVE",
"339 278 QCURVE SMOOTH",
"364 278 OFFCURVE",
"387 307 OFFCURVE",
"387 328 QCURVE SMOOTH",
"387 356 OFFCURVE",
"344 403 OFFCURVE",
"273 430 OFFCURVE",
"232 430 QCURVE SMOOTH"
);
}
);
};
layerId = "3A4136D0-3900-4A7F-B896-13EBFCDD931C";
paths = (
{
closed = 1;
nodes = (
"142 430 OFFCURVE",
"36 306 OFFCURVE",
"36 206 QCURVE SMOOTH",
"36 105 OFFCURVE",
"143 -10 OFFCURVE",
"237 -10 QCURVE SMOOTH",
"365 -10 OFFCURVE",
"407 106 QCURVE",
"382 118 LINE",
"366 69 OFFCURVE",
"292 17 OFFCURVE",
"242 17 QCURVE SMOOTH",
"185 17 OFFCURVE",
"129 116 OFFCURVE",
"129 217 QCURVE SMOOTH",
"129 319 OFFCURVE",
"183 403 OFFCURVE",
"235 403 QCURVE SMOOTH",
"267 403 OFFCURVE",
"313 376 OFFCURVE",
"313 351 QCURVE SMOOTH",
"313 340 OFFCURVE",
"308 328 QCURVE",
"304 316 OFFCURVE",
"304 308 QCURVE SMOOTH",
"304 278 OFFCURVE",
"339 278 QCURVE SMOOTH",
"364 278 OFFCURVE",
"387 307 OFFCURVE",
"387 328 QCURVE SMOOTH",
"387 356 OFFCURVE",
"344 403 OFFCURVE",
"273 430 OFFCURVE",
"232 430 QCURVE SMOOTH"
);
}
);
userData = {
assembly = "NPUSHB[ ]\011/* 54 values pushed */
8 1 0 1 25 24 2 2 0 2 74 0 0 1 2 1 0 2 126 0 1 1 4 95 5 1 4 4 28 75 0 2 2 3 95 0 3 3 26 3 76 0 0 0 35 0 34 37 36 39 37 6 7 24 
CALL[ ]\011/* CallFunction */";
};
width = 425;
},
{
anchors = (
{
name = bottom;
position = "{242, 0}";
},
{
name = top;
position = "{244, 425}";
}
);
background = {
paths = (
{
closed = 1;
nodes = (
"144 435 OFFCURVE",
"20 320 OFFCURVE",
"20 209 QCURVE SMOOTH",
"20 98 OFFCURVE",
"147 -10 OFFCURVE",
"245 -10 QCURVE SMOOTH",
"383 -10 OFFCURVE",
"426 108 QCURVE",
"395 123 LINE",
"377 72 OFFCURVE",
"310 27 OFFCURVE",
"269 27 QCURVE SMOOTH",
"217 27 OFFCURVE",
"158 115 OFFCURVE",
"158 223 QCURVE SMOOTH",
"158 320 OFFCURVE",
"206 401 OFFCURVE",
"249 401 QCURVE SMOOTH",
"275 401 OFFCURVE",
"310 378 OFFCURVE",
"310 356 QCURVE SMOOTH",
"310 344 OFFCURVE",
"305 334 QCURVE",
"301 322 OFFCURVE",
"301 313 QCURVE SMOOTH",
"301 291 OFFCURVE",
"332 268 OFFCURVE",
"356 268 QCURVE SMOOTH",
"386 268 OFFCURVE",
"419 304 OFFCURVE",
"419 330 QCURVE SMOOTH",
"419 359 OFFCURVE",
"374 407 OFFCURVE",
"294 435 OFFCURVE",
"244 435 QCURVE SMOOTH"
);
}
);
};
layerId = "A0AC7266-FF1C-4B13-9E61-C3CFB2289D5A";
paths = (
{
closed = 1;
nodes = (
"144 435 OFFCURVE",
"20 320 OFFCURVE",
"20 209 QCURVE SMOOTH",
"20 98 OFFCURVE",
"147 -10 OFFCURVE",
"245 -10 QCURVE SMOOTH",
"383 -10 OFFCURVE",
"426 108 QCURVE",
"395 123 LINE",
"377 72 OFFCURVE",
"310 27 OFFCURVE",
"269 27 QCURVE SMOOTH",
"217 27 OFFCURVE",
"158 115 OFFCURVE",
"158 223 QCURVE SMOOTH",
"158 320 OFFCURVE",
"206 401 OFFCURVE",
"249 401 QCURVE SMOOTH",
"275 401 OFFCURVE",
"310 378 OFFCURVE",
"310 356 QCURVE SMOOTH",
"310 344 OFFCURVE",
"305 334 QCURVE",
"301 322 OFFCURVE",
"301 313 QCURVE SMOOTH",
"301 268 OFFCURVE",
"356 268 QCURVE SMOOTH",
"386 268 OFFCURVE",
"419 304 OFFCURVE",
"419 330 QCURVE SMOOTH",
"419 359 OFFCURVE",
"374 407 OFFCURVE",
"294 435 OFFCURVE",
"244 435 QCURVE SMOOTH"
);
}
);
userData = {
assembly = "NPUSHB[ ]\011/* 50 values pushed */
26 25 2 2 0 1 74 0 0 1 2 1 0 2 126 0 1 1 4 95 5 1 4 4 28 75 0 2 2 3 95 0 3 3 26 3 76 0 0 0 34 0 33 36 36 40 37 6 7 24 
CALL[ ]\011/* CallFunction */";
};
width = 439;
}
);
leftKerningGroup = c;
note = c;
rightKerningGroup = c;
unicode = 0063;
},
{
glyphname = d;
layers = (
{
anchors = (
{
name = center;
position = "{352, 568}";
},
{
name = topright;
position = "{360, 546}";
}
);
layerId = "3A4136D0-3900-4A7F-B896-13EBFCDD931C";
paths = (
{
closed = 1;
nodes = (
"35 97 OFFCURVE",
"123 -10 OFFCURVE",
"225 -10 QCURVE SMOOTH",
"271 -10 OFFCURVE",
"324 30 OFFCURVE",
"336 67 QCURVE",
"336 65 OFFCURVE",
"334 51 OFFCURVE",
"334 38 QCURVE SMOOTH",
"334 16 LINE SMOOTH",
"334 8 OFFCURVE",
"332 0 QCURVE",
"476 0 LINE",
"476 26 LINE",
"439 24 LINE",
"426 24 OFFCURVE",
"426 43 QCURVE SMOOTH",
"426 730 LINE",
"280 730 LINE",
"280 705 LINE",
"326 707 LINE",
"339 707 OFFCURVE",
"339 687 QCURVE SMOOTH",
"339 348 LINE",
"329 384 OFFCURVE",
"270 430 OFFCURVE",
"224 430 QCURVE SMOOTH",
"130 430 OFFCURVE",
"35 318 OFFCURVE",
"35 209 QCURVE SMOOTH"
);
},
{
closed = 1;
nodes = (
"127 303 OFFCURVE",
"170 403 OFFCURVE",
"224 403 QCURVE SMOOTH",
"281 403 OFFCURVE",
"337 310 OFFCURVE",
"337 226 QCURVE SMOOTH",
"337 184 LINE SMOOTH",
"337 97 OFFCURVE",
"286 17 OFFCURVE",
"225 17 QCURVE SMOOTH",
"186 17 OFFCURVE",
"144 54 OFFCURVE",
"127 136 OFFCURVE",
"127 209 QCURVE SMOOTH"
);
}
);
userData = {
assembly = "NPUSHB[ ]\011/* 56 values pushed */
5 1 3 7 1 74 0 2 0 1 0 2 1 103 0 7 7 0 95 0 0 0 28 75 0 3 3 4 93 0 4 4 21 75 0 6 6 5 95 0 5 5 26 5 76 37 37 40 17 34 17 36 33 8 7 28 
CALL[ ]\011/* CallFunction */";
};
width = 496;
},
{
anchors = (
{
name = center;
position = "{371, 568}";
},
{
name = topright;
position = "{388, 539}";
}
);
layerId = "A0AC7266-FF1C-4B13-9E61-C3CFB2289D5A";
paths = (
{
closed = 1;
nodes = (
"24 98 OFFCURVE",
"108 -10 OFFCURVE",
"205 -10 QCURVE SMOOTH",
"252 -10 OFFCURVE",
"312 29 OFFCURVE",
"325 63 QCURVE",
"325 61 OFFCURVE",
"323 49 OFFCURVE",
"323 38 QCURVE SMOOTH",
"323 16 LINE SMOOTH",
"323 8 OFFCURVE",
"321 0 QCURVE",
"505 0 LINE",
"505 34 LINE",
"472 32 LINE",
"459 32 OFFCURVE",
"459 51 QCURVE SMOOTH",
"459 730 LINE",
"269 730 LINE",
"269 698 LINE",
"315 700 LINE",
"328 700 OFFCURVE",
"328 680 QCURVE SMOOTH",
"328 357 LINE",
"317 390 OFFCURVE",
"250 435 OFFCURVE",
"204 435 QCURVE SMOOTH",
"115 435 OFFCURVE",
"24 322 OFFCURVE",
"24 211 QCURVE SMOOTH"
);
},
{
closed = 1;
nodes = (
"164 299 OFFCURVE",
"197 390 OFFCURVE",
"237 390 QCURVE SMOOTH",
"280 390 OFFCURVE",
"326 305 OFFCURVE",
"326 229 QCURVE SMOOTH",
"326 186 LINE SMOOTH",
"326 111 OFFCURVE",
"283 36 OFFCURVE",
"238 36 QCURVE SMOOTH",
"209 36 OFFCURVE",
"177 70 OFFCURVE",
"164 144 OFFCURVE",
"164 211 QCURVE SMOOTH"
);
}
);
userData = {
assembly = "NPUSHB[ ]\011/* 58 values pushed */
5 1 3 7 1 74 0 2 0 1 0 2 1 103 0 7 7 0 95 0 0 0 28 75 6 1 3 3 4 93 0 4 4 21 75 6 1 3 3 5 95 0 5 5 26 5 76 37 37 40 17 34 17 36 33 8 7 28 
CALL[ ]\011/* CallFunction */";
};
width = 522;
}
);
leftKerningGroup = c;
note = d;
unicode = 0064;
},
{
glyphname = eth;
layers = (
{
layerId = "3A4136D0-3900-4A7F-B896-13EBFCDD931C";
paths = (
{
closed = 1;
nodes = (
"378 594 LINE",
"364 620 LINE",
"269 565 LINE",
"203 604 OFFCURVE",
"132 607 QCURVE",
"112 585 LINE",
"173 580 OFFCURVE",
"221 538 QCURVE",
"125 483 LINE",
"140 457 LINE",
"246 518 LINE",
"292 487 OFFCURVE",
"328 404 QCURVE",
"286 429 OFFCURVE",
"246 429 QCURVE SMOOTH",
"143 429 OFFCURVE",
"35 317 OFFCURVE",
"35 209 QCURVE SMOOTH",
"35 101 OFFCURVE",
"143 -11 OFFCURVE",
"246 -11 QCURVE SMOOTH",
"347 -11 OFFCURVE",
"457 109 OFFCURVE",
"457 213 QCURVE SMOOTH",
"457 324 OFFCURVE",
"369 495 OFFCURVE",
"297 547 QCURVE"
);
},
{
closed = 1;
nodes = (
"182 14 OFFCURVE",
"126 108 OFFCURVE",
"126 209 QCURVE SMOOTH",
"126 304 OFFCURVE",
"180 404 OFFCURVE",
"246 404 QCURVE SMOOTH",
"310 404 OFFCURVE",
"366 314 OFFCURVE",
"366 209 QCURVE SMOOTH",
"366 105 OFFCURVE",
"311 14 OFFCURVE",
"246 14 QCURVE SMOOTH"
);
}
);
userData = {
assembly = "NPUSHB[ ]\011/* 73 values pushed */
28 1 2 3 29 26 20 19 18 17 6 1 2 2 74 14 1 4 1 73 27 1 3 72 0 2 3 1 3 2 1 126 0 3 3 25 75 0 4 4 1 95 0 1 1 28 75 6 1 5 5 0 95 0 0 0 26 0 76 30 30 30 43 30 42 41 17 26 36 36 7 7 25 
CALL[ ]\011/* CallFunction */";
};
width = 492;
},
{
layerId = "A0AC7266-FF1C-4B13-9E61-C3CFB2289D5A";
paths = (
{
closed = 1;
nodes = (
"380 590 LINE",
"364 620 LINE",
"281 572 LINE",
"212 604 OFFCURVE",
"132 607 QCURVE",
"112 578 LINE",
"161 571 OFFCURVE",
"215 535 QCURVE",
"125 483 LINE",
"142 453 LINE",
"244 512 LINE",
"295 468 OFFCURVE",
"317 414 QCURVE",
"285 435 OFFCURVE",
"232 435 QCURVE SMOOTH",
"136 435 OFFCURVE",
"20 323 OFFCURVE",
"20 212 QCURVE SMOOTH",
"20 103 OFFCURVE",
"140 -11 OFFCURVE",
"254 -11 QCURVE SMOOTH",
"369 -11 OFFCURVE",
"487 115 OFFCURVE",
"487 224 QCURVE SMOOTH",
"487 343 OFFCURVE",
"395 507 OFFCURVE",
"317 554 QCURVE"
);
},
{
closed = 1;
nodes = (
"205 22 OFFCURVE",
"160 108 OFFCURVE",
"160 212 QCURVE SMOOTH",
"160 318 OFFCURVE",
"204 403 OFFCURVE",
"254 403 QCURVE SMOOTH",
"304 403 OFFCURVE",
"347 315 OFFCURVE",
"347 212 QCURVE SMOOTH",
"347 111 OFFCURVE",
"305 22 OFFCURVE",
"254 22 QCURVE SMOOTH"
);
}
);
userData = {
assembly = "NPUSHB[ ]\011/* 61 values pushed */
26 25 23 20 18 17 16 15 8 1 2 13 1 3 1 2 74 24 1 2 72 0 2 2 25 75 0 3 3 1 95 0 1 1 28 75 5 1 4 4 0 95 0 0 0 26 0 76 27 27 27 38 27 37 41 25 36 36 6 7 24 
CALL[ ]\011/* CallFunction */";
};
width = 507;
}
);
leftKerningGroup = c;
note = eth;
rightKerningGroup = eth;
unicode = 00F0;
},
{
glyphname = e;
layers = (
{
anchors = (
{
name = bottom;
position = "{231, 0}";
},
{
name = ogonek;
position = "{299, 0}";
},
{
name = top;
position = "{237, 420}";
}
);
layerId = "3A4136D0-3900-4A7F-B896-13EBFCDD931C";
paths = (
{
closed = 1;
nodes = (
"137 430 OFFCURVE",
"35 318 OFFCURVE",
"35 209 QCURVE SMOOTH",
"35 -10 OFFCURVE",
"238 -10 QCURVE SMOOTH",
"295 -10 OFFCURVE",
"390 45 OFFCURVE",
"410 93 QCURVE",
"387 110 LINE",
"371 73 OFFCURVE",
"302 23 OFFCURVE",
"252 23 QCURVE SMOOTH",
"189 24 OFFCURVE",
"126 121 OFFCURVE",
"126 212 QCURVE",
"414 212 LINE",
"414 241 LINE",
"412 329 OFFCURVE",
"315 430 OFFCURVE",
"236 430 QCURVE SMOOTH"
);
},
{
closed = 1;
nodes = (
"286 403 OFFCURVE",
"329 338 OFFCURVE",
"329 270 QCURVE SMOOTH",
"329 251 OFFCURVE",
"319 237 OFFCURVE",
"309 237 QCURVE SMOOTH",
"127 237 LINE",
"127 311 OFFCURVE",
"180 403 OFFCURVE",
"236 403 QCURVE SMOOTH"
);
}
);
userData = {
assembly = "NPUSHB[ ]\011/* 58 values pushed */
11 10 2 1 0 1 74 0 4 0 0 1 4 0 101 7 1 5 5 3 95 6 1 3 3 28 75 0 1 1 2 95 0 2 2 26 2 76 20 20 0 0 20 29 20 28 24 22 0 19 0 18 37 34 19 8 7 23 
CALL[ ]\011/* CallFunction */";
};
width = 449;
},
{
anchors = (
{
name = bottom;
position = "{242, 0}";
},
{
name = ogonek;
position = "{325, 0}";
},
{
name = top;
position = "{248, 425}";
}
);
background = {
paths = (
{
closed = 1;
nodes = (
"134 435 OFFCURVE",
"20 326 OFFCURVE",
"20 211 QCURVE SMOOTH",
"20 98 OFFCURVE",
"130 -10 OFFCURVE",
"249 -10 QCURVE SMOOTH",
"320 -10 OFFCURVE",
"421 44 OFFCURVE",
"444 93 QCURVE",
"417 112 LINE",
"401 78 OFFCURVE",
"333 31 OFFCURVE",
"286 31 QCURVE SMOOTH",
"223 32 OFFCURVE",
"160 122 OFFCURVE",
"160 208 QCURVE",
"448 208 LINE",
"448 245 LINE",
"447 336 OFFCURVE",
"338 435 OFFCURVE",
"247 435 QCURVE SMOOTH"
);
},
{
closed = 1;
nodes = (
"281 401 OFFCURVE",
"314 339 OFFCURVE",
"314 274 QCURVE SMOOTH",
"314 255 OFFCURVE",
"304 241 OFFCURVE",
"294 241 QCURVE SMOOTH",
"161 241 LINE",
"161 312 OFFCURVE",
"201 401 OFFCURVE",
"244 401 QCURVE SMOOTH"
);
}
);
};
layerId = "A0AC7266-FF1C-4B13-9E61-C3CFB2289D5A";
paths = (
{
closed = 1;
nodes = (
"134 435 OFFCURVE",
"20 326 OFFCURVE",
"20 211 QCURVE SMOOTH",
"20 -10 OFFCURVE",
"245 -10 QCURVE SMOOTH",
"316 -10 OFFCURVE",
"421 44 OFFCURVE",
"444 93 QCURVE",
"417 112 LINE",
"401 78 OFFCURVE",
"333 31 OFFCURVE",
"286 31 QCURVE SMOOTH",
"223 32 OFFCURVE",
"160 122 OFFCURVE",
"160 208 QCURVE",
"448 208 LINE",
"448 245 LINE",
"447 336 OFFCURVE",
"338 435 OFFCURVE",
"247 435 QCURVE SMOOTH"
);
},
{
closed = 1;
nodes = (
"281 401 OFFCURVE",
"314 339 OFFCURVE",
"314 274 QCURVE SMOOTH",
"314 255 OFFCURVE",
"304 241 OFFCURVE",
"294 241 QCURVE SMOOTH",
"161 241 LINE",
"161 312 OFFCURVE",
"201 401 OFFCURVE",
"244 401 QCURVE SMOOTH"
);
}
);
userData = {
assembly = "NPUSHB[ ]\011/* 58 values pushed */
11 10 2 1 0 1 74 0 4 0 0 1 4 0 101 7 1 5 5 3 95 6 1 3 3 28 75 0 1 1 2 95 0 2 2 26 2 76 21 21 0 0 21 30 21 29 25 23 0 20 0 19 37 34 19 8 7 23 
CALL[ ]\011/* CallFunction */";
};
width = 468;
}
);
leftKerningGroup = c;
note = e;
rightKerningGroup = e;
unicode = 0065;
},
{
glyphname = schwa;
layers = (
{
layerId = "3A4136D0-3900-4A7F-B896-13EBFCDD931C";
paths = (
{
closed = 1;
nodes = (
"312 -10 OFFCURVE",
"414 102 OFFCURVE",
"414 211 QCURVE SMOOTH",
"414 430 OFFCURVE",
"211 430 QCURVE SMOOTH",
"154 430 OFFCURVE",
"59 375 OFFCURVE",
"39 327 QCURVE",
"62 310 LINE",
"78 347 OFFCURVE",
"147 397 OFFCURVE",
"197 397 QCURVE SMOOTH",
"260 396 OFFCURVE",
"323 299 OFFCURVE",
"323 208 QCURVE",
"35 208 LINE",
"35 179 LINE",
"37 91 OFFCURVE",
"134 -10 OFFCURVE",
"213 -10 QCURVE SMOOTH"
);
},
{
closed = 1;
nodes = (
"163 17 OFFCURVE",
"120 82 OFFCURVE",
"120 150 QCURVE SMOOTH",
"120 169 OFFCURVE",
"130 183 OFFCURVE",
"140 183 QCURVE SMOOTH",
"322 183 LINE",
"322 109 OFFCURVE",
"269 17 OFFCURVE",
"213 17 QCURVE SMOOTH"
);
}
);
width = 449;
},
{
layerId = "A0AC7266-FF1C-4B13-9E61-C3CFB2289D5A";
paths = (
{
closed = 1;
nodes = (
"334 -10 OFFCURVE",
"448 99 OFFCURVE",
"448 214 QCURVE SMOOTH",
"448 435 OFFCURVE",
"223 435 QCURVE SMOOTH",
"152 435 OFFCURVE",
"47 381 OFFCURVE",
"24 332 QCURVE",
"51 313 LINE",
"67 347 OFFCURVE",
"135 394 OFFCURVE",
"182 394 QCURVE SMOOTH",
"245 393 OFFCURVE",
"308 303 OFFCURVE",
"308 217 QCURVE",
"20 217 LINE",
"20 180 LINE",
"21 89 OFFCURVE",
"130 -10 OFFCURVE",
"221 -10 QCURVE SMOOTH"
);
},
{
closed = 1;
nodes = (
"187 24 OFFCURVE",
"154 86 OFFCURVE",
"154 151 QCURVE SMOOTH",
"154 170 OFFCURVE",
"164 184 OFFCURVE",
"174 184 QCURVE SMOOTH",
"307 184 LINE",
"307 113 OFFCURVE",
"267 24 OFFCURVE",
"224 24 QCURVE SMOOTH"
);
}
);
width = 468;
}
);
unicode = 0259;
},
{
glyphname = f;
layers = (
{
layerId = "3A4136D0-3900-4A7F-B896-13EBFCDD931C";
paths = (
{
closed = 1;
nodes = (
"35 0 LINE",
"250 0 LINE",
"250 26 LINE",
"184 24 LINE SMOOTH",
"171 24 OFFCURVE",
"171 43 QCURVE SMOOTH",
"171 395 LINE",
"277 395 LINE",
"277 420 LINE",
"170 420 LINE",
"170 449 LINE SMOOTH",
"170 471 OFFCURVE",
"167 523 QCURVE SMOOTH",
"164 561 OFFCURVE",
"164 589 QCURVE SMOOTH",
"164 657 OFFCURVE",
"216 709 OFFCURVE",
"252 709 QCURVE SMOOTH",
"277 709 OFFCURVE",
"303 679 OFFCURVE",
"303 657 QCURVE SMOOTH",
"303 645 OFFCURVE",
"298 633 QCURVE",
"294 621 OFFCURVE",
"294 613 QCURVE SMOOTH",
"294 584 OFFCURVE",
"329 584 QCURVE SMOOTH",
"353 584 OFFCURVE",
"377 612 OFFCURVE",
"377 633 QCURVE SMOOTH",
"377 676 OFFCURVE",
"306 736 OFFCURVE",
"259 736 QCURVE SMOOTH",
"85 736 OFFCURVE",
"85 486 QCURVE SMOOTH",
"85 420 LINE",
"46 420 LINE",
"46 395 LINE",
"85 395 LINE",
"85 43 LINE SMOOTH",
"85 24 OFFCURVE",
"72 24 QCURVE",
"35 26 LINE"
);
}
);
userData = {
assembly = "PUSHB[ ]\011/* 6 values pushed */
18 1 4 5 1 74 
MPPEM[ ]\011/* MeasurePixelPerEm */
PUSHB[ ]\011/* 1 value pushed */
10 
LT[ ]\011/* LessThan */
IF[ ]\011/* If */
NPUSHB[ ]\011/* 39 values pushed */
0 4 5 2 5 4 112 0 3 0 5 4 3 5 103 7 1 1 1 2 93 6 1 2 2 20 75 8 1 0 0 9 93 0 9 9 21 9 76 
ELSE[ ]\011/* Else */
NPUSHB[ ]\011/* 40 values pushed */
0 4 5 2 5 4 2 126 0 3 0 5 4 3 5 103 7 1 1 1 2 93 6 1 2 2 20 75 8 1 0 0 9 93 0 9 9 21 9 76 
EIF[ ]\011/* EndIf */
NPUSHB[ ]\011/* 14 values pushed */
43 42 34 17 24 39 36 34 17 18 32 10 7 29 
CALL[ ]\011/* CallFunction */";
};
width = 296;
},
{
background = {
paths = (
{
closed = 1;
nodes = (
"20 0 LINE",
"276 0 LINE",
"276 34 LINE",
"214 32 LINE SMOOTH",
"201 32 OFFCURVE",
"201 51 QCURVE SMOOTH",
"201 393 LINE",
"279 393 LINE",
"279 425 LINE",
"200 425 LINE",
"200 449 LINE SMOOTH",
"200 482 OFFCURVE",
"197 518 QCURVE SMOOTH",
"196 531 OFFCURVE",
"194 569 OFFCURVE",
"194 594 QCURVE SMOOTH",
"194 655 OFFCURVE",
"224 702 OFFCURVE",
"251 702 QCURVE SMOOTH",
"270 702 OFFCURVE",
"288 676 OFFCURVE",
"288 658 QCURVE SMOOTH",
"288 645 OFFCURVE",
"283 633 QCURVE",
"279 619 OFFCURVE",
"279 612 QCURVE SMOOTH",
"279 593 OFFCURVE",
"310 572 OFFCURVE",
"333 572 QCURVE SMOOTH",
"365 572 OFFCURVE",
"397 608 OFFCURVE",
"397 633 QCURVE SMOOTH",
"397 676 OFFCURVE",
"314 736 OFFCURVE",
"253 736 QCURVE SMOOTH",
"149 736 OFFCURVE",
"70 588 OFFCURVE",
"70 486 QCURVE SMOOTH",
"70 425 LINE",
"31 425 LINE",
"31 393 LINE",
"70 393 LINE",
"70 51 LINE SMOOTH",
"70 32 OFFCURVE",
"57 32 QCURVE",
"20 34 LINE"
);
}
);
};
layerId = "A0AC7266-FF1C-4B13-9E61-C3CFB2289D5A";
paths = (
{
closed = 1;
nodes = (
"20 0 LINE",
"276 0 LINE",
"276 34 LINE",
"214 32 LINE SMOOTH",
"201 32 OFFCURVE",
"201 51 QCURVE SMOOTH",
"201 393 LINE",
"279 393 LINE",
"279 425 LINE",
"200 425 LINE",
"200 449 LINE SMOOTH",
"200 482 OFFCURVE",
"197 518 QCURVE SMOOTH",
"194 569 OFFCURVE",
"194 594 QCURVE SMOOTH",
"194 655 OFFCURVE",
"224 702 OFFCURVE",
"251 702 QCURVE SMOOTH",
"270 702 OFFCURVE",
"288 676 OFFCURVE",
"288 658 QCURVE SMOOTH",
"288 645 OFFCURVE",
"283 633 QCURVE",
"279 618 OFFCURVE",
"279 612 QCURVE SMOOTH",
"279 572 OFFCURVE",
"333 572 QCURVE SMOOTH",
"365 572 OFFCURVE",
"397 608 OFFCURVE",
"397 633 QCURVE SMOOTH",
"397 676 OFFCURVE",
"314 736 OFFCURVE",
"253 736 QCURVE SMOOTH",
"70 736 OFFCURVE",
"70 486 QCURVE SMOOTH",
"70 425 LINE",
"31 425 LINE",
"31 393 LINE",
"70 393 LINE",
"70 51 LINE SMOOTH",
"70 32 OFFCURVE",
"57 32 QCURVE",
"20 34 LINE"
);
}
);
userData = {
assembly = "PUSHB[ ]\011/* 6 values pushed */
20 1 4 5 1 74 
MPPEM[ ]\011/* MeasurePixelPerEm */
PUSHB[ ]\011/* 1 value pushed */
10 
LT[ ]\011/* LessThan */
IF[ ]\011/* If */
NPUSHB[ ]\011/* 39 values pushed */
0 4 5 2 5 4 112 0 3 0 5 4 3 5 103 7 1 1 1 2 93 6 1 2 2 20 75 8 1 0 0 9 93 0 9 9 21 9 76 
ELSE[ ]\011/* Else */
NPUSHB[ ]\011/* 40 values pushed */
0 4 5 2 5 4 2 126 0 3 0 5 4 3 5 103 7 1 1 1 2 93 6 1 2 2 20 75 8 1 0 0 9 93 0 9 9 21 9 76 
EIF[ ]\011/* EndIf */
NPUSHB[ ]\011/* 14 values pushed */
45 44 34 17 24 40 36 35 17 18 32 10 7 29 
CALL[ ]\011/* CallFunction */";
};
width = 299;
}
);
note = f;
rightKerningGroup = f;
unicode = 0066;
},
{
glyphname = g;
layers = (
{
anchors = (
{
name = top;
position = "{227, 420}";
}
);
background = {
paths = (
{
closed = 1;
nodes = (
"398 447 OFFCURVE",
"411 431 OFFCURVE",
"423 424 OFFCURVE",
"435 424 QCURVE SMOOTH",
"449 424 OFFCURVE",
"467 448 OFFCURVE",
"467 461 QCURVE SMOOTH",
"467 478 OFFCURVE",
"446 505 OFFCURVE",
"421 505 QCURVE SMOOTH",
"401 505 OFFCURVE",
"328 452 OFFCURVE",
"303 418 QCURVE",
"269 430 OFFCURVE",
"227 430 QCURVE SMOOTH",
"152 430 OFFCURVE",
"57 347 OFFCURVE",
"57 280 QCURVE SMOOTH",
"57 240 OFFCURVE",
"92 179 OFFCURVE",
"122 160 QCURVE",
"95 138 LINE SMOOTH",
"69 117 OFFCURVE",
"48 90 OFFCURVE",
"48 71 QCURVE SMOOTH",
"48 19 OFFCURVE",
"122 5 QCURVE",
"77 -16 OFFCURVE",
"32 -72 OFFCURVE",
"32 -112 QCURVE SMOOTH",
"32 -177 OFFCURVE",
"127 -245 OFFCURVE",
"215 -245 QCURVE SMOOTH",
"286 -245 OFFCURVE",
"394 -203 OFFCURVE",
"453 -125 OFFCURVE",
"453 -74 QCURVE SMOOTH",
"453 1 OFFCURVE",
"378 65 OFFCURVE",
"304 65 QCURVE SMOOTH",
"171 65 LINE SMOOTH",
"115 65 OFFCURVE",
"115 102 QCURVE SMOOTH",
"115 125 OFFCURVE",
"149 146 QCURVE",
"185 131 OFFCURVE",
"227 131 QCURVE SMOOTH",
"304 131 OFFCURVE",
"398 214 OFFCURVE",
"398 280 QCURVE SMOOTH",
"398 372 OFFCURVE",
"324 409 QCURVE",
"337 425 OFFCURVE",
"380 447 OFFCURVE",
"390 447 QCURVE SMOOTH"
);
},
{
closed = 1;
nodes = (
"195 154 OFFCURVE",
"160 177 OFFCURVE",
"146 231 OFFCURVE",
"146 280 QCURVE SMOOTH",
"146 350 OFFCURVE",
"181 403 OFFCURVE",
"227 403 QCURVE SMOOTH",
"273 403 OFFCURVE",
"309 347 OFFCURVE",
"309 280 QCURVE SMOOTH",
"309 211 OFFCURVE",
"274 154 OFFCURVE",
"227 154 QCURVE SMOOTH"
);
},
{
closed = 1;
nodes = (
"289 0 LINE SMOOTH",
"340 0 OFFCURVE",
"387 -40 OFFCURVE",
"387 -81 QCURVE SMOOTH",
"387 -143 OFFCURVE",
"297 -219 OFFCURVE",
"214 -219 QCURVE SMOOTH",
"148 -219 OFFCURVE",
"81 -159 OFFCURVE",
"81 -110 QCURVE SMOOTH",
"81 -83 OFFCURVE",
"110 -32 OFFCURVE",
"160 0 OFFCURVE",
"189 0 QCURVE SMOOTH"
);
},
{
closed = 1;
nodes = (
"398 447 OFFCURVE",
"411 431 OFFCURVE",
"423 424 OFFCURVE",
"435 424 QCURVE SMOOTH",
"449 424 OFFCURVE",
"467 448 OFFCURVE",
"467 461 QCURVE SMOOTH",
"467 478 OFFCURVE",
"446 505 OFFCURVE",
"423 505 QCURVE SMOOTH",
"375 505 OFFCURVE",
"303 418 QCURVE",
"269 430 OFFCURVE",
"227 430 QCURVE SMOOTH",
"152 430 OFFCURVE",
"57 347 OFFCURVE",
"57 280 QCURVE SMOOTH",
"57 203 OFFCURVE",
"122 160 QCURVE",
"95 138 LINE SMOOTH",
"69 117 OFFCURVE",
"48 90 OFFCURVE",
"48 71 QCURVE SMOOTH",
"48 19 OFFCURVE",
"122 5 QCURVE",
"32 -35 OFFCURVE",
"32 -112 QCURVE SMOOTH",
"32 -177 OFFCURVE",
"127 -245 OFFCURVE",
"215 -245 QCURVE SMOOTH",
"322 -245 OFFCURVE",
"453 -151 OFFCURVE",
"453 -74 QCURVE SMOOTH",
"453 1 OFFCURVE",
"378 65 OFFCURVE",
"304 65 QCURVE SMOOTH",
"171 65 LINE SMOOTH",
"115 65 OFFCURVE",
"115 102 QCURVE SMOOTH",
"115 125 OFFCURVE",
"149 146 QCURVE",
"185 131 OFFCURVE",
"227 131 QCURVE SMOOTH",
"304 131 OFFCURVE",
"398 214 OFFCURVE",
"398 280 QCURVE SMOOTH",
"398 372 OFFCURVE",
"324 409 QCURVE",
"337 425 OFFCURVE",
"380 447 OFFCURVE",
"390 447 QCURVE SMOOTH"
);
},
{
closed = 1;
nodes = (
"174 154 OFFCURVE",
"146 217 OFFCURVE",
"146 280 QCURVE SMOOTH",
"146 350 OFFCURVE",
"181 403 OFFCURVE",
"227 403 QCURVE SMOOTH",
"273 403 OFFCURVE",
"309 347 OFFCURVE",
"309 280 QCURVE SMOOTH",
"309 211 OFFCURVE",
"274 154 OFFCURVE",
"227 154 QCURVE SMOOTH"
);
},
{
closed = 1;
nodes = (
"289 0 LINE SMOOTH",
"340 0 OFFCURVE",
"387 -40 OFFCURVE",
"387 -81 QCURVE SMOOTH",
"387 -143 OFFCURVE",
"297 -219 OFFCURVE",
"214 -219 QCURVE SMOOTH",
"148 -219 OFFCURVE",
"81 -159 OFFCURVE",
"81 -110 QCURVE SMOOTH",
"81 -68 OFFCURVE",
"146 0 OFFCURVE",
"189 0 QCURVE SMOOTH"
);
}
);
};
layerId = "3A4136D0-3900-4A7F-B896-13EBFCDD931C";
paths = (
{
closed = 1;
nodes = (
"310 430 OFFCURVE",
"227 430 QCURVE SMOOTH",
"152 430 OFFCURVE",
"57 347 OFFCURVE",
"57 280 QCURVE SMOOTH",
"57 203 OFFCURVE",
"122 160 QCURVE",
"95 138 LINE SMOOTH",
"69 117 OFFCURVE",
"48 90 OFFCURVE",
"48 71 QCURVE SMOOTH",
"48 19 OFFCURVE",
"122 5 QCURVE",
"32 -35 OFFCURVE",
"32 -112 QCURVE SMOOTH",
"32 -177 OFFCURVE",
"127 -245 OFFCURVE",
"215 -245 QCURVE SMOOTH",
"322 -245 OFFCURVE",
"453 -151 OFFCURVE",
"453 -74 QCURVE SMOOTH",
"453 1 OFFCURVE",
"378 65 OFFCURVE",
"304 65 QCURVE SMOOTH",
"171 65 LINE SMOOTH",
"115 65 OFFCURVE",
"115 102 QCURVE SMOOTH",
"115 125 OFFCURVE",
"149 146 QCURVE",
"185 131 OFFCURVE",
"227 131 QCURVE SMOOTH",
"304 131 OFFCURVE",
"398 214 OFFCURVE",
"398 280 QCURVE SMOOTH",
"398 348 OFFCURVE"
);
},
{
closed = 1;
nodes = (
"174 154 OFFCURVE",
"146 217 OFFCURVE",
"146 280 QCURVE SMOOTH",
"146 350 OFFCURVE",
"181 403 OFFCURVE",
"227 403 QCURVE SMOOTH",
"273 403 OFFCURVE",
"309 347 OFFCURVE",
"309 280 QCURVE SMOOTH",
"309 211 OFFCURVE",
"274 154 OFFCURVE",
"227 154 QCURVE SMOOTH"
);
},
{
closed = 1;
nodes = (
"289 0 LINE SMOOTH",
"340 0 OFFCURVE",
"387 -40 OFFCURVE",
"387 -81 QCURVE SMOOTH",
"387 -143 OFFCURVE",
"297 -219 OFFCURVE",
"214 -219 QCURVE SMOOTH",
"148 -219 OFFCURVE",
"81 -159 OFFCURVE",
"81 -110 QCURVE SMOOTH",
"81 -68 OFFCURVE",
"146 0 OFFCURVE",
"189 0 QCURVE SMOOTH"
);
},
{
closed = 1;
nodes = (
"383 422 OFFCURVE",
"339 405 OFFCURVE",
"308 417 QCURVE",
"345 388 LINE",
"440 399 OFFCURVE",
"440 481 QCURVE SMOOTH",
"440 532 OFFCURVE",
"395 532 QCURVE SMOOTH",
"354 532 OFFCURVE",
"354 493 QCURVE SMOOTH",
"354 477 OFFCURVE",
"383 459 OFFCURVE",
"383 448 QCURVE SMOOTH"
);
}
);
userData = {
assembly = "NPUSHB[ ]\011/* 111 values pushed */
41 2 2 7 5 33 1 8 7 9 1 0 8 27 1 9 1 4 74 11 1 6 4 3 4 6 3 126 0 4 0 5 7 4 5 103 12 1 8 0 0 1 8 0 103 0 7 7 3 95 0 3 3 28 75 0 1 1 9 93 13 1 9 9 21 75 0 10 10 2 95 0 2 2 30 2 76 69 68 55 55 0 0 76 74 68 81 69 80 55 67 55 66 61 59 0 54 0 53 51 49 45 43 40 38 37 52 38 14 7 23 
CALL[ ]\011/* CallFunction */";
};
width = 460;
},
{
anchors = (
{
name = top;
position = "{247, 425}";
}
);
background = {
paths = (
{
closed = 1;
nodes = (
"418 449 OFFCURVE",
"427 442 OFFCURVE",
"433 434 QCURVE SMOOTH",
"441 424 OFFCURVE",
"455 414 OFFCURVE",
"470 414 QCURVE SMOOTH",
"492 414 OFFCURVE",
"512 442 OFFCURVE",
"512 459 QCURVE SMOOTH",
"512 479 OFFCURVE",
"484 510 OFFCURVE",
"451 510 QCURVE SMOOTH",
"389 510 OFFCURVE",
"326 427 QCURVE",
"293 435 OFFCURVE",
"248 435 QCURVE SMOOTH",
"158 435 OFFCURVE",
"49 361 OFFCURVE",
"49 295 QCURVE SMOOTH",
"49 216 OFFCURVE",
"128 181 QCURVE",
"97 154 LINE SMOOTH",
"70 130 OFFCURVE",
"50 96 OFFCURVE",
"50 75 QCURVE SMOOTH",
"50 44 OFFCURVE",
"97 3 OFFCURVE",
"136 -5 QCURVE",
"36 -49 OFFCURVE",
"36 -123 QCURVE SMOOTH",
"36 -182 OFFCURVE",
"140 -245 OFFCURVE",
"235 -245 QCURVE SMOOTH",
"353 -245 OFFCURVE",
"491 -142 OFFCURVE",
"491 -51 QCURVE SMOOTH",
"491 28 OFFCURVE",
"395 99 OFFCURVE",
"304 99 QCURVE SMOOTH",
"205 99 LINE SMOOTH",
"147 99 OFFCURVE",
"147 131 QCURVE SMOOTH",
"147 150 OFFCURVE",
"168 168 QCURVE",
"205 159 OFFCURVE",
"247 159 QCURVE SMOOTH",
"337 159 OFFCURVE",
"443 232 OFFCURVE",
"443 298 QCURVE SMOOTH",
"443 384 OFFCURVE",
"356 418 QCURVE",
"366 431 OFFCURVE",
"398 449 OFFCURVE",
"410 449 QCURVE SMOOTH"
);
},
{
closed = 1;
nodes = (
"210 189 OFFCURVE",
"183 235 OFFCURVE",
"183 294 QCURVE SMOOTH",
"183 354 OFFCURVE",
"211 401 OFFCURVE",
"245 401 QCURVE SMOOTH",
"280 401 OFFCURVE",
"309 352 OFFCURVE",
"309 295 QCURVE SMOOTH",
"309 238 OFFCURVE",
"280 189 OFFCURVE",
"244 189 QCURVE SMOOTH"
);
},
{
closed = 1;
nodes = (
"289 -11 LINE SMOOTH",
"338 -11 OFFCURVE",
"382 -49 OFFCURVE",
"382 -89 QCURVE SMOOTH",
"382 -144 OFFCURVE",
"307 -212 OFFCURVE",
"243 -212 QCURVE SMOOTH",
"184 -212 OFFCURVE",
"128 -160 OFFCURVE",
"128 -114 QCURVE SMOOTH",
"128 -80 OFFCURVE",
"162 -21 OFFCURVE",
"187 -11 QCURVE",
"189 -11 LINE"
);
},
{
closed = 1;
nodes = (
"422 449 OFFCURVE",
"441 424 OFFCURVE",
"455 414 OFFCURVE",
"470 414 QCURVE SMOOTH",
"492 414 OFFCURVE",
"512 442 OFFCURVE",
"512 459 QCURVE SMOOTH",
"512 479 OFFCURVE",
"484 510 OFFCURVE",
"451 510 QCURVE SMOOTH",
"389 510 OFFCURVE",
"326 427 QCURVE",
"293 435 OFFCURVE",
"248 435 QCURVE SMOOTH",
"158 435 OFFCURVE",
"49 361 OFFCURVE",
"49 295 QCURVE SMOOTH",
"49 216 OFFCURVE",
"128 181 QCURVE",
"97 154 LINE SMOOTH",
"70 130 OFFCURVE",
"50 96 OFFCURVE",
"50 75 QCURVE SMOOTH",
"50 15 OFFCURVE",
"136 -5 QCURVE",
"36 -49 OFFCURVE",
"36 -123 QCURVE SMOOTH",
"36 -182 OFFCURVE",
"140 -245 OFFCURVE",
"235 -245 QCURVE SMOOTH",
"353 -245 OFFCURVE",
"491 -142 OFFCURVE",
"491 -51 QCURVE SMOOTH",
"491 28 OFFCURVE",
"395 99 OFFCURVE",
"304 99 QCURVE SMOOTH",
"205 99 LINE SMOOTH",
"147 99 OFFCURVE",
"147 131 QCURVE SMOOTH",
"147 150 OFFCURVE",
"168 168 QCURVE",
"205 159 OFFCURVE",
"247 159 QCURVE SMOOTH",
"337 159 OFFCURVE",
"443 232 OFFCURVE",
"443 298 QCURVE SMOOTH",
"443 384 OFFCURVE",
"356 418 QCURVE",
"366 431 OFFCURVE",
"398 449 OFFCURVE",
"411 449 QCURVE SMOOTH"
);
},
{
closed = 1;
nodes = (
"210 189 OFFCURVE",
"183 235 OFFCURVE",
"183 294 QCURVE SMOOTH",
"183 354 OFFCURVE",
"211 401 OFFCURVE",
"245 401 QCURVE SMOOTH",
"280 401 OFFCURVE",
"309 352 OFFCURVE",
"309 295 QCURVE SMOOTH",
"309 238 OFFCURVE",
"280 189 OFFCURVE",
"244 189 QCURVE SMOOTH"
);
},
{
closed = 1;
nodes = (
"289 -11 LINE SMOOTH",
"338 -11 OFFCURVE",
"382 -49 OFFCURVE",
"382 -89 QCURVE SMOOTH",
"382 -144 OFFCURVE",
"307 -212 OFFCURVE",
"243 -212 QCURVE SMOOTH",
"184 -212 OFFCURVE",
"128 -160 OFFCURVE",
"128 -114 QCURVE SMOOTH",
"128 -80 OFFCURVE",
"162 -21 OFFCURVE",
"189 -11 QCURVE"
);
}
);
};
layerId = "A0AC7266-FF1C-4B13-9E61-C3CFB2289D5A";
paths = (
{
closed = 1;
nodes = (
"350 435 OFFCURVE",
"248 435 QCURVE SMOOTH",
"158 435 OFFCURVE",
"49 361 OFFCURVE",
"49 295 QCURVE SMOOTH",
"49 216 OFFCURVE",
"128 181 QCURVE",
"97 154 LINE SMOOTH",
"70 130 OFFCURVE",
"50 96 OFFCURVE",
"50 75 QCURVE SMOOTH",
"50 15 OFFCURVE",
"136 -5 QCURVE",
"36 -49 OFFCURVE",
"36 -123 QCURVE SMOOTH",
"36 -182 OFFCURVE",
"140 -245 OFFCURVE",
"235 -245 QCURVE SMOOTH",
"353 -245 OFFCURVE",
"491 -142 OFFCURVE",
"491 -51 QCURVE SMOOTH",
"491 28 OFFCURVE",
"395 99 OFFCURVE",
"304 99 QCURVE SMOOTH",
"205 99 LINE SMOOTH",
"147 99 OFFCURVE",
"147 131 QCURVE SMOOTH",
"147 150 OFFCURVE",
"168 168 QCURVE",
"205 159 OFFCURVE",
"247 159 QCURVE SMOOTH",
"337 159 OFFCURVE",
"443 232 OFFCURVE",
"443 298 QCURVE SMOOTH",
"443 354 OFFCURVE"
);
},
{
closed = 1;
nodes = (
"210 189 OFFCURVE",
"183 235 OFFCURVE",
"183 294 QCURVE SMOOTH",
"183 354 OFFCURVE",
"211 401 OFFCURVE",
"245 401 QCURVE SMOOTH",
"280 401 OFFCURVE",
"309 352 OFFCURVE",
"309 295 QCURVE SMOOTH",
"309 238 OFFCURVE",
"280 189 OFFCURVE",
"244 189 QCURVE SMOOTH"
);
},
{
closed = 1;
nodes = (
"289 -11 LINE SMOOTH",
"338 -11 OFFCURVE",
"382 -49 OFFCURVE",
"382 -89 QCURVE SMOOTH",
"382 -144 OFFCURVE",
"307 -212 OFFCURVE",
"243 -212 QCURVE SMOOTH",
"184 -212 OFFCURVE",
"128 -160 OFFCURVE",
"128 -114 QCURVE SMOOTH",
"128 -80 OFFCURVE",
"162 -21 OFFCURVE",
"189 -11 QCURVE"
);
},
{
closed = 1;
nodes = (
"429 426 OFFCURVE",
"378 411 OFFCURVE",
"345 422 QCURVE",
"390 384 LINE",
"497 395 OFFCURVE",
"497 491 QCURVE SMOOTH",
"497 550 OFFCURVE",
"444 550 QCURVE SMOOTH",
"397 550 OFFCURVE",
"397 505 QCURVE SMOOTH",
"397 487 OFFCURVE",
"429 467 OFFCURVE",
"429 454 QCURVE SMOOTH"
);
}
);
userData = {
assembly = "NPUSHB[ ]\011/* 16 values pushed */
39 2 2 5 3 32 9 2 0 8 25 1 10 1 3 74 
MPPEM[ ]\011/* MeasurePixelPerEm */
PUSHB[ ]\011/* 1 value pushed */
36 
LT[ ]\011/* LessThan */
IF[ ]\011/* If */
NPUSHB[ ]\011/* 57 values pushed */
0 5 3 7 6 5 112 0 4 11 1 6 3 4 6 103 12 1 8 0 0 1 8 0 103 0 7 7 3 95 0 3 3 28 75 0 1 1 10 93 13 1 10 10 18 75 0 9 9 2 95 0 2 2 30 2 76 
ELSE[ ]\011/* Else */
NPUSHB[ ]\011/* 58 values pushed */
0 5 3 7 3 5 7 126 0 4 11 1 6 3 4 6 103 12 1 8 0 0 1 8 0 103 0 7 7 3 95 0 3 3 28 75 0 1 1 10 93 13 1 10 10 18 75 0 9 9 2 95 0 2 2 30 2 76 
EIF[ ]\011/* EndIf */
NPUSHB[ ]\011/* 31 values pushed */
66 66 54 54 0 0 66 79 66 78 74 72 54 65 54 64 60 58 0 53 0 52 36 34 47 36 52 38 14 7 26 
CALL[ ]\011/* CallFunction */";
};
width = 511;
}
);
leftKerningGroup = g;
note = g;
unicode = 0067;
},
{
glyphname = gcircumflex;
layers = (
{
layerId = "3A4136D0-3900-4A7F-B896-13EBFCDD931C";
paths = (
{
closed = 1;
nodes = (
"335 514 OFFCURVE",
"323 528 OFFCURVE",
"284 577 OFFCURVE",
"230 649 OFFCURVE",
"222 649 QCURVE SMOOTH",
"214 649 OFFCURVE",
"160 577 OFFCURVE",
"121 528 OFFCURVE",
"109 514 OFFCURVE",
"109 511 QCURVE SMOOTH",
"109 503 OFFCURVE",
"116 503 QCURVE SMOOTH",
"123 503 OFFCURVE",
"139 515 QCURVE SMOOTH",
"222 579 LINE",
"305 515 LINE SMOOTH",
"321 503 OFFCURVE",
"328 503 QCURVE SMOOTH",
"335 503 OFFCURVE",
"335 511 QCURVE SMOOTH"
);
},
{
closed = 1;
nodes = (
"310 430 OFFCURVE",
"227 430 QCURVE SMOOTH",
"152 430 OFFCURVE",
"57 347 OFFCURVE",
"57 280 QCURVE SMOOTH",
"57 203 OFFCURVE",
"122 160 QCURVE",
"95 138 LINE SMOOTH",
"69 117 OFFCURVE",
"48 90 OFFCURVE",
"48 71 QCURVE SMOOTH",
"48 19 OFFCURVE",
"122 5 QCURVE",
"32 -35 OFFCURVE",
"32 -112 QCURVE SMOOTH",
"32 -177 OFFCURVE",
"127 -245 OFFCURVE",
"215 -245 QCURVE SMOOTH",
"322 -245 OFFCURVE",
"453 -151 OFFCURVE",
"453 -74 QCURVE SMOOTH",
"453 1 OFFCURVE",
"378 65 OFFCURVE",
"304 65 QCURVE SMOOTH",
"171 65 LINE SMOOTH",
"115 65 OFFCURVE",
"115 102 QCURVE SMOOTH",
"115 125 OFFCURVE",
"149 146 QCURVE",
"185 131 OFFCURVE",
"227 131 QCURVE SMOOTH",
"304 131 OFFCURVE",
"398 214 OFFCURVE",
"398 280 QCURVE SMOOTH",
"398 348 OFFCURVE"
);
},
{
closed = 1;
nodes = (
"174 154 OFFCURVE",
"146 217 OFFCURVE",
"146 280 QCURVE SMOOTH",
"146 350 OFFCURVE",
"181 403 OFFCURVE",
"227 403 QCURVE SMOOTH",
"273 403 OFFCURVE",
"309 347 OFFCURVE",
"309 280 QCURVE SMOOTH",
"309 211 OFFCURVE",
"274 154 OFFCURVE",
"227 154 QCURVE SMOOTH"
);
},
{
closed = 1;
nodes = (
"289 0 LINE SMOOTH",
"340 0 OFFCURVE",
"387 -40 OFFCURVE",
"387 -81 QCURVE SMOOTH",
"387 -143 OFFCURVE",
"297 -219 OFFCURVE",
"214 -219 QCURVE SMOOTH",
"148 -219 OFFCURVE",
"81 -159 OFFCURVE",
"81 -110 QCURVE SMOOTH",
"81 -68 OFFCURVE",
"146 0 OFFCURVE",
"189 0 QCURVE SMOOTH"
);
},
{
closed = 1;
nodes = (
"383 422 OFFCURVE",
"339 405 OFFCURVE",
"308 417 QCURVE",
"345 388 LINE",
"440 399 OFFCURVE",
"440 481 QCURVE SMOOTH",
"440 532 OFFCURVE",
"395 532 QCURVE SMOOTH",
"354 532 OFFCURVE",
"354 493 QCURVE SMOOTH",
"354 477 OFFCURVE",
"383 459 OFFCURVE",
"383 448 QCURVE SMOOTH"
);
}
);
width = 460;
},
{
layerId = "A0AC7266-FF1C-4B13-9E61-C3CFB2289D5A";
paths = (
{
closed = 1;
nodes = (
"370 505 OFFCURVE",
"357 522 OFFCURVE",
"328 563 OFFCURVE",
"263 649 OFFCURVE",
"247 649 QCURVE SMOOTH",
"231 649 OFFCURVE",
"170 563 OFFCURVE",
"138 522 OFFCURVE",
"124 505 OFFCURVE",
"124 501 QCURVE SMOOTH",
"124 493 OFFCURVE",
"133 493 QCURVE SMOOTH",
"144 493 OFFCURVE",
"160 505 QCURVE SMOOTH",
"247 571 LINE",
"333 505 LINE SMOOTH",
"349 493 OFFCURVE",
"360 493 QCURVE SMOOTH",
"370 493 OFFCURVE",
"370 501 QCURVE SMOOTH"
);
},
{
closed = 1;
nodes = (
"350 435 OFFCURVE",
"248 435 QCURVE SMOOTH",
"158 435 OFFCURVE",
"49 361 OFFCURVE",
"49 295 QCURVE SMOOTH",
"49 216 OFFCURVE",
"128 181 QCURVE",
"97 154 LINE SMOOTH",
"70 130 OFFCURVE",
"50 96 OFFCURVE",
"50 75 QCURVE SMOOTH",
"50 15 OFFCURVE",
"136 -5 QCURVE",
"36 -49 OFFCURVE",
"36 -123 QCURVE SMOOTH",
"36 -182 OFFCURVE",
"140 -245 OFFCURVE",
"235 -245 QCURVE SMOOTH",
"353 -245 OFFCURVE",
"491 -142 OFFCURVE",
"491 -51 QCURVE SMOOTH",
"491 28 OFFCURVE",
"395 99 OFFCURVE",
"304 99 QCURVE SMOOTH",
"205 99 LINE SMOOTH",
"147 99 OFFCURVE",
"147 131 QCURVE SMOOTH",
"147 150 OFFCURVE",
"168 168 QCURVE",
"205 159 OFFCURVE",
"247 159 QCURVE SMOOTH",
"337 159 OFFCURVE",
"443 232 OFFCURVE",
"443 298 QCURVE SMOOTH",
"443 354 OFFCURVE"
);
},
{
closed = 1;
nodes = (
"210 189 OFFCURVE",
"183 235 OFFCURVE",
"183 294 QCURVE SMOOTH",
"183 354 OFFCURVE",
"211 401 OFFCURVE",
"245 401 QCURVE SMOOTH",
"280 401 OFFCURVE",
"309 352 OFFCURVE",
"309 295 QCURVE SMOOTH",
"309 238 OFFCURVE",
"280 189 OFFCURVE",
"244 189 QCURVE SMOOTH"
);
},
{
closed = 1;
nodes = (
"289 -11 LINE SMOOTH",
"338 -11 OFFCURVE",
"382 -49 OFFCURVE",
"382 -89 QCURVE SMOOTH",
"382 -144 OFFCURVE",
"307 -212 OFFCURVE",
"243 -212 QCURVE SMOOTH",
"184 -212 OFFCURVE",
"128 -160 OFFCURVE",
"128 -114 QCURVE SMOOTH",
"128 -80 OFFCURVE",
"162 -21 OFFCURVE",
"189 -11 QCURVE"
);
},
{
closed = 1;
nodes = (
"429 426 OFFCURVE",
"378 411 OFFCURVE",
"345 422 QCURVE",
"390 384 LINE",
"497 395 OFFCURVE",
"497 491 QCURVE SMOOTH",
"497 550 OFFCURVE",
"444 550 QCURVE SMOOTH",
"397 550 OFFCURVE",
"397 505 QCURVE SMOOTH",
"397 487 OFFCURVE",
"429 467 OFFCURVE",
"429 454 QCURVE SMOOTH"
);
}
);
width = 511;
}
);
unicode = 011D;
},
{
glyphname = h;
layers = (
{
anchors = (
{
name = bottom;
position = "{271, 0}";
},
{
name = center;
position = "{145, 544}";
},
{
name = top;
position = "{125, 677}";
}
);
background = {
paths = (
{
closed = 1;
nodes = (
"468 24 LINE",
"455 24 OFFCURVE",
"455 43 QCURVE SMOOTH",
"455 288 LINE SMOOTH",
"455 363 OFFCURVE",
"392 430 OFFCURVE",
"321 430 QCURVE SMOOTH",
"270 430 OFFCURVE",
"192 377 OFFCURVE",
"171 330 QCURVE",
"171 730 LINE",
"35 730 LINE",
"35 705 LINE",
"72 707 LINE",
"85 707 OFFCURVE",
"85 686 QCURVE SMOOTH",
"85 43 LINE SMOOTH",
"85 27 OFFCURVE",
"72 24 QCURVE",
"35 26 LINE",
"35 0 LINE",
"230 0 LINE",
"230 26 LINE",
"184 24 LINE",
"171 24 OFFCURVE",
"171 43 QCURVE SMOOTH",
"171 219 LINE",
"174 301 OFFCURVE",
"245 398 OFFCURVE",
"302 398 QCURVE SMOOTH",
"332 398 OFFCURVE",
"360 370 OFFCURVE",
"369 318 OFFCURVE",
"369 270 QCURVE SMOOTH",
"369 43 LINE SMOOTH",
"369 27 OFFCURVE",
"356 24 QCURVE",
"310 26 LINE",
"310 0 LINE",
"505 0 LINE",
"505 26 LINE"
);
}
);
};
layerId = "3A4136D0-3900-4A7F-B896-13EBFCDD931C";
paths = (
{
closed = 1;
nodes = (
"468 24 LINE",
"455 24 OFFCURVE",
"455 43 QCURVE SMOOTH",
"455 288 LINE SMOOTH",
"455 363 OFFCURVE",
"392 430 OFFCURVE",
"321 430 QCURVE SMOOTH",
"270 430 OFFCURVE",
"192 377 OFFCURVE",
"171 330 QCURVE",
"171 730 LINE",
"35 730 LINE",
"35 705 LINE",
"72 707 LINE",
"85 707 OFFCURVE",
"85 686 QCURVE SMOOTH",
"85 43 LINE SMOOTH",
"85 27 OFFCURVE",
"72 24 QCURVE",
"35 26 LINE",
"35 0 LINE",
"230 0 LINE",
"230 26 LINE",
"184 24 LINE",
"171 24 OFFCURVE",
"171 43 QCURVE SMOOTH",
"171 219 LINE",
"174 301 OFFCURVE",
"245 398 OFFCURVE",
"302 398 QCURVE SMOOTH",
"340 398 OFFCURVE",
"369 349 OFFCURVE",
"369 270 QCURVE SMOOTH",
"369 43 LINE SMOOTH",
"369 27 OFFCURVE",
"356 24 QCURVE",
"310 26 LINE",
"310 0 LINE",
"505 0 LINE",
"505 26 LINE"
);
}
);
userData = {
assembly = "NPUSHB[ ]\011/* 58 values pushed */
31 1 1 2 1 74 0 7 0 6 8 7 6 103 0 2 2 8 95 0 8 8 28 75 10 9 5 3 4 1 1 0 93 4 1 0 0 21 0 76 0 0 0 40 0 39 35 17 36 17 17 36 38 17 17 11 7 29 
CALL[ ]\011/* CallFunction */";
};
width = 525;
},
{
anchors = (
{
name = bottom;
position = "{274, 0}";
},
{
name = center;
position = "{138, 544}";
},
{
name = top;
position = "{128, 677}";
}
);
background = {
paths = (
{
closed = 1;
nodes = (
"495 32 LINE",
"482 32 OFFCURVE",
"482 51 QCURVE SMOOTH",
"482 292 LINE SMOOTH",
"482 366 OFFCURVE",
"420 435 OFFCURVE",
"352 435 QCURVE SMOOTH",
"298 435 OFFCURVE",
"219 382 OFFCURVE",
"197 334 QCURVE",
"197 730 LINE",
"20 730 LINE",
"20 697 LINE",
"53 699 LINE",
"66 696 OFFCURVE",
"66 679 QCURVE SMOOTH",
"66 51 LINE SMOOTH",
"66 35 OFFCURVE",
"53 32 QCURVE",
"20 34 LINE",
"20 0 LINE",
"249 0 LINE",
"249 34 LINE",
"210 32 LINE",
"197 32 OFFCURVE",
"197 51 QCURVE SMOOTH",
"197 198 LINE SMOOTH",
"197 258 OFFCURVE",
"229 344 OFFCURVE",
"278 388 OFFCURVE",
"304 388 QCURVE SMOOTH",
"334 388 OFFCURVE",
"351 346 OFFCURVE",
"351 293 QCURVE SMOOTH",
"351 51 LINE SMOOTH",
"351 35 OFFCURVE",
"338 32 QCURVE",
"300 34 LINE",
"300 0 LINE",
"528 0 LINE",
"528 34 LINE"
);
}
);
};
layerId = "A0AC7266-FF1C-4B13-9E61-C3CFB2289D5A";
paths = (
{
closed = 1;
nodes = (
"495 32 LINE",
"482 32 OFFCURVE",
"482 51 QCURVE SMOOTH",
"482 292 LINE SMOOTH",
"482 366 OFFCURVE",
"420 435 OFFCURVE",
"352 435 QCURVE SMOOTH",
"298 435 OFFCURVE",
"219 382 OFFCURVE",
"197 334 QCURVE",
"197 730 LINE",
"20 730 LINE",
"20 697 LINE",
"53 699 LINE",
"66 696 OFFCURVE",
"66 679 QCURVE SMOOTH",
"66 51 LINE SMOOTH",
"66 35 OFFCURVE",
"53 32 QCURVE",
"20 34 LINE",
"20 0 LINE",
"249 0 LINE",
"249 34 LINE",
"210 32 LINE",
"197 32 OFFCURVE",
"197 51 QCURVE SMOOTH",
"197 198 LINE SMOOTH",
"197 278 OFFCURVE",
"258 388 OFFCURVE",
"304 388 QCURVE SMOOTH",
"334 388 OFFCURVE",
"351 346 OFFCURVE",
"351 293 QCURVE SMOOTH",
"351 51 LINE SMOOTH",
"351 35 OFFCURVE",
"338 32 QCURVE",
"300 34 LINE",
"300 0 LINE",
"528 0 LINE",
"528 34 LINE"
);
}
);
userData = {
assembly = "NPUSHB[ ]\011/* 58 values pushed */
31 1 1 2 1 74 0 7 0 6 8 7 6 101 0 2 2 8 95 0 8 8 28 75 10 9 5 3 4 1 1 0 93 4 1 0 0 21 0 76 0 0 0 40 0 39 35 17 21 17 17 37 37 17 17 11 7 29 
CALL[ ]\011/* CallFunction */";
};
width = 539;
}
);
leftKerningGroup = h;
note = h;
rightKerningGroup = a;
unicode = 0068;
},
{
glyphname = i;
layers = (
{
anchors = (
{
name = bottom;
position = "{129, 0}";
},
{
name = ogonek;
position = "{127, 0}";
}
);
layerId = "3A4136D0-3900-4A7F-B896-13EBFCDD931C";
paths = (
{
closed = 1;
nodes = (
"97 643 OFFCURVE",
"67 617 OFFCURVE",
"67 596 QCURVE SMOOTH",
"67 573 OFFCURVE",
"97 548 OFFCURVE",
"121 548 QCURVE SMOOTH",
"146 548 OFFCURVE",
"176 573 OFFCURVE",
"176 596 QCURVE SMOOTH",
"176 617 OFFCURVE",
"145 643 OFFCURVE",
"121 643 QCURVE SMOOTH"
);
},
{
closed = 1;
nodes = (
"171 420 LINE",
"36 420 LINE",
"36 394 LINE",
"73 396 LINE",
"85 393 OFFCURVE",
"85 376 QCURVE SMOOTH",
"85 43 LINE SMOOTH",
"85 24 OFFCURVE",
"72 24 QCURVE",
"35 26 LINE",
"35 0 LINE",
"220 0 LINE",
"220 26 LINE",
"184 24 LINE SMOOTH",
"171 23 OFFCURVE",
"171 43 QCURVE SMOOTH"
);
}
);
userData = {
assembly = "NPUSHB[ ]\011/* 51 values pushed */
7 1 1 0 0 6 1 0 103 0 5 5 6 93 0 6 6 20 75 4 1 2 2 3 93 0 3 3 21 3 76 0 0 27 26 25 24 20 18 17 16 15 13 0 11 0 10 36 8 7 21 
CALL[ ]\011/* CallFunction */";
};
width = 255;
},
{
anchors = (
{
name = bottom;
position = "{135, 0}";
},
{
name = ogonek;
position = "{133, 0}";
}
);
layerId = "A0AC7266-FF1C-4B13-9E61-C3CFB2289D5A";
paths = (
{
closed = 1;
nodes = (
"95 657 OFFCURVE",
"52 623 OFFCURVE",
"52 595 QCURVE SMOOTH",
"52 566 OFFCURVE",
"95 532 OFFCURVE",
"129 532 QCURVE SMOOTH",
"163 532 OFFCURVE",
"206 566 OFFCURVE",
"206 595 QCURVE SMOOTH",
"206 623 OFFCURVE",
"163 657 OFFCURVE",
"129 657 QCURVE SMOOTH"
);
},
{
closed = 1;
nodes = (
"197 425 LINE",
"21 425 LINE",
"21 392 LINE",
"54 394 LINE",
"66 391 OFFCURVE",
"66 374 QCURVE SMOOTH",
"66 51 LINE SMOOTH",
"66 32 OFFCURVE",
"55 32 QCURVE SMOOTH",
"20 34 LINE",
"20 0 LINE",
"243 0 LINE",
"243 34 LINE",
"210 32 LINE SMOOTH",
"197 31 OFFCURVE",
"197 51 QCURVE SMOOTH"
);
}
);
userData = {
assembly = "NPUSHB[ ]\011/* 51 values pushed */
7 1 1 0 0 6 1 0 103 0 5 5 6 93 0 6 6 20 75 4 1 2 2 3 93 0 3 3 21 3 76 0 0 28 27 26 25 21 18 17 16 15 14 0 11 0 10 36 8 7 21 
CALL[ ]\011/* CallFunction */";
};
width = 263;
}
);
leftKerningGroup = i;
note = i;
unicode = 0069;
},
{
glyphname = idotless;
layers = (
{
anchors = (
{
name = bottom;
position = "{127, 0}";
},
{
name = top;
position = "{127, 420}";
}
);
layerId = "3A4136D0-3900-4A7F-B896-13EBFCDD931C";
paths = (
{
closed = 1;
nodes = (
"171 420 LINE",
"36 420 LINE",
"36 394 LINE",
"73 396 LINE",
"85 393 OFFCURVE",
"85 376 QCURVE SMOOTH",
"85 43 LINE SMOOTH",
"85 24 OFFCURVE",
"72 24 QCURVE",
"35 26 LINE",
"35 0 LINE",
"220 0 LINE",
"220 26 LINE",
"184 24 LINE",
"171 24 OFFCURVE",
"171 43 QCURVE SMOOTH"
);
}
);
userData = {
assembly = "NPUSHB[ ]\011/* 30 values pushed */
0 3 3 4 93 0 4 4 20 75 2 1 0 0 1 93 0 1 1 21 1 76 17 20 33 17 33 5 7 25 
CALL[ ]\011/* CallFunction */";
};
width = 255;
},
{
anchors = (
{
name = bottom;
position = "{131, 0}";
},
{
name = top;
position = "{131, 425}";
}
);
layerId = "A0AC7266-FF1C-4B13-9E61-C3CFB2289D5A";
paths = (
{
closed = 1;
nodes = (
"197 425 LINE",
"21 425 LINE",
"21 392 LINE",
"54 394 LINE",
"66 391 OFFCURVE",
"66 374 QCURVE SMOOTH",
"66 51 LINE SMOOTH",
"66 32 OFFCURVE",
"55 32 QCURVE SMOOTH",
"20 34 LINE",
"20 0 LINE",
"243 0 LINE",
"243 34 LINE",
"210 32 LINE SMOOTH",
"197 31 OFFCURVE",
"197 51 QCURVE SMOOTH"
);
}
);
userData = {
assembly = "NPUSHB[ ]\011/* 30 values pushed */
0 3 3 4 93 0 4 4 20 75 2 1 0 0 1 93 0 1 1 21 1 76 17 20 49 17 18 5 7 25 
CALL[ ]\011/* CallFunction */";
};
width = 263;
}
);
leftKerningGroup = dotlessi;
note = dotlessi;
unicode = 0131;
},
{
glyphname = j;
layers = (
{
layerId = "3A4136D0-3900-4A7F-B896-13EBFCDD931C";
paths = (
{
closed = 1;
nodes = (
"99 643 OFFCURVE",
"69 618 OFFCURVE",
"69 596 QCURVE SMOOTH",
"69 573 OFFCURVE",
"98 548 OFFCURVE",
"123 548 QCURVE SMOOTH",
"147 548 OFFCURVE",
"178 573 OFFCURVE",
"178 596 QCURVE SMOOTH",
"178 617 OFFCURVE",
"147 643 OFFCURVE",
"123 643 QCURVE SMOOTH"
);
},
{
closed = 1;
nodes = (
"171 420 LINE",
"31 420 LINE",
"31 394 LINE",
"72 396 LINE",
"85 396 OFFCURVE",
"85 376 QCURVE SMOOTH",
"85 -59 LINE SMOOTH",
"85 -90 OFFCURVE",
"87 -133 QCURVE SMOOTH",
"91 -216 OFFCURVE",
"34 -216 QCURVE SMOOTH",
"3 -216 OFFCURVE",
"3 -191 QCURVE SMOOTH",
"3 -187 OFFCURVE",
"9 -165 OFFCURVE",
"9 -160 QCURVE SMOOTH",
"9 -144 OFFCURVE",
"-14 -132 OFFCURVE",
"-26 -132 QCURVE SMOOTH",
"-47 -132 OFFCURVE",
"-73 -156 OFFCURVE",
"-73 -176 QCURVE SMOOTH",
"-73 -204 OFFCURVE",
"-18 -243 OFFCURVE",
"28 -243 QCURVE SMOOTH",
"171 -243 OFFCURVE",
"171 -4 QCURVE SMOOTH"
);
}
);
userData = {
assembly = "PUSHB[ ]\011/* 6 values pushed */
23 1 4 3 1 74 
MPPEM[ ]\011/* MeasurePixelPerEm */
PUSHB[ ]\011/* 1 value pushed */
15 
LT[ ]\011/* LessThan */
IF[ ]\011/* If */
NPUSHB[ ]\011/* 37 values pushed */
0 3 5 4 4 3 112 7 1 1 0 0 6 1 0 103 0 5 5 6 93 0 6 6 20 75 0 4 4 2 96 0 2 2 30 2 76 
ELSE[ ]\011/* Else */
NPUSHB[ ]\011/* 38 values pushed */
0 3 5 4 5 3 4 126 7 1 1 0 0 6 1 0 103 0 5 5 6 93 0 6 6 20 75 0 4 4 2 96 0 2 2 30 2 76 
EIF[ ]\011/* EndIf */
NPUSHB[ ]\011/* 20 values pushed */
0 0 40 39 38 36 30 28 21 19 15 13 0 11 0 10 36 8 7 21 
CALL[ ]\011/* CallFunction */";
};
width = 251;
},
{
layerId = "A0AC7266-FF1C-4B13-9E61-C3CFB2289D5A";
paths = (
{
closed = 1;
nodes = (
"95 657 OFFCURVE",
"53 623 OFFCURVE",
"53 595 QCURVE SMOOTH",
"53 565 OFFCURVE",
"95 532 OFFCURVE",
"129 532 QCURVE SMOOTH",
"164 532 OFFCURVE",
"207 566 OFFCURVE",
"207 595 QCURVE SMOOTH",
"207 623 OFFCURVE",
"163 657 OFFCURVE",
"129 657 QCURVE SMOOTH"
);
},
{
closed = 1;
nodes = (
"197 425 LINE",
"20 425 LINE",
"20 392 LINE",
"53 394 LINE SMOOTH",
"66 394 OFFCURVE",
"66 374 QCURVE SMOOTH",
"66 -37 LINE SMOOTH",
"68 -100 OFFCURVE",
"76 -156 QCURVE SMOOTH",
"83 -208 OFFCURVE",
"44 -209 QCURVE SMOOTH",
"22 -210 OFFCURVE",
"22 -184 QCURVE SMOOTH",
"22 -180 OFFCURVE",
"28 -158 OFFCURVE",
"28 -153 QCURVE SMOOTH",
"28 -128 OFFCURVE",
"-9 -108 OFFCURVE",
"-27 -108 QCURVE SMOOTH",
"-56 -108 OFFCURVE",
"-90 -140 OFFCURVE",
"-90 -166 QCURVE SMOOTH",
"-90 -201 OFFCURVE",
"-22 -243 OFFCURVE",
"39 -243 QCURVE SMOOTH",
"197 -243 OFFCURVE",
"197 -12 QCURVE SMOOTH"
);
}
);
userData = {
assembly = "NPUSHB[ ]\011/* 10 values pushed */
41 1 3 5 24 1 4 3 2 74 
MPPEM[ ]\011/* MeasurePixelPerEm */
PUSHB[ ]\011/* 1 value pushed */
12 
LT[ ]\011/* LessThan */
IF[ ]\011/* If */
NPUSHB[ ]\011/* 32 values pushed */
0 3 5 4 4 3 112 6 1 1 0 0 5 1 0 103 0 5 5 20 75 0 4 4 2 96 0 2 2 30 2 76 
ELSE[ ]\011/* Else */
NPUSHB[ ]\011/* 33 values pushed */
0 3 5 4 5 3 4 126 6 1 1 0 0 5 1 0 103 0 5 5 20 75 0 4 4 2 96 0 2 2 30 2 76 
EIF[ ]\011/* EndIf */
NPUSHB[ ]\011/* 18 values pushed */
0 0 43 42 30 28 22 20 16 14 0 11 0 10 36 7 7 21 
CALL[ ]\011/* CallFunction */";
};
width = 262;
}
);
note = j;
unicode = 006A;
},
{
glyphname = jdotless;
layers = (
{
anchors = (
{
name = top;
position = "{127, 420}";
}
);
layerId = "3A4136D0-3900-4A7F-B896-13EBFCDD931C";
paths = (
{
closed = 1;
nodes = (
"171 420 LINE",
"31 420 LINE",
"31 394 LINE",
"72 396 LINE",
"85 396 OFFCURVE",
"85 376 QCURVE SMOOTH",
"85 -59 LINE SMOOTH",
"85 -90 OFFCURVE",
"87 -133 QCURVE SMOOTH",
"91 -216 OFFCURVE",
"34 -216 QCURVE SMOOTH",
"3 -216 OFFCURVE",
"3 -191 QCURVE SMOOTH",
"3 -187 OFFCURVE",
"9 -165 OFFCURVE",
"9 -160 QCURVE SMOOTH",
"9 -144 OFFCURVE",
"-14 -132 OFFCURVE",
"-26 -132 QCURVE SMOOTH",
"-47 -132 OFFCURVE",
"-73 -156 OFFCURVE",
"-73 -176 QCURVE SMOOTH",
"-73 -204 OFFCURVE",
"-18 -243 OFFCURVE",
"28 -243 QCURVE SMOOTH",
"171 -243 OFFCURVE",
"171 -4 QCURVE SMOOTH"
);
}
);
userData = {
assembly = "PUSHB[ ]\011/* 6 values pushed */
11 1 2 1 1 74 
MPPEM[ ]\011/* MeasurePixelPerEm */
PUSHB[ ]\011/* 1 value pushed */
15 
LT[ ]\011/* LessThan */
IF[ ]\011/* If */
NPUSHB[ ]\011/* 28 values pushed */
0 1 3 2 2 1 112 0 3 3 4 93 0 4 4 20 75 0 2 2 0 96 0 0 0 30 0 76 
ELSE[ ]\011/* Else */
NPUSHB[ ]\011/* 29 values pushed */
0 1 3 2 3 1 2 126 0 3 3 4 93 0 4 4 20 75 0 2 2 0 96 0 0 0 30 0 76 
EIF[ ]\011/* EndIf */
PUSHB[ ]\011/* 8 values pushed */
17 38 39 36 33 5 7 25 
CALL[ ]\011/* CallFunction */";
};
width = 251;
},
{
anchors = (
{
name = top;
position = "{128, 425}";
}
);
layerId = "A0AC7266-FF1C-4B13-9E61-C3CFB2289D5A";
paths = (
{
closed = 1;
nodes = (
"197 425 LINE",
"20 425 LINE",
"20 392 LINE",
"53 394 LINE SMOOTH",
"66 394 OFFCURVE",
"66 374 QCURVE SMOOTH",
"66 -37 LINE SMOOTH",
"68 -100 OFFCURVE",
"76 -156 QCURVE SMOOTH",
"83 -208 OFFCURVE",
"44 -209 QCURVE SMOOTH",
"22 -210 OFFCURVE",
"22 -184 QCURVE SMOOTH",
"22 -180 OFFCURVE",
"28 -158 OFFCURVE",
"28 -153 QCURVE SMOOTH",
"28 -128 OFFCURVE",
"-9 -108 OFFCURVE",
"-27 -108 QCURVE SMOOTH",
"-56 -108 OFFCURVE",
"-90 -140 OFFCURVE",
"-90 -166 QCURVE SMOOTH",
"-90 -201 OFFCURVE",
"-22 -243 OFFCURVE",
"39 -243 QCURVE SMOOTH",
"197 -243 OFFCURVE",
"197 -12 QCURVE SMOOTH"
);
}
);
userData = {
assembly = "NPUSHB[ ]\011/* 10 values pushed */
29 1 1 3 12 1 2 1 2 74 
MPPEM[ ]\011/* MeasurePixelPerEm */
PUSHB[ ]\011/* 1 value pushed */
12 
LT[ ]\011/* LessThan */
IF[ ]\011/* If */
NPUSHB[ ]\011/* 23 values pushed */
0 1 3 2 2 1 112 0 3 3 20 75 0 2 2 0 96 0 0 0 30 0 76 
ELSE[ ]\011/* Else */
NPUSHB[ ]\011/* 24 values pushed */
0 1 3 2 3 1 2 126 0 3 3 20 75 0 2 2 0 96 0 0 0 30 0 76 
EIF[ ]\011/* EndIf */
PUSHB[ ]\011/* 7 values pushed */
28 38 36 34 4 7 24 
CALL[ ]\011/* CallFunction */";
};
width = 262;
}
);
note = uni0237;
unicode = 0237;
},
{
glyphname = k;
layers = (
{
anchors = (
{
name = bottom;
position = "{259, 0}";
}
);
layerId = "3A4136D0-3900-4A7F-B896-13EBFCDD931C";
paths = (
{
closed = 1;
nodes = (
"468 24 LINE",
"462 24 OFFCURVE",
"447 34 OFFCURVE",
"441 42 QCURVE SMOOTH",
"266 283 LINE",
"383 383 LINE SMOOTH",
"399 397 OFFCURVE",
"414 397 QCURVE",
"450 395 LINE",
"450 420 LINE",
"288 420 LINE",
"288 395 LINE",
"331 397 LINE",
"335 398 OFFCURVE",
"340 393 OFFCURVE",
"340 390 QCURVE SMOOTH",
"340 383 OFFCURVE",
"334 377 QCURVE",
"171 237 LINE",
"171 730 LINE",
"36 730 LINE",
"36 705 LINE",
"73 707 LINE",
"85 707 OFFCURVE",
"85 686 QCURVE SMOOTH",
"85 43 LINE SMOOTH",
"85 27 OFFCURVE",
"72 24 QCURVE",
"35 26 LINE",
"35 0 LINE",
"230 0 LINE",
"230 26 LINE",
"184 24 LINE",
"171 24 OFFCURVE",
"171 43 QCURVE SMOOTH",
"171 202 LINE",
"204 230 LINE",
"343 38 LINE",
"347 33 OFFCURVE",
"343 24 OFFCURVE",
"336 24 QCURVE SMOOTH",
"334 24 LINE",
"289 26 LINE",
"289 0 LINE",
"504 0 LINE",
"504 26 LINE"
);
}
);
userData = {
assembly = "NPUSHB[ ]\011/* 64 values pushed */
41 27 10 9 4 1 7 1 74 0 6 0 5 8 6 5 103 9 1 7 7 8 93 0 8 8 20 75 11 10 4 2 4 1 1 0 93 3 1 0 0 21 0 76 0 0 0 45 0 44 39 37 17 38 17 36 17 17 38 49 17 12 7 29 
CALL[ ]\011/* CallFunction */";
};
width = 511;
},
{
anchors = (
{
name = bottom;
position = "{260, 0}";
}
);
layerId = "A0AC7266-FF1C-4B13-9E61-C3CFB2289D5A";
paths = (
{
closed = 1;
nodes = (
"488 32 LINE",
"482 31 OFFCURVE",
"466 42 OFFCURVE",
"461 50 QCURVE SMOOTH",
"317 298 LINE",
"414 381 LINE SMOOTH",
"430 395 OFFCURVE",
"445 395 QCURVE",
"481 393 LINE",
"481 425 LINE",
"311 425 LINE",
"311 393 LINE",
"354 395 LINE",
"358 396 OFFCURVE",
"363 391 OFFCURVE",
"363 388 QCURVE SMOOTH",
"363 381 OFFCURVE",
"357 375 QCURVE",
"197 238 LINE",
"197 730 LINE",
"21 730 LINE",
"21 698 LINE",
"54 700 LINE",
"66 700 OFFCURVE",
"66 679 QCURVE SMOOTH",
"66 51 LINE SMOOTH",
"66 35 OFFCURVE",
"53 32 QCURVE",
"20 34 LINE",
"20 0 LINE",
"245 0 LINE",
"245 34 LINE",
"210 32 LINE SMOOTH",
"197 31 OFFCURVE",
"197 51 QCURVE SMOOTH",
"197 196 LINE",
"220 215 LINE",
"319 46 LINE",
"322 40 OFFCURVE",
"319 32 OFFCURVE",
"312 32 QCURVE SMOOTH",
"310 32 LINE",
"276 34 LINE",
"276 0 LINE",
"517 0 LINE",
"517 34 LINE"
);
}
);
userData = {
assembly = "NPUSHB[ ]\011/* 57 values pushed */
41 27 10 9 0 5 1 7 1 74 0 6 0 5 8 6 5 103 9 1 7 7 8 93 0 8 8 20 75 4 2 2 1 1 0 93 3 1 0 0 21 0 76 39 37 17 38 17 36 17 17 23 49 17 10 7 29 
CALL[ ]\011/* CallFunction */";
};
width = 524;
}
);
note = k;
rightKerningGroup = k;
unicode = 006B;
},
{
glyphname = kgreenlandic;
layers = (
{
layerId = "3A4136D0-3900-4A7F-B896-13EBFCDD931C";
paths = (
{
closed = 1;
nodes = (
"468 24 LINE",
"462 24 OFFCURVE",
"447 34 OFFCURVE",
"441 42 QCURVE SMOOTH",
"266 253 LINE",
"402 383 LINE SMOOTH",
"417 398 OFFCURVE",
"433 397 QCURVE",
"469 395 LINE",
"469 420 LINE",
"307 420 LINE",
"307 395 LINE",
"350 397 LINE",
"354 398 OFFCURVE",
"359 393 OFFCURVE",
"359 390 QCURVE SMOOTH",
"359 383 OFFCURVE",
"353 377 QCURVE",
"171 207 LINE",
"171 420 LINE",
"36 420 LINE",
"36 395 LINE",
"73 397 LINE",
"85 397 OFFCURVE",
"85 376 QCURVE SMOOTH",
"85 43 LINE SMOOTH",
"85 27 OFFCURVE",
"72 24 QCURVE",
"35 26 LINE",
"35 0 LINE",
"230 0 LINE",
"230 26 LINE",
"184 24 LINE",
"171 24 OFFCURVE",
"171 43 QCURVE SMOOTH",
"171 172 LINE",
"204 200 LINE",
"343 38 LINE",
"347 33 OFFCURVE",
"343 24 OFFCURVE",
"336 24 QCURVE SMOOTH",
"334 24 LINE",
"289 26 LINE",
"289 0 LINE",
"504 0 LINE",
"504 26 LINE"
);
}
);
width = 511;
},
{
layerId = "A0AC7266-FF1C-4B13-9E61-C3CFB2289D5A";
paths = (
{
closed = 1;
nodes = (
"488 32 LINE",
"482 31 OFFCURVE",
"466 42 OFFCURVE",
"461 50 QCURVE SMOOTH",
"317 268 LINE",
"437 381 LINE SMOOTH",
"453 396 OFFCURVE",
"468 395 QCURVE",
"504 393 LINE",
"504 425 LINE",
"334 425 LINE",
"334 393 LINE",
"377 395 LINE",
"381 396 OFFCURVE",
"386 391 OFFCURVE",
"386 388 QCURVE SMOOTH",
"386 381 OFFCURVE",
"380 375 QCURVE",
"197 208 LINE",
"197 425 LINE",
"21 425 LINE",
"21 393 LINE",
"54 395 LINE",
"66 395 OFFCURVE",
"66 374 QCURVE SMOOTH",
"66 51 LINE SMOOTH",
"66 35 OFFCURVE",
"53 32 QCURVE",
"20 34 LINE",
"20 0 LINE",
"245 0 LINE",
"245 34 LINE",
"210 32 LINE SMOOTH",
"197 31 OFFCURVE",
"197 51 QCURVE SMOOTH",
"197 166 LINE",
"220 185 LINE",
"319 46 LINE",
"322 40 OFFCURVE",
"319 32 OFFCURVE",
"312 32 QCURVE SMOOTH",
"310 32 LINE",
"276 34 LINE",
"276 0 LINE",
"517 0 LINE",
"517 34 LINE"
);
}
);
width = 524;
}
);
unicode = 0138;
},
{
glyphname = l;
layers = (
{
anchors = (
{
name = bottom;
position = "{129, 0}";
},
{
name = center;
position = "{129, 371}";
},
{
name = top;
position = "{126, 692}";
},
{
name = topright;
position = "{99, 551}";
}
);
layerId = "3A4136D0-3900-4A7F-B896-13EBFCDD931C";
paths = (
{
closed = 1;
nodes = (
"35 0 LINE",
"220 0 LINE",
"220 26 LINE",
"184 24 LINE",
"171 24 OFFCURVE",
"171 43 QCURVE SMOOTH",
"171 731 LINE",
"36 731 LINE",
"36 706 LINE",
"73 708 LINE",
"85 704 OFFCURVE",
"85 687 QCURVE SMOOTH",
"85 43 LINE SMOOTH",
"85 27 OFFCURVE",
"72 24 QCURVE",
"35 26 LINE"
);
}
);
userData = {
assembly = "NPUSHB[ ]\011/* 28 values pushed */
0 2 0 1 0 2 1 101 3 1 0 0 4 93 0 4 4 21 4 76 17 34 17 21 16 5 7 25 
CALL[ ]\011/* CallFunction */";
};
width = 255;
},
{
anchors = (
{
name = bottom;
position = "{131, 0}";
},
{
name = center;
position = "{131, 371}";
},
{
name = top;
position = "{127, 701}";
},
{
name = topright;
position = "{127, 538}";
}
);
layerId = "A0AC7266-FF1C-4B13-9E61-C3CFB2289D5A";
paths = (
{
closed = 1;
nodes = (
"20 0 LINE",
"243 0 LINE",
"243 34 LINE",
"210 32 LINE SMOOTH",
"197 31 OFFCURVE",
"197 51 QCURVE SMOOTH",
"197 731 LINE",
"21 731 LINE",
"21 699 LINE",
"54 701 LINE",
"66 697 OFFCURVE",
"66 680 QCURVE SMOOTH",
"66 51 LINE SMOOTH",
"66 35 OFFCURVE",
"53 32 QCURVE",
"20 34 LINE"
);
}
);
userData = {
assembly = "NPUSHB[ ]\011/* 28 values pushed */
0 2 0 1 0 2 1 101 3 1 0 0 4 93 0 4 4 21 4 76 17 19 17 21 16 5 7 25 
CALL[ ]\011/* CallFunction */";
};
width = 263;
}
);
note = l;
unicode = 006C;
},
{
glyphname = ldot;
layers = (
{
layerId = "3A4136D0-3900-4A7F-B896-13EBFCDD931C";
paths = (
{
closed = 1;
nodes = (
"35 0 LINE",
"220 0 LINE",
"220 26 LINE",
"184 24 LINE",
"171 24 OFFCURVE",
"171 43 QCURVE SMOOTH",
"171 731 LINE",
"36 731 LINE",
"36 706 LINE",
"73 708 LINE",
"85 704 OFFCURVE",
"85 687 QCURVE SMOOTH",
"85 43 LINE SMOOTH",
"85 27 OFFCURVE",
"72 24 QCURVE",
"35 26 LINE"
);
},
{
closed = 1;
nodes = (
"203 345 OFFCURVE",
"233 318 OFFCURVE",
"257 318 QCURVE SMOOTH",
"281 318 OFFCURVE",
"311 345 OFFCURVE",
"311 366 QCURVE SMOOTH",
"311 387 OFFCURVE",
"279 415 OFFCURVE",
"257 415 QCURVE SMOOTH",
"234 415 OFFCURVE",
"203 387 OFFCURVE",
"203 366 QCURVE SMOOTH"
);
}
);
width = 259;
},
{
layerId = "A0AC7266-FF1C-4B13-9E61-C3CFB2289D5A";
paths = (
{
closed = 1;
nodes = (
"20 0 LINE",
"243 0 LINE",
"243 34 LINE",
"210 32 LINE SMOOTH",
"197 31 OFFCURVE",
"197 51 QCURVE SMOOTH",
"197 731 LINE",
"21 731 LINE",
"21 699 LINE",
"54 701 LINE",
"66 697 OFFCURVE",
"66 680 QCURVE SMOOTH",
"66 51 LINE SMOOTH",
"66 35 OFFCURVE",
"53 32 QCURVE",
"20 34 LINE"
);
},
{
closed = 1;
nodes = (
"219 334 OFFCURVE",
"256 300 OFFCURVE",
"285 300 QCURVE SMOOTH",
"314 300 OFFCURVE",
"350 334 OFFCURVE",
"350 363 QCURVE SMOOTH",
"350 391 OFFCURVE",
"313 426 OFFCURVE",
"285 426 QCURVE SMOOTH",
"256 426 OFFCURVE",
"219 391 OFFCURVE",
"219 363 QCURVE SMOOTH"
);
}
);
userData = {
assembly = "MPPEM[ ]\011/* MeasurePixelPerEm */
PUSHB[ ]\011/* 1 value pushed */
50 
LT[ ]\011/* LessThan */
IF[ ]\011/* If */
NPUSHB[ ]\011/* 30 values pushed */
0 2 0 1 5 2 1 101 0 6 6 5 95 0 5 5 20 75 3 1 0 0 4 93 0 4 4 21 4 76 
ELSE[ ]\011/* Else */
NPUSHB[ ]\011/* 28 values pushed */
0 2 0 1 5 2 1 101 0 5 0 6 0 5 6 103 3 1 0 0 4 93 0 4 4 21 4 76 
EIF[ ]\011/* EndIf */
NPUSHB[ ]\011/* 10 values pushed */
36 34 17 19 17 21 16 7 7 27 
CALL[ ]\011/* CallFunction */";
};
width = 306;
}
);
note = ldot;
unicode = 0140;
},
{
glyphname = m;
layers = (
{
background = {
paths = (
{
closed = 1;
nodes = (
"744 24 LINE",
"731 24 OFFCURVE",
"731 43 QCURVE SMOOTH",
"731 288 LINE SMOOTH",
"731 363 OFFCURVE",
"668 430 OFFCURVE",
"597 430 QCURVE SMOOTH",
"544 430 OFFCURVE",
"465 372 OFFCURVE",
"448 317 QCURVE",
"439 382 OFFCURVE",
"374 430 OFFCURVE",
"317 430 QCURVE SMOOTH",
"263 430 OFFCURVE",
"187 375 OFFCURVE",
"172 331 QCURVE",
"172 386 LINE SMOOTH",
"172 405 OFFCURVE",
"177 420 QCURVE",
"35 420 LINE",
"35 394 LINE",
"72 396 LINE",
"78 396 OFFCURVE",
"85 384 OFFCURVE",
"85 376 QCURVE SMOOTH",
"85 43 LINE SMOOTH",
"85 27 OFFCURVE",
"72 24 QCURVE",
"35 26 LINE",
"35 0 LINE",
"230 0 LINE",
"230 26 LINE",
"184 24 LINE",
"171 24 OFFCURVE",
"171 43 QCURVE SMOOTH",
"172 231 LINE",
"177 305 OFFCURVE",
"243 397 OFFCURVE",
"294 397 QCURVE SMOOTH",
"325 397 OFFCURVE",
"354 376 OFFCURVE",
"365 324 OFFCURVE",
"365 272 QCURVE SMOOTH",
"365 43 LINE SMOOTH",
"365 27 OFFCURVE",
"352 24 QCURVE",
"306 26 LINE",
"306 0 LINE",
"511 0 LINE",
"511 26 LINE",
"464 24 LINE",
"451 24 OFFCURVE",
"451 43 QCURVE SMOOTH",
"451 223 LINE",
"454 302 OFFCURVE",
"525 398 OFFCURVE",
"578 398 QCURVE SMOOTH",
"608 398 OFFCURVE",
"636 370 OFFCURVE",
"645 318 OFFCURVE",
"645 270 QCURVE SMOOTH",
"645 43 LINE SMOOTH",
"645 27 OFFCURVE",
"632 24 QCURVE",
"586 26 LINE",
"586 0 LINE",
"781 0 LINE",
"781 26 LINE"
);
},
{
closed = 1;
nodes = (
"171 195 LINE",
"171 203 LINE"
);
}
);
};
layerId = "3A4136D0-3900-4A7F-B896-13EBFCDD931C";
paths = (
{
closed = 1;
nodes = (
"744 24 LINE",
"731 24 OFFCURVE",
"731 43 QCURVE SMOOTH",
"731 288 LINE SMOOTH",
"731 363 OFFCURVE",
"668 430 OFFCURVE",
"597 430 QCURVE SMOOTH",
"544 430 OFFCURVE",
"465 372 OFFCURVE",
"448 317 QCURVE",
"439 382 OFFCURVE",
"374 430 OFFCURVE",
"317 430 QCURVE SMOOTH",
"263 430 OFFCURVE",
"187 375 OFFCURVE",
"172 331 QCURVE",
"172 386 LINE SMOOTH",
"172 405 OFFCURVE",
"177 420 QCURVE",
"35 420 LINE",
"35 394 LINE",
"72 396 LINE",
"85 395 OFFCURVE",
"85 376 QCURVE SMOOTH",
"85 43 LINE SMOOTH",
"85 27 OFFCURVE",
"72 24 QCURVE",
"35 26 LINE",
"35 0 LINE",
"230 0 LINE",
"230 26 LINE",
"184 24 LINE",
"171 24 OFFCURVE",
"171 43 QCURVE SMOOTH",
"172 231 LINE",
"177 305 OFFCURVE",
"243 397 OFFCURVE",
"294 397 QCURVE SMOOTH",
"340 397 OFFCURVE",
"365 344 OFFCURVE",
"365 272 QCURVE SMOOTH",
"365 43 LINE SMOOTH",
"365 27 OFFCURVE",
"352 24 QCURVE",
"306 26 LINE",
"306 0 LINE",
"511 0 LINE",
"511 26 LINE",
"464 24 LINE",
"451 24 OFFCURVE",
"451 43 QCURVE SMOOTH",
"451 223 LINE",
"454 302 OFFCURVE",
"525 398 OFFCURVE",
"578 398 QCURVE SMOOTH",
"615 398 OFFCURVE",
"645 352 OFFCURVE",
"645 270 QCURVE SMOOTH",
"645 43 LINE SMOOTH",
"645 27 OFFCURVE",
"632 24 QCURVE",
"586 26 LINE",
"586 0 LINE",
"781 0 LINE",
"781 26 LINE"
);
}
);
userData = {
assembly = "NPUSHB[ ]\011/* 80 values pushed */
58 52 43 3 1 2 1 74 10 6 2 2 2 12 95 13 1 12 12 28 75 10 6 2 2 2 11 93 0 11 11 20 75 15 14 9 7 5 3 6 1 1 0 93 8 4 2 0 0 21 0 76 0 0 0 67 0 66 62 60 56 54 49 48 47 45 40 39 17 36 38 17 17 36 38 17 17 16 7 29 
CALL[ ]\011/* CallFunction */";
};
width = 801;
},
{
background = {
paths = (
{
closed = 1;
nodes = (
"763 32 LINE",
"750 32 OFFCURVE",
"750 51 QCURVE SMOOTH",
"750 292 LINE SMOOTH",
"750 366 OFFCURVE",
"691 435 OFFCURVE",
"627 435 QCURVE SMOOTH",
"572 435 OFFCURVE",
"492 380 OFFCURVE",
"471 329 QCURVE",
"464 385 OFFCURVE",
"405 435 OFFCURVE",
"351 435 QCURVE SMOOTH",
"297 435 OFFCURVE",
"219 382 OFFCURVE",
"198 335 QCURVE",
"198 391 LINE SMOOTH",
"198 410 OFFCURVE",
"203 425 QCURVE",
"20 425 LINE",
"20 392 LINE",
"53 394 LINE",
"66 391 OFFCURVE",
"66 374 QCURVE SMOOTH",
"66 51 LINE SMOOTH",
"66 35 OFFCURVE",
"53 32 QCURVE",
"20 34 LINE",
"20 0 LINE",
"246 0 LINE",
"246 34 LINE",
"210 32 LINE SMOOTH",
"197 31 OFFCURVE",
"197 51 QCURVE SMOOTH",
"197 213 LINE",
"200 267 OFFCURVE",
"234 346 OFFCURVE",
"281 388 OFFCURVE",
"302 388 QCURVE SMOOTH",
"327 388 OFFCURVE",
"343 346 OFFCURVE",
"343 293 QCURVE SMOOTH",
"343 51 LINE SMOOTH",
"343 35 OFFCURVE",
"330 32 QCURVE",
"294 34 LINE",
"294 0 LINE",
"522 0 LINE",
"522 34 LINE",
"487 32 LINE",
"474 32 OFFCURVE",
"474 51 QCURVE SMOOTH",
"474 203 LINE SMOOTH",
"475 260 OFFCURVE",
"509 344 OFFCURVE",
"558 388 OFFCURVE",
"580 388 QCURVE SMOOTH",
"604 388 OFFCURVE",
"619 344 OFFCURVE",
"619 293 QCURVE SMOOTH",
"619 51 LINE SMOOTH",
"619 35 OFFCURVE",
"606 32 QCURVE",
"570 34 LINE",
"570 0 LINE",
"796 0 LINE",
"796 34 LINE"
);
}
);
};
layerId = "A0AC7266-FF1C-4B13-9E61-C3CFB2289D5A";
paths = (
{
closed = 1;
nodes = (
"763 32 LINE",
"750 32 OFFCURVE",
"750 51 QCURVE SMOOTH",
"750 292 LINE SMOOTH",
"750 366 OFFCURVE",
"691 435 OFFCURVE",
"627 435 QCURVE SMOOTH",
"572 435 OFFCURVE",
"492 380 OFFCURVE",
"471 329 QCURVE",
"464 385 OFFCURVE",
"405 435 OFFCURVE",
"351 435 QCURVE SMOOTH",
"297 435 OFFCURVE",
"219 382 OFFCURVE",
"198 335 QCURVE",
"198 391 LINE SMOOTH",
"198 410 OFFCURVE",
"203 425 QCURVE",
"20 425 LINE",
"20 392 LINE",
"53 394 LINE",
"66 393 OFFCURVE",
"66 374 QCURVE SMOOTH",
"66 51 LINE SMOOTH",
"66 35 OFFCURVE",
"53 32 QCURVE",
"20 34 LINE",
"20 0 LINE",
"246 0 LINE",
"246 34 LINE",
"210 32 LINE SMOOTH",
"197 31 OFFCURVE",
"197 51 QCURVE SMOOTH",
"197 213 LINE",
"200 287 OFFCURVE",
"266 388 OFFCURVE",
"302 388 QCURVE SMOOTH",
"327 388 OFFCURVE",
"343 346 OFFCURVE",
"343 293 QCURVE SMOOTH",
"343 51 LINE SMOOTH",
"343 35 OFFCURVE",
"330 32 QCURVE",
"294 34 LINE",
"294 0 LINE",
"522 0 LINE",
"522 34 LINE",
"487 32 LINE",
"474 32 OFFCURVE",
"474 51 QCURVE SMOOTH",
"474 203 LINE SMOOTH",
"474 280 OFFCURVE",
"543 388 OFFCURVE",
"580 388 QCURVE SMOOTH",
"604 388 OFFCURVE",
"619 344 OFFCURVE",
"619 293 QCURVE SMOOTH",
"619 51 LINE SMOOTH",
"619 35 OFFCURVE",
"606 32 QCURVE",
"570 34 LINE",
"570 0 LINE",
"796 0 LINE",
"796 34 LINE"
);
}
);
userData = {
assembly = "PUSHB[ ]\011/* 7 values pushed */
57 51 2 1 2 1 74 
MPPEM[ ]\011/* MeasurePixelPerEm */
PUSHB[ ]\011/* 1 value pushed */
10 
LT[ ]\011/* LessThan */
IF[ ]\011/* If */
NPUSHB[ ]\011/* 44 values pushed */
10 6 2 2 2 12 95 13 1 12 12 28 75 10 6 2 2 2 11 93 0 11 11 20 75 15 14 9 7 5 3 6 1 1 0 93 8 4 2 0 0 21 0 76 
ELSE[ ]\011/* Else */
MPPEM[ ]\011/* MeasurePixelPerEm */
PUSHB[ ]\011/* 1 value pushed */
12 
LT[ ]\011/* LessThan */
IF[ ]\011/* If */
NPUSHB[ ]\011/* 41 values pushed */
0 10 10 11 93 0 11 11 20 75 6 1 2 2 12 95 13 1 12 12 28 75 15 14 9 7 5 3 6 1 1 0 93 8 4 2 0 0 21 0 76 
ELSE[ ]\011/* Else */
MPPEM[ ]\011/* MeasurePixelPerEm */
PUSHB[ ]\011/* 1 value pushed */
45 
LT[ ]\011/* LessThan */
IF[ ]\011/* If */
NPUSHB[ ]\011/* 44 values pushed */
10 6 2 2 2 12 95 13 1 12 12 28 75 10 6 2 2 2 11 93 0 11 11 20 75 15 14 9 7 5 3 6 1 1 0 93 8 4 2 0 0 21 0 76 
ELSE[ ]\011/* Else */
NPUSHB[ ]\011/* 41 values pushed */
0 10 10 11 93 0 11 11 20 75 6 1 2 2 12 95 13 1 12 12 28 75 15 14 9 7 5 3 6 1 1 0 93 8 4 2 0 0 21 0 76 
EIF[ ]\011/* EndIf */
EIF[ ]\011/* EndIf */
EIF[ ]\011/* EndIf */
NPUSHB[ ]\011/* 28 values pushed */
0 0 0 66 0 65 61 59 55 53 48 47 46 45 40 39 17 22 37 17 17 37 37 17 17 16 7 29 
CALL[ ]\011/* CallFunction */";
};
width = 807;
}
);
leftKerningGroup = dotlessi;
note = m;
rightKerningGroup = a;
unicode = 006D;
},
{
glyphname = n;
layers = (
{
anchors = (
{
name = bottom;
position = "{272, 0}";
},
{
name = top;
position = "{280, 420}";
},
{
name = topright;
position = "{83, 420}";
}
);
background = {
paths = (
{
closed = 1;
nodes = (
"468 24 LINE",
"455 24 OFFCURVE",
"455 43 QCURVE SMOOTH",
"455 288 LINE SMOOTH",
"455 363 OFFCURVE",
"392 430 OFFCURVE",
"321 430 QCURVE SMOOTH",
"270 430 OFFCURVE",
"192 377 OFFCURVE",
"171 330 QCURVE",
"171 385 LINE SMOOTH",
"171 405 OFFCURVE",
"176 420 QCURVE",
"35 420 LINE",
"35 394 LINE",
"72 396 LINE",
"85 393 OFFCURVE",
"85 376 QCURVE SMOOTH",
"85 43 LINE SMOOTH",
"85 27 OFFCURVE",
"72 24 QCURVE",
"35 26 LINE",
"35 0 LINE",
"230 0 LINE",
"230 26 LINE",
"184 24 LINE",
"171 24 OFFCURVE",
"171 43 QCURVE SMOOTH",
"171 219 LINE SMOOTH",
"174 301 OFFCURVE",
"245 398 OFFCURVE",
"302 398 QCURVE SMOOTH",
"332 398 OFFCURVE",
"360 370 OFFCURVE",
"369 318 OFFCURVE",
"369 270 QCURVE SMOOTH",
"369 43 LINE SMOOTH",
"369 27 OFFCURVE",
"356 24 QCURVE",
"310 26 LINE",
"310 0 LINE",
"505 0 LINE",
"505 26 LINE"
);
}
);
};
layerId = "3A4136D0-3900-4A7F-B896-13EBFCDD931C";
paths = (
{
closed = 1;
nodes = (
"468 24 LINE",
"455 24 OFFCURVE",
"455 43 QCURVE SMOOTH",
"455 288 LINE SMOOTH",
"455 363 OFFCURVE",
"392 430 OFFCURVE",
"321 430 QCURVE SMOOTH",
"270 430 OFFCURVE",
"192 377 OFFCURVE",
"171 330 QCURVE",
"171 385 LINE SMOOTH",
"171 405 OFFCURVE",
"176 420 QCURVE",
"35 420 LINE",
"35 394 LINE",
"72 396 LINE",
"85 393 OFFCURVE",
"85 376 QCURVE SMOOTH",
"85 43 LINE SMOOTH",
"85 27 OFFCURVE",
"72 24 QCURVE",
"35 26 LINE",
"35 0 LINE",
"230 0 LINE",
"230 26 LINE",
"184 24 LINE",
"171 24 OFFCURVE",
"171 43 QCURVE SMOOTH",
"171 219 LINE SMOOTH",
"174 301 OFFCURVE",
"245 398 OFFCURVE",
"302 398 QCURVE SMOOTH",
"344 398 OFFCURVE",
"369 339 OFFCURVE",
"369 270 QCURVE SMOOTH",
"369 43 LINE SMOOTH",
"369 27 OFFCURVE",
"356 24 QCURVE",
"310 26 LINE",
"310 0 LINE",
"505 0 LINE",
"505 26 LINE"
);
}
);
userData = {
assembly = "NPUSHB[ ]\011/* 62 values pushed */
33 1 1 2 1 74 6 1 2 2 8 95 0 8 8 28 75 6 1 2 2 7 93 0 7 7 20 75 10 9 5 3 4 1 1 0 93 4 1 0 0 21 0 76 0 0 0 42 0 41 37 17 21 17 17 36 38 17 17 11 7 29 
CALL[ ]\011/* CallFunction */";
};
width = 525;
},
{
anchors = (
{
name = bottom;
position = "{274, 0}";
},
{
name = top;
position = "{282, 425}";
},
{
name = topright;
position = "{85, 425}";
}
);
background = {
paths = (
{
closed = 1;
nodes = (
"495 32 LINE",
"482 32 OFFCURVE",
"482 51 QCURVE SMOOTH",
"482 292 LINE SMOOTH",
"482 366 OFFCURVE",
"420 435 OFFCURVE",
"352 435 QCURVE SMOOTH",
"298 435 OFFCURVE",
"219 382 OFFCURVE",
"197 334 QCURVE",
"197 390 LINE SMOOTH",
"197 410 OFFCURVE",
"202 425 QCURVE",
"20 425 LINE",
"20 392 LINE",
"53 394 LINE",
"66 391 OFFCURVE",
"66 374 QCURVE SMOOTH",
"66 51 LINE SMOOTH",
"66 35 OFFCURVE",
"53 32 QCURVE",
"20 34 LINE",
"20 0 LINE",
"249 0 LINE",
"249 34 LINE",
"210 32 LINE",
"197 32 OFFCURVE",
"197 51 QCURVE SMOOTH",
"197 198 LINE SMOOTH",
"197 258 OFFCURVE",
"229 344 OFFCURVE",
"278 388 OFFCURVE",
"304 388 QCURVE SMOOTH",
"334 388 OFFCURVE",
"351 345 OFFCURVE",
"351 293 QCURVE SMOOTH",
"351 51 LINE SMOOTH",
"351 35 OFFCURVE",
"338 32 QCURVE",
"300 34 LINE",
"300 0 LINE",
"528 0 LINE",
"528 34 LINE"
);
}
);
};
layerId = "A0AC7266-FF1C-4B13-9E61-C3CFB2289D5A";
paths = (
{
closed = 1;
nodes = (
"495 32 LINE",
"482 32 OFFCURVE",
"482 51 QCURVE SMOOTH",
"482 292 LINE SMOOTH",
"482 366 OFFCURVE",
"420 435 OFFCURVE",
"352 435 QCURVE SMOOTH",
"298 435 OFFCURVE",
"219 382 OFFCURVE",
"197 334 QCURVE",
"197 390 LINE SMOOTH",
"197 410 OFFCURVE",
"202 425 QCURVE",
"20 425 LINE",
"20 392 LINE",
"53 394 LINE",
"66 391 OFFCURVE",
"66 374 QCURVE SMOOTH",
"66 51 LINE SMOOTH",
"66 35 OFFCURVE",
"53 32 QCURVE",
"20 34 LINE",
"20 0 LINE",
"249 0 LINE",
"249 34 LINE",
"210 32 LINE",
"197 32 OFFCURVE",
"197 51 QCURVE SMOOTH",
"197 198 LINE SMOOTH",
"197 290 OFFCURVE",
"265 388 OFFCURVE",
"304 388 QCURVE SMOOTH",
"334 388 OFFCURVE",
"351 345 OFFCURVE",
"351 293 QCURVE SMOOTH",
"351 51 LINE SMOOTH",
"351 35 OFFCURVE",
"338 32 QCURVE",
"300 34 LINE",
"300 0 LINE",
"528 0 LINE",
"528 34 LINE"
);
}
);
userData = {
assembly = "PUSHB[ ]\011/* 6 values pushed */
33 1 1 2 1 74 
MPPEM[ ]\011/* MeasurePixelPerEm */
PUSHB[ ]\011/* 1 value pushed */
10 
LT[ ]\011/* LessThan */
IF[ ]\011/* If */
NPUSHB[ ]\011/* 38 values pushed */
6 1 2 2 8 95 0 8 8 28 75 6 1 2 2 7 93 0 7 7 20 75 10 9 5 3 4 1 1 0 93 4 1 0 0 21 0 76 
ELSE[ ]\011/* Else */
MPPEM[ ]\011/* MeasurePixelPerEm */
PUSHB[ ]\011/* 1 value pushed */
12 
LT[ ]\011/* LessThan */
IF[ ]\011/* If */
NPUSHB[ ]\011/* 36 values pushed */
0 6 6 7 93 0 7 7 20 75 0 2 2 8 95 0 8 8 28 75 10 9 5 3 4 1 1 0 93 4 1 0 0 21 0 76 
ELSE[ ]\011/* Else */
MPPEM[ ]\011/* MeasurePixelPerEm */
PUSHB[ ]\011/* 1 value pushed */
45 
LT[ ]\011/* LessThan */
IF[ ]\011/* If */
NPUSHB[ ]\011/* 38 values pushed */
6 1 2 2 8 95 0 8 8 28 75 6 1 2 2 7 93 0 7 7 20 75 10 9 5 3 4 1 1 0 93 4 1 0 0 21 0 76 
ELSE[ ]\011/* Else */
NPUSHB[ ]\011/* 36 values pushed */
0 6 6 7 93 0 7 7 20 75 0 2 2 8 95 0 8 8 28 75 10 9 5 3 4 1 1 0 93 4 1 0 0 21 0 76 
EIF[ ]\011/* EndIf */
EIF[ ]\011/* EndIf */
EIF[ ]\011/* EndIf */
NPUSHB[ ]\011/* 18 values pushed */
0 0 0 42 0 41 37 17 21 17 17 37 37 17 17 11 7 29 
CALL[ ]\011/* CallFunction */";
};
width = 539;
}
);
leftKerningGroup = dotlessi;
note = n;
rightKerningGroup = a;
unicode = 006E;
},
{
glyphname = eng;
layers = (
{
layerId = "3A4136D0-3900-4A7F-B896-13EBFCDD931C";
paths = (
{
closed = 1;
nodes = (
"455 43 LINE",
"455 288 LINE SMOOTH",
"455 363 OFFCURVE",
"392 430 OFFCURVE",
"321 430 QCURVE SMOOTH",
"270 430 OFFCURVE",
"192 377 OFFCURVE",
"171 330 QCURVE",
"171 385 LINE SMOOTH",
"171 405 OFFCURVE",
"176 420 QCURVE",
"35 420 LINE",
"35 394 LINE",
"72 396 LINE",
"85 393 OFFCURVE",
"85 376 QCURVE SMOOTH",
"85 43 LINE SMOOTH",
"85 27 OFFCURVE",
"72 24 QCURVE",
"35 26 LINE",
"35 0 LINE",
"230 0 LINE",
"230 26 LINE",
"184 24 LINE",
"171 24 OFFCURVE",
"171 43 QCURVE SMOOTH",
"171 219 LINE SMOOTH",
"174 301 OFFCURVE",
"245 398 OFFCURVE",
"302 398 QCURVE SMOOTH",
"344 398 OFFCURVE",
"369 339 OFFCURVE",
"369 270 QCURVE SMOOTH",
"369 43 LINE SMOOTH"
);
},
{
closed = 1;
nodes = (
"369 200 LINE",
"369 -59 LINE SMOOTH",
"369 -90 OFFCURVE",
"371 -133 QCURVE SMOOTH",
"375 -216 OFFCURVE",
"318 -216 QCURVE SMOOTH",
"287 -216 OFFCURVE",
"287 -191 QCURVE SMOOTH",
"287 -187 OFFCURVE",
"293 -165 OFFCURVE",
"293 -160 QCURVE SMOOTH",
"293 -144 OFFCURVE",
"270 -132 OFFCURVE",
"258 -132 QCURVE SMOOTH",
"237 -132 OFFCURVE",
"211 -156 OFFCURVE",
"211 -176 QCURVE SMOOTH",
"211 -204 OFFCURVE",
"266 -243 OFFCURVE",
"312 -243 QCURVE SMOOTH",
"455 -243 OFFCURVE",
"455 -4 QCURVE SMOOTH",
"455 200 LINE"
);
}
);
width = 525;
},
{
layerId = "A0AC7266-FF1C-4B13-9E61-C3CFB2289D5A";
paths = (
{
closed = 1;
nodes = (
"482 51 LINE",
"482 292 LINE SMOOTH",
"482 366 OFFCURVE",
"420 435 OFFCURVE",
"352 435 QCURVE SMOOTH",
"298 435 OFFCURVE",
"219 382 OFFCURVE",
"197 334 QCURVE",
"197 390 LINE SMOOTH",
"197 410 OFFCURVE",
"202 425 QCURVE",
"20 425 LINE",
"20 392 LINE",
"53 394 LINE",
"66 391 OFFCURVE",
"66 374 QCURVE SMOOTH",
"66 51 LINE SMOOTH",
"66 35 OFFCURVE",
"53 32 QCURVE",
"20 34 LINE",
"20 0 LINE",
"249 0 LINE",
"249 34 LINE",
"210 32 LINE",
"197 32 OFFCURVE",
"197 51 QCURVE SMOOTH",
"197 198 LINE SMOOTH",
"197 290 OFFCURVE",
"265 388 OFFCURVE",
"304 388 QCURVE SMOOTH",
"334 388 OFFCURVE",
"351 345 OFFCURVE",
"351 293 QCURVE SMOOTH",
"351 51 LINE SMOOTH"
);
},
{
closed = 1;
nodes = (
"351 206 LINE",
"351 -37 LINE SMOOTH",
"353 -100 OFFCURVE",
"361 -156 QCURVE SMOOTH",
"368 -208 OFFCURVE",
"329 -209 QCURVE SMOOTH",
"307 -210 OFFCURVE",
"307 -184 QCURVE SMOOTH",
"307 -180 OFFCURVE",
"313 -158 OFFCURVE",
"313 -153 QCURVE SMOOTH",
"313 -128 OFFCURVE",
"276 -108 OFFCURVE",
"258 -108 QCURVE SMOOTH",
"229 -108 OFFCURVE",
"195 -140 OFFCURVE",
"195 -166 QCURVE SMOOTH",
"195 -201 OFFCURVE",
"263 -243 OFFCURVE",
"324 -243 QCURVE SMOOTH",
"482 -243 OFFCURVE",
"482 -12 QCURVE SMOOTH",
"482 206 LINE"
);
}
);
width = 539;
}
);
unicode = 014B;
},
{
glyphname = nhookleft;
layers = (
{
layerId = "3A4136D0-3900-4A7F-B896-13EBFCDD931C";
paths = (
{
closed = 1;
nodes = (
"468 24 LINE",
"455 24 OFFCURVE",
"455 43 QCURVE SMOOTH",
"455 288 LINE SMOOTH",
"455 363 OFFCURVE",
"392 430 OFFCURVE",
"321 430 QCURVE SMOOTH",
"270 430 OFFCURVE",
"192 377 OFFCURVE",
"171 330 QCURVE",
"141 290 LINE",
"171 219 LINE",
"174 301 OFFCURVE",
"245 398 OFFCURVE",
"302 398 QCURVE SMOOTH",
"344 398 OFFCURVE",
"369 339 OFFCURVE",
"369 270 QCURVE SMOOTH",
"369 43 LINE SMOOTH",
"369 27 OFFCURVE",
"356 24 QCURVE",
"310 26 LINE",
"310 0 LINE",
"505 0 LINE",
"505 26 LINE"
);
},
{
closed = 1;
nodes = (
"171 420 LINE",
"31 420 LINE",
"31 394 LINE",
"72 396 LINE",
"85 396 OFFCURVE",
"85 376 QCURVE SMOOTH",
"85 -59 LINE SMOOTH",
"85 -90 OFFCURVE",
"87 -133 QCURVE SMOOTH",
"91 -216 OFFCURVE",
"34 -216 QCURVE SMOOTH",
"3 -216 OFFCURVE",
"3 -191 QCURVE SMOOTH",
"3 -187 OFFCURVE",
"9 -165 OFFCURVE",
"9 -160 QCURVE SMOOTH",
"9 -144 OFFCURVE",
"-14 -132 OFFCURVE",
"-26 -132 QCURVE SMOOTH",
"-47 -132 OFFCURVE",
"-73 -156 OFFCURVE",
"-73 -176 QCURVE SMOOTH",
"-73 -204 OFFCURVE",
"-18 -243 OFFCURVE",
"28 -243 QCURVE SMOOTH",
"171 -243 OFFCURVE",
"171 -4 QCURVE SMOOTH"
);
}
);
width = 525;
},
{
layerId = "A0AC7266-FF1C-4B13-9E61-C3CFB2289D5A";
paths = (
{
closed = 1;
nodes = (
"495 32 LINE",
"482 32 OFFCURVE",
"482 51 QCURVE SMOOTH",
"482 292 LINE SMOOTH",
"482 366 OFFCURVE",
"420 435 OFFCURVE",
"352 435 QCURVE SMOOTH",
"298 435 OFFCURVE",
"219 382 OFFCURVE",
"197 334 QCURVE",
"127 292 LINE",
"197 198 LINE",
"197 290 OFFCURVE",
"265 388 OFFCURVE",
"304 388 QCURVE SMOOTH",
"334 388 OFFCURVE",
"351 345 OFFCURVE",
"351 293 QCURVE SMOOTH",
"351 51 LINE SMOOTH",
"351 35 OFFCURVE",
"338 32 QCURVE",
"300 34 LINE",
"300 0 LINE",
"528 0 LINE",
"528 34 LINE"
);
},
{
closed = 1;
nodes = (
"197 425 LINE",
"20 425 LINE",
"20 392 LINE",
"53 394 LINE SMOOTH",
"66 394 OFFCURVE",
"66 374 QCURVE SMOOTH",
"66 -37 LINE SMOOTH",
"68 -100 OFFCURVE",
"76 -156 QCURVE SMOOTH",
"83 -208 OFFCURVE",
"44 -209 QCURVE SMOOTH",
"22 -210 OFFCURVE",
"22 -184 QCURVE SMOOTH",
"22 -180 OFFCURVE",
"28 -158 OFFCURVE",
"28 -153 QCURVE SMOOTH",
"28 -128 OFFCURVE",
"-9 -108 OFFCURVE",
"-27 -108 QCURVE SMOOTH",
"-56 -108 OFFCURVE",
"-90 -140 OFFCURVE",
"-90 -166 QCURVE SMOOTH",
"-90 -201 OFFCURVE",
"-22 -243 OFFCURVE",
"39 -243 QCURVE SMOOTH",
"197 -243 OFFCURVE",
"197 -12 QCURVE SMOOTH"
);
}
);
width = 539;
}
);
leftMetricsKey = j;
unicode = 0272;
},
{
glyphname = o;
layers = (
{
anchors = (
{
name = bottom;
position = "{238, 0}";
},
{
name = center;
position = "{236, 214}";
},
{
name = ogonek;
position = "{306, 0}";
},
{
name = top;
position = "{236, 420}";
},
{
name = topright;
position = "{264, 420}";
}
);
background = {
paths = (
{
closed = 1;
nodes = (
"35 107 OFFCURVE",
"137 -10 OFFCURVE",
"236 -10 QCURVE SMOOTH",
"335 -10 OFFCURVE",
"437 107 OFFCURVE",
"437 211 QCURVE SMOOTH",
"437 313 OFFCURVE",
"335 430 OFFCURVE",
"236 430 QCURVE SMOOTH",
"137 430 OFFCURVE",
"35 313 OFFCURVE",
"35 211 QCURVE SMOOTH"
);
},
{
closed = 1;
nodes = (
"126 311 OFFCURVE",
"177 403 OFFCURVE",
"236 403 QCURVE SMOOTH",
"295 403 OFFCURVE",
"346 311 OFFCURVE",
"346 209 QCURVE SMOOTH",
"346 108 OFFCURVE",
"295 17 OFFCURVE",
"236 17 QCURVE SMOOTH",
"177 17 OFFCURVE",
"126 108 OFFCURVE",
"126 209 QCURVE SMOOTH"
);
}
);
};
layerId = "3A4136D0-3900-4A7F-B896-13EBFCDD931C";
paths = (
{
closed = 1;
nodes = (
"35 107 OFFCURVE",
"137 -10 OFFCURVE",
"233 -10 QCURVE SMOOTH",
"434 -10 OFFCURVE",
"437 216 QCURVE SMOOTH",
"437 315 OFFCURVE",
"334 430 OFFCURVE",
"236 430 QCURVE SMOOTH",
"137 430 OFFCURVE",
"35 313 OFFCURVE",
"35 211 QCURVE SMOOTH"
);
},
{
closed = 1;
nodes = (
"126 311 OFFCURVE",
"177 403 OFFCURVE",
"236 403 QCURVE SMOOTH",
"295 403 OFFCURVE",
"346 311 OFFCURVE",
"346 209 QCURVE SMOOTH",
"346 108 OFFCURVE",
"295 17 OFFCURVE",
"236 17 QCURVE SMOOTH",
"177 17 OFFCURVE",
"126 108 OFFCURVE",
"126 209 QCURVE SMOOTH"
);
}
);
userData = {
assembly = "NPUSHB[ ]\011/* 28 values pushed */
0 3 3 0 95 0 0 0 28 75 0 2 2 1 95 0 1 1 26 1 76 36 36 36 33 4 7 24 
CALL[ ]\011/* CallFunction */";
};
width = 472;
},
{
anchors = (
{
name = bottom;
position = "{246, 0}";
},
{
name = center;
position = "{244, 214}";
},
{
name = ogonek;
position = "{329, 0}";
},
{
name = top;
position = "{244, 425}";
},
{
name = topright;
position = "{272, 425}";
}
);
layerId = "A0AC7266-FF1C-4B13-9E61-C3CFB2289D5A";
paths = (
{
closed = 1;
nodes = (
"20 104 OFFCURVE",
"132 -10 OFFCURVE",
"244 -10 QCURVE SMOOTH",
"467 -10 OFFCURVE",
"467 213 QCURVE SMOOTH",
"467 321 OFFCURVE",
"357 435 OFFCURVE",
"244 435 QCURVE SMOOTH",
"132 435 OFFCURVE",
"20 321 OFFCURVE",
"20 213 QCURVE SMOOTH"
);
},
{
closed = 1;
nodes = (
"160 315 OFFCURVE",
"199 401 OFFCURVE",
"244 401 QCURVE SMOOTH",
"289 401 OFFCURVE",
"327 315 OFFCURVE",
"327 211 QCURVE SMOOTH",
"327 109 OFFCURVE",
"289 25 OFFCURVE",
"244 25 QCURVE SMOOTH",
"199 25 OFFCURVE",
"160 110 OFFCURVE",
"160 211 QCURVE SMOOTH"
);
}
);
userData = {
assembly = "NPUSHB[ ]\011/* 28 values pushed */
0 3 3 0 95 0 0 0 28 75 0 2 2 1 95 0 1 1 26 1 76 36 36 35 33 4 7 24 
CALL[ ]\011/* CallFunction */";
};
width = 487;
}
);
leftKerningGroup = c;
note = o;
rightKerningGroup = o;
unicode = 006F;
},
